  0
SECTION
  2
HEADER
  9
$ACADVER
  1
AC1014
  9
$HANDSEED
  5
FFFF
  9
$MEASUREMENT
 70
     1
  0
ENDSEC
  0
SECTION
  2
TABLES
  0
TABLE
  2
VPORT
  5
8
330
0
100
AcDbSymbolTable
 70
     4
  0
VPORT
  5
2E
330
8
100
AcDbSymbolTableRecord
100
AcDbViewportTableRecord
  2
*ACTIVE
 70
     0
 10
0.0
 20
0.0
 11
1.0
 21
1.0
 12
210.0
 22
148.5
 13
0.0
 23
0.0
 14
10.0
 24
10.0
 15
10.0
 25
10.0
 16
0.0
 26
0.0
 36
1.0
 17
0.0
 27
0.0
 37
0.0
 40
341.0
 41
1.24
 42
50.0
 43
0.0
 44
0.0
 50
0.0
 51
0.0
 71
     0
 72
   100
 73
     1
 74
     3
 75
     0
 76
     0
 77
     0
 78
     0
  0
ENDTAB
  0
TABLE
  2
LTYPE
  5
5
330
0
100
AcDbSymbolTable
 70
     1
  0
LTYPE
  5
14
330
5
100
AcDbSymbolTableRecord
100
AcDbLinetypeTableRecord
  2
BYBLOCK
 70
     0
  3

 72
    65
 73
     0
 40
0.0
  0
LTYPE
  5
15
330
5
100
AcDbSymbolTableRecord
100
AcDbLinetypeTableRecord
  2
BYLAYER
 70
     0
  3

 72
    65
 73
     0
 40
0.0
  0
LTYPE
  5
16
330
5
100
AcDbSymbolTableRecord
100
AcDbLinetypeTableRecord
  2
CONTINUOUS
 70
     0
  3
Solid line
 72
    65
 73
     0
 40
0.0
  0
ENDTAB
  0
TABLE
  2
LAYER
  5
2
100
AcDbSymbolTable
 70
2
  0
LAYER
  5
50
100
AcDbSymbolTableRecord
100
AcDbLayerTableRecord
  2
0
 70
0
  6
CONTINUOUS
  0
LAYER
  5
51
100
AcDbSymbolTableRecord
100
AcDbLayerTableRecord
  2
Lag_1
 70
0
  6
CONTINUOUS
  0
ENDTAB
  0
TABLE
  2
STYLE
  5
3
330
0
100
AcDbSymbolTable
 70
     1
  0
STYLE
  5
11
330
3
100
AcDbSymbolTableRecord
100
AcDbTextStyleTableRecord
  2
STANDARD
 70
     0
 40
0.0
 41
1.0
 50
0.0
 71
     0
 42
2.5
  3
txt
  4

  0
ENDTAB
  0
TABLE
  2
VIEW
  5
6
330
0
100
AcDbSymbolTable
 70
     0
  0
ENDTAB
  0
TABLE
  2
UCS
  5
7
330
0
100
AcDbSymbolTable
 70
     0
  0
ENDTAB
  0
TABLE
  2
APPID
  5
9
330
0
100
AcDbSymbolTable
 70
     2
  0
APPID
  5
12
330
9
100
AcDbSymbolTableRecord
100
AcDbRegAppTableRecord
  2
ACAD
 70
     0
  0
ENDTAB
  0
TABLE
  2
DIMSTYLE
  5
A
330
0
100
AcDbSymbolTable
 70
     1
  0
DIMSTYLE
105
27
330
A
100
AcDbSymbolTableRecord
100
AcDbDimStyleTableRecord
  2
ISO-25
 70
     0
  3

  4

  5

  6

  7

 40
1.0
 41
2.5
 42
0.625
 43
3.75
 44
1.25
 45
0.0
 46
0.0
 47
0.0
 48
0.0
140
2.5
141
2.5
142
0.0
143
0.03937007874016
144
1.0
145
0.0
146
1.0
147
0.625
 71
     0
 72
     0
 73
     0
 74
     0
 75
     0
 76
     0
 77
     1
 78
     8
170
     0
171
     3
172
     1
173
     0
174
     0
175
     0
176
     0
177
     0
178
     0
270
     2
271
     2
272
     2
273
     2
274
     3
340
11
275
     0
280
     0
281
     0
282
     0
283
     0
284
     8
285
     0
286
     0
287
     3
288
     0
  0
ENDTAB
  0
TABLE
  2
BLOCK_RECORD
  5
1
330
0
100
AcDbSymbolTable
 70
     1
  0
BLOCK_RECORD
  5
1F
330
1
100
AcDbSymbolTableRecord
100
AcDbBlockTableRecord
  2
*MODEL_SPACE
  0
BLOCK_RECORD
  5
1B
330
1
100
AcDbSymbolTableRecord
100
AcDbBlockTableRecord
  2
*PAPER_SPACE
  0
ENDTAB
  0
ENDSEC
  0
SECTION
  2
BLOCKS
  0
BLOCK
  5
20
330
1F
100
AcDbEntity
  8
0
100
AcDbBlockBegin
  2
*MODEL_SPACE
 70
     0
 10
0.0
 20
0.0
 30
0.0
  3
*MODEL_SPACE
  1

  0
ENDBLK
  5
21
330
1F
100
AcDbEntity
  8
0
100
AcDbBlockEnd
  0
BLOCK
  5
1C
330
1B
100
AcDbEntity
 67
     1
  8
0
100
AcDbBlockBegin
  2
*PAPER_SPACE
  1

  0
ENDBLK
  5
1D
330
1B
100
AcDbEntity
 67
     1
  8
0
100
AcDbBlockEnd
  0
ENDSEC
  0
SECTION
  2
ENTITIES
  0
LWPOLYLINE
  5
100
100
AcDbEntity
  8
Lag_1
 62
7
100
AcDbPolyline
 90
4
 70
1
 10
120.589402
 20
9.772618
 30
0.0
 10
120.589402
 20
9.622696
 30
0.0
 10
177.709406
 20
9.622696
 30
0.0
 10
177.709406
 20
9.772618
 30
0.0
  0
LWPOLYLINE
  5
101
100
AcDbEntity
  8
Lag_1
 62
7
100
AcDbPolyline
 90
4
 70
1
 10
177.709406
 20
54.710166
 30
0.0
 10
177.709406
 20
54.560528
 30
0.0
 10
180.715536
 20
54.560528
 30
0.0
 10
180.715536
 20
54.710166
 30
0.0
  0
LWPOLYLINE
  5
102
100
AcDbEntity
  8
Lag_1
 62
7
100
AcDbPolyline
 90
4
 70
1
 10
180.640456
 20
51.639671
 30
0.0
 10
180.640456
 20
48.643980
 30
0.0
 10
180.790616
 20
48.643980
 30
0.0
 10
180.790616
 20
51.639671
 30
0.0
  0
LWPOLYLINE
  5
103
100
AcDbEntity
  8
Lag_1
 62
7
100
AcDbPolyline
 90
4
 70
1
 10
177.709406
 20
39.730006
 30
0.0
 10
177.709406
 20
39.580368
 30
0.0
 10
180.715536
 20
39.580368
 30
0.0
 10
180.715536
 20
39.730006
 30
0.0
  0
LWPOLYLINE
  5
104
100
AcDbEntity
  8
Lag_1
 62
7
100
AcDbPolyline
 90
4
 70
1
 10
177.634033
 20
36.659511
 30
0.0
 10
177.634033
 20
33.663536
 30
0.0
 10
177.784486
 20
33.663536
 30
0.0
 10
177.784486
 20
36.659511
 30
0.0
  0
LWPOLYLINE
  5
105
100
AcDbEntity
  8
Lag_1
 62
7
100
AcDbPolyline
 90
4
 70
1
 10
180.640456
 20
69.614041
 30
0.0
 10
180.640456
 20
66.618365
 30
0.0
 10
180.790616
 20
66.618365
 30
0.0
 10
180.790616
 20
69.614041
 30
0.0
  0
LWPOLYLINE
  5
106
100
AcDbEntity
  8
Lag_1
 62
7
100
AcDbPolyline
 90
4
 70
1
 10
180.640456
 20
15.689166
 30
0.0
 10
180.640456
 20
12.693475
 30
0.0
 10
180.790616
 20
12.693475
 30
0.0
 10
180.790616
 20
15.689166
 30
0.0
  0
LWPOLYLINE
  5
107
100
AcDbEntity
  8
Lag_1
 62
7
100
AcDbPolyline
 90
4
 70
1
 10
177.634033
 20
30.667860
 30
0.0
 10
177.634033
 20
27.672184
 30
0.0
 10
177.784486
 20
27.672184
 30
0.0
 10
177.784486
 20
30.667860
 30
0.0
  0
LWPOLYLINE
  5
108
100
AcDbEntity
  8
Lag_1
 62
7
100
AcDbPolyline
 90
4
 70
1
 10
177.709406
 20
12.768294
 30
0.0
 10
177.709406
 20
12.618656
 30
0.0
 10
180.715536
 20
12.618656
 30
0.0
 10
180.715536
 20
12.768294
 30
0.0
  0
LWPOLYLINE
  5
109
100
AcDbEntity
  8
Lag_1
 62
7
100
AcDbPolyline
 90
4
 70
1
 10
177.709406
 20
63.697508
 30
0.0
 10
177.709406
 20
63.547870
 30
0.0
 10
180.715536
 20
63.547870
 30
0.0
 10
180.715536
 20
63.697508
 30
0.0
  0
LWPOLYLINE
  5
10a
100
AcDbEntity
  8
Lag_1
 62
7
100
AcDbPolyline
 90
4
 70
1
 10
177.634033
 20
54.635347
 30
0.0
 10
177.634033
 20
51.639671
 30
0.0
 10
177.784486
 20
51.639671
 30
0.0
 10
177.784486
 20
54.635347
 30
0.0
  0
LWPOLYLINE
  5
10b
100
AcDbEntity
  8
Lag_1
 62
7
100
AcDbPolyline
 90
4
 70
1
 10
177.634033
 20
66.618365
 30
0.0
 10
177.634033
 20
63.622689
 30
0.0
 10
177.784486
 20
63.622689
 30
0.0
 10
177.784486
 20
66.618365
 30
0.0
  0
LWPOLYLINE
  5
10c
100
AcDbEntity
  8
Lag_1
 62
7
100
AcDbPolyline
 90
4
 70
1
 10
177.634033
 20
42.652329
 30
0.0
 10
177.634033
 20
39.655187
 30
0.0
 10
177.784486
 20
39.655187
 30
0.0
 10
177.784486
 20
42.652329
 30
0.0
  0
LWPOLYLINE
  5
10d
100
AcDbEntity
  8
Lag_1
 62
7
100
AcDbPolyline
 90
4
 70
1
 10
180.640456
 20
39.655187
 30
0.0
 10
180.640456
 20
36.659511
 30
0.0
 10
180.790616
 20
36.659511
 30
0.0
 10
180.790616
 20
39.655187
 30
0.0
  0
LWPOLYLINE
  5
10e
100
AcDbEntity
  8
Lag_1
 62
7
100
AcDbPolyline
 90
4
 70
1
 10
177.709406
 20
24.751312
 30
0.0
 10
177.709406
 20
24.601674
 30
0.0
 10
180.715536
 20
24.601674
 30
0.0
 10
180.715536
 20
24.751312
 30
0.0
  0
LWPOLYLINE
  5
10f
100
AcDbEntity
  8
Lag_1
 62
7
100
AcDbPolyline
 90
4
 70
1
 10
177.634033
 20
12.693475
 30
0.0
 10
177.634033
 20
9.697515
 30
0.0
 10
177.784486
 20
9.697515
 30
0.0
 10
177.784486
 20
12.693475
 30
0.0
  0
LWPOLYLINE
  5
110
100
AcDbEntity
  8
Lag_1
 62
7
100
AcDbPolyline
 90
4
 70
1
 10
177.709406
 20
66.693184
 30
0.0
 10
177.709406
 20
66.543546
 30
0.0
 10
180.715536
 20
66.543546
 30
0.0
 10
180.715536
 20
66.693184
 30
0.0
  0
LWPOLYLINE
  5
111
100
AcDbEntity
  8
Lag_1
 62
7
100
AcDbPolyline
 90
4
 70
1
 10
180.640456
 20
33.663536
 30
0.0
 10
180.640456
 20
30.667860
 30
0.0
 10
180.790616
 20
30.667860
 30
0.0
 10
180.790616
 20
33.663536
 30
0.0
  0
LWPOLYLINE
  5
112
100
AcDbEntity
  8
Lag_1
 62
7
100
AcDbPolyline
 90
4
 70
1
 10
177.709406
 20
45.723123
 30
0.0
 10
177.709406
 20
45.573201
 30
0.0
 10
180.715536
 20
45.573201
 30
0.0
 10
180.715536
 20
45.723123
 30
0.0
  0
LWPOLYLINE
  5
113
100
AcDbEntity
  8
Lag_1
 62
7
100
AcDbPolyline
 90
4
 70
1
 10
177.709406
 20
18.759661
 30
0.0
 10
177.709406
 20
18.610023
 30
0.0
 10
180.715536
 20
18.610023
 30
0.0
 10
180.715536
 20
18.759661
 30
0.0
  0
LWPOLYLINE
  5
114
100
AcDbEntity
  8
Lag_1
 62
7
100
AcDbPolyline
 90
4
 70
1
 10
177.709406
 20
36.734330
 30
0.0
 10
177.709406
 20
36.584393
 30
0.0
 10
180.715536
 20
36.584393
 30
0.0
 10
180.715536
 20
36.734330
 30
0.0
  0
LWPOLYLINE
  5
115
100
AcDbEntity
  8
Lag_1
 62
7
100
AcDbPolyline
 90
4
 70
1
 10
177.709406
 20
60.701817
 30
0.0
 10
177.709406
 20
60.552179
 30
0.0
 10
180.715536
 20
60.552179
 30
0.0
 10
180.715536
 20
60.701817
 30
0.0
  0
LWPOLYLINE
  5
116
100
AcDbEntity
  8
Lag_1
 62
7
100
AcDbPolyline
 90
4
 70
1
 10
177.709406
 20
57.706141
 30
0.0
 10
177.709406
 20
57.556204
 30
0.0
 10
180.715536
 20
57.556204
 30
0.0
 10
180.715536
 20
57.706141
 30
0.0
  0
LWPOLYLINE
  5
117
100
AcDbEntity
  8
Lag_1
 62
7
100
AcDbPolyline
 90
4
 70
1
 10
177.709406
 20
42.727148
 30
0.0
 10
177.709406
 20
42.577510
 30
0.0
 10
180.715536
 20
42.577510
 30
0.0
 10
180.715536
 20
42.727148
 30
0.0
  0
LWPOLYLINE
  5
118
100
AcDbEntity
  8
Lag_1
 62
7
100
AcDbPolyline
 90
4
 70
1
 10
177.709406
 20
33.738654
 30
0.0
 10
177.709406
 20
33.588717
 30
0.0
 10
180.715536
 20
33.588717
 30
0.0
 10
180.715536
 20
33.738654
 30
0.0
  0
LWPOLYLINE
  5
119
100
AcDbEntity
  8
Lag_1
 62
7
100
AcDbPolyline
 90
4
 70
1
 10
177.709406
 20
30.742679
 30
0.0
 10
177.709406
 20
30.593041
 30
0.0
 10
180.715536
 20
30.593041
 30
0.0
 10
180.715536
 20
30.742679
 30
0.0
  0
LWPOLYLINE
  5
11a
100
AcDbEntity
  8
Lag_1
 62
7
100
AcDbPolyline
 90
4
 70
1
 10
180.640456
 20
45.648020
 30
0.0
 10
180.640456
 20
42.652329
 30
0.0
 10
180.790616
 20
42.652329
 30
0.0
 10
180.790616
 20
45.648020
 30
0.0
  0
LWPOLYLINE
  5
11b
100
AcDbEntity
  8
Lag_1
 62
7
100
AcDbPolyline
 90
4
 70
1
 10
180.640456
 20
21.680518
 30
0.0
 10
180.640456
 20
18.684842
 30
0.0
 10
180.790616
 20
18.684842
 30
0.0
 10
180.790616
 20
21.680518
 30
0.0
  0
LWPOLYLINE
  5
11c
100
AcDbEntity
  8
Lag_1
 62
7
100
AcDbPolyline
 90
4
 70
1
 10
177.634033
 20
48.643980
 30
0.0
 10
177.634033
 20
45.648020
 30
0.0
 10
177.784486
 20
45.648020
 30
0.0
 10
177.784486
 20
48.643980
 30
0.0
  0
LWPOLYLINE
  5
11d
100
AcDbEntity
  8
Lag_1
 62
7
100
AcDbPolyline
 90
4
 70
1
 10
177.709406
 20
15.763985
 30
0.0
 10
177.709406
 20
15.614347
 30
0.0
 10
180.715536
 20
15.614347
 30
0.0
 10
180.715536
 20
15.763985
 30
0.0
  0
LWPOLYLINE
  5
11e
100
AcDbEntity
  8
Lag_1
 62
7
100
AcDbPolyline
 90
4
 70
1
 10
177.634033
 20
24.676493
 30
0.0
 10
177.634033
 20
21.680518
 30
0.0
 10
177.784486
 20
21.680518
 30
0.0
 10
177.784486
 20
24.676493
 30
0.0
  0
LWPOLYLINE
  5
11f
100
AcDbEntity
  8
Lag_1
 62
7
100
AcDbPolyline
 90
4
 70
1
 10
177.634033
 20
60.626998
 30
0.0
 10
177.634033
 20
57.631023
 30
0.0
 10
177.784486
 20
57.631023
 30
0.0
 10
177.784486
 20
60.626998
 30
0.0
  0
LWPOLYLINE
  5
120
100
AcDbEntity
  8
Lag_1
 62
7
100
AcDbPolyline
 90
4
 70
1
 10
177.709406
 20
21.755636
 30
0.0
 10
177.709406
 20
21.605699
 30
0.0
 10
180.715536
 20
21.605699
 30
0.0
 10
180.715536
 20
21.755636
 30
0.0
  0
LWPOLYLINE
  5
121
100
AcDbEntity
  8
Lag_1
 62
7
100
AcDbPolyline
 90
4
 70
1
 10
177.634033
 20
18.684842
 30
0.0
 10
177.634033
 20
15.689166
 30
0.0
 10
177.784486
 20
15.689166
 30
0.0
 10
177.784486
 20
18.684842
 30
0.0
  0
LWPOLYLINE
  5
122
100
AcDbEntity
  8
Lag_1
 62
7
100
AcDbPolyline
 90
4
 70
1
 10
180.640456
 20
63.622689
 30
0.0
 10
180.640456
 20
60.626998
 30
0.0
 10
180.790616
 20
60.626998
 30
0.0
 10
180.790616
 20
63.622689
 30
0.0
  0
LWPOLYLINE
  5
123
100
AcDbEntity
  8
Lag_1
 62
7
100
AcDbPolyline
 90
4
 70
1
 10
180.640456
 20
57.631023
 30
0.0
 10
180.640456
 20
54.635347
 30
0.0
 10
180.790616
 20
54.635347
 30
0.0
 10
180.790616
 20
57.631023
 30
0.0
  0
LWPOLYLINE
  5
124
100
AcDbEntity
  8
Lag_1
 62
7
100
AcDbPolyline
 90
4
 70
1
 10
180.640456
 20
27.672184
 30
0.0
 10
180.640456
 20
24.676493
 30
0.0
 10
180.790616
 20
24.676493
 30
0.0
 10
180.790616
 20
27.672184
 30
0.0
  0
LWPOLYLINE
  5
125
100
AcDbEntity
  8
Lag_1
 62
7
100
AcDbPolyline
 90
4
 70
1
 10
177.709406
 20
48.718799
 30
0.0
 10
177.709406
 20
48.569161
 30
0.0
 10
180.715536
 20
48.569161
 30
0.0
 10
180.715536
 20
48.718799
 30
0.0
  0
LWPOLYLINE
  5
126
100
AcDbEntity
  8
Lag_1
 62
7
100
AcDbPolyline
 90
4
 70
1
 10
177.709406
 20
27.747003
 30
0.0
 10
177.709406
 20
27.597365
 30
0.0
 10
180.715536
 20
27.597365
 30
0.0
 10
180.715536
 20
27.747003
 30
0.0
  0
LWPOLYLINE
  5
127
100
AcDbEntity
  8
Lag_1
 62
7
100
AcDbPolyline
 90
4
 70
1
 10
177.709406
 20
51.714490
 30
0.0
 10
177.709406
 20
51.564852
 30
0.0
 10
180.715536
 20
51.564852
 30
0.0
 10
180.715536
 20
51.714490
 30
0.0
  0
LWPOLYLINE
  5
128
100
AcDbEntity
  8
Lag_1
 62
7
100
AcDbPolyline
 90
4
 70
1
 10
177.709406
 20
114.626995
 30
0.0
 10
177.709406
 20
114.477357
 30
0.0
 10
180.715536
 20
114.477357
 30
0.0
 10
180.715536
 20
114.626995
 30
0.0
  0
LWPOLYLINE
  5
129
100
AcDbEntity
  8
Lag_1
 62
7
100
AcDbPolyline
 90
4
 70
1
 10
180.640456
 20
120.543828
 30
0.0
 10
180.640456
 20
117.548148
 30
0.0
 10
180.790616
 20
117.548148
 30
0.0
 10
180.790616
 20
120.543828
 30
0.0
  0
LWPOLYLINE
  5
12a
100
AcDbEntity
  8
Lag_1
 62
7
100
AcDbPolyline
 90
4
 70
1
 10
180.640456
 20
114.552176
 30
0.0
 10
180.640456
 20
111.556202
 30
0.0
 10
180.790616
 20
111.556202
 30
0.0
 10
180.790616
 20
114.552176
 30
0.0
  0
LWPOLYLINE
  5
12b
100
AcDbEntity
  8
Lag_1
 62
7
100
AcDbPolyline
 90
4
 70
1
 10
177.709406
 20
108.635341
 30
0.0
 10
177.709406
 20
108.485703
 30
0.0
 10
180.715536
 20
108.485703
 30
0.0
 10
180.715536
 20
108.635341
 30
0.0
  0
LWPOLYLINE
  5
12c
100
AcDbEntity
  8
Lag_1
 62
7
100
AcDbPolyline
 90
4
 70
1
 10
180.640456
 20
96.577215
 30
0.0
 10
180.640456
 20
93.581243
 30
0.0
 10
180.790616
 20
93.581243
 30
0.0
 10
180.790616
 20
96.577215
 30
0.0
  0
LWPOLYLINE
  5
12d
100
AcDbEntity
  8
Lag_1
 62
7
100
AcDbPolyline
 90
4
 70
1
 10
177.709406
 20
93.656062
 30
0.0
 10
177.709406
 20
93.506424
 30
0.0
 10
180.715536
 20
93.506424
 30
0.0
 10
180.715536
 20
93.656062
 30
0.0
  0
LWPOLYLINE
  5
12e
100
AcDbEntity
  8
Lag_1
 62
7
100
AcDbPolyline
 90
4
 70
1
 10
177.709406
 20
120.618647
 30
0.0
 10
177.709406
 20
120.469009
 30
0.0
 10
180.715536
 20
120.469009
 30
0.0
 10
180.715536
 20
120.618647
 30
0.0
  0
LWPOLYLINE
  5
12f
100
AcDbEntity
  8
Lag_1
 62
7
100
AcDbPolyline
 90
4
 70
1
 10
177.709406
 20
123.614621
 30
0.0
 10
177.709406
 20
123.464983
 30
0.0
 10
180.715536
 20
123.464983
 30
0.0
 10
180.715536
 20
123.614621
 30
0.0
  0
LWPOLYLINE
  5
130
100
AcDbEntity
  8
Lag_1
 62
7
100
AcDbPolyline
 90
4
 70
1
 10
177.634033
 20
99.572895
 30
0.0
 10
177.634033
 20
96.577215
 30
0.0
 10
177.784486
 20
96.577215
 30
0.0
 10
177.784486
 20
99.572895
 30
0.0
  0
LWPOLYLINE
  5
131
100
AcDbEntity
  8
Lag_1
 62
7
100
AcDbPolyline
 90
4
 70
1
 10
177.634033
 20
111.556202
 30
0.0
 10
177.634033
 20
108.560522
 30
0.0
 10
177.784486
 20
108.560522
 30
0.0
 10
177.784486
 20
111.556202
 30
0.0
  0
LWPOLYLINE
  5
132
100
AcDbEntity
  8
Lag_1
 62
7
100
AcDbPolyline
 90
4
 70
1
 10
177.634033
 20
105.564549
 30
0.0
 10
177.634033
 20
102.568869
 30
0.0
 10
177.784486
 20
102.568869
 30
0.0
 10
177.784486
 20
105.564549
 30
0.0
  0
LWPOLYLINE
  5
133
100
AcDbEntity
  8
Lag_1
 62
7
100
AcDbPolyline
 90
4
 70
1
 10
177.709406
 20
96.652034
 30
0.0
 10
177.709406
 20
96.502104
 30
0.0
 10
180.715536
 20
96.502104
 30
0.0
 10
180.715536
 20
96.652034
 30
0.0
  0
LWPOLYLINE
  5
134
100
AcDbEntity
  8
Lag_1
 62
7
100
AcDbPolyline
 90
4
 70
1
 10
120.514322
 20
69.614041
 30
0.0
 10
120.514322
 20
66.618365
 30
0.0
 10
120.664482
 20
66.618365
 30
0.0
 10
120.664482
 20
69.614041
 30
0.0
  0
LWPOLYLINE
  5
135
100
AcDbEntity
  8
Lag_1
 62
7
100
AcDbPolyline
 90
4
 70
1
 10
177.709406
 20
105.639660
 30
0.0
 10
177.709406
 20
105.489731
 30
0.0
 10
180.715536
 20
105.489731
 30
0.0
 10
180.715536
 20
105.639660
 30
0.0
  0
LWPOLYLINE
  5
136
100
AcDbEntity
  8
Lag_1
 62
7
100
AcDbPolyline
 90
4
 70
1
 10
177.634033
 20
117.548148
 30
0.0
 10
177.634033
 20
114.552176
 30
0.0
 10
177.784486
 20
114.552176
 30
0.0
 10
177.784486
 20
117.548148
 30
0.0
  0
LWPOLYLINE
  5
137
100
AcDbEntity
  8
Lag_1
 62
7
100
AcDbPolyline
 90
4
 70
1
 10
180.640456
 20
108.560522
 30
0.0
 10
180.640456
 20
105.564549
 30
0.0
 10
180.790616
 20
105.564549
 30
0.0
 10
180.790616
 20
108.560522
 30
0.0
  0
LWPOLYLINE
  5
138
100
AcDbEntity
  8
Lag_1
 62
7
100
AcDbPolyline
 90
4
 70
1
 10
177.634033
 20
123.539802
 30
0.0
 10
177.634033
 20
120.543828
 30
0.0
 10
177.784486
 20
120.543828
 30
0.0
 10
177.784486
 20
123.539802
 30
0.0
  0
LWPOLYLINE
  5
139
100
AcDbEntity
  8
Lag_1
 62
7
100
AcDbPolyline
 90
4
 70
1
 10
180.640456
 20
102.568869
 30
0.0
 10
180.640456
 20
99.572895
 30
0.0
 10
180.790616
 20
99.572895
 30
0.0
 10
180.790616
 20
102.568869
 30
0.0
  0
LWPOLYLINE
  5
13a
100
AcDbEntity
  8
Lag_1
 62
7
100
AcDbPolyline
 90
4
 70
1
 10
177.634033
 20
93.581243
 30
0.0
 10
177.634033
 20
90.585269
 30
0.0
 10
177.784486
 20
90.585269
 30
0.0
 10
177.784486
 20
93.581243
 30
0.0
  0
LWPOLYLINE
  5
13b
100
AcDbEntity
  8
Lag_1
 62
7
100
AcDbPolyline
 90
4
 70
1
 10
177.709406
 20
90.660088
 30
0.0
 10
177.709406
 20
90.510450
 30
0.0
 10
180.715536
 20
90.510450
 30
0.0
 10
180.715536
 20
90.660088
 30
0.0
  0
LWPOLYLINE
  5
13c
100
AcDbEntity
  8
Lag_1
 62
7
100
AcDbPolyline
 90
4
 70
1
 10
123.595825
 20
126.610593
 30
0.0
 10
123.595825
 20
126.460664
 30
0.0
 10
180.715536
 20
126.460664
 30
0.0
 10
180.715536
 20
126.610593
 30
0.0
  0
LWPOLYLINE
  5
13d
100
AcDbEntity
  8
Lag_1
 62
7
100
AcDbPolyline
 90
4
 70
1
 10
177.709406
 20
99.648008
 30
0.0
 10
177.709406
 20
99.498076
 30
0.0
 10
180.715536
 20
99.498076
 30
0.0
 10
180.715536
 20
99.648008
 30
0.0
  0
LWPOLYLINE
  5
13e
100
AcDbEntity
  8
Lag_1
 62
7
100
AcDbPolyline
 90
4
 70
1
 10
177.709406
 20
102.643688
 30
0.0
 10
177.709406
 20
102.493757
 30
0.0
 10
180.715536
 20
102.493757
 30
0.0
 10
180.715536
 20
102.643688
 30
0.0
  0
LWPOLYLINE
  5
13f
100
AcDbEntity
  8
Lag_1
 62
7
100
AcDbPolyline
 90
4
 70
1
 10
177.709406
 20
87.664996
 30
0.0
 10
177.709406
 20
87.515358
 30
0.0
 10
180.715536
 20
87.515358
 30
0.0
 10
180.715536
 20
87.664996
 30
0.0
  0
LWPOLYLINE
  5
140
100
AcDbEntity
  8
Lag_1
 62
7
100
AcDbPolyline
 90
4
 70
1
 10
180.640456
 20
90.585269
 30
0.0
 10
180.640456
 20
87.590177
 30
0.0
 10
180.790616
 20
87.590177
 30
0.0
 10
180.790616
 20
90.585269
 30
0.0
  0
LWPOLYLINE
  5
141
100
AcDbEntity
  8
Lag_1
 62
7
100
AcDbPolyline
 90
4
 70
1
 10
177.709406
 20
111.631314
 30
0.0
 10
177.709406
 20
111.481383
 30
0.0
 10
180.715536
 20
111.481383
 30
0.0
 10
180.715536
 20
111.631314
 30
0.0
  0
LWPOLYLINE
  5
142
100
AcDbEntity
  8
Lag_1
 62
7
100
AcDbPolyline
 90
4
 70
1
 10
177.709406
 20
72.684835
 30
0.0
 10
177.709406
 20
72.534898
 30
0.0
 10
180.715536
 20
72.534898
 30
0.0
 10
180.715536
 20
72.684835
 30
0.0
  0
LWPOLYLINE
  5
143
100
AcDbEntity
  8
Lag_1
 62
7
100
AcDbPolyline
 90
4
 70
1
 10
135.545856
 20
69.614041
 30
0.0
 10
135.545856
 20
66.618365
 30
0.0
 10
135.696016
 20
66.618365
 30
0.0
 10
135.696016
 20
69.614041
 30
0.0
  0
LWPOLYLINE
  5
144
100
AcDbEntity
  8
Lag_1
 62
7
100
AcDbPolyline
 90
4
 70
1
 10
141.558410
 20
69.614041
 30
0.0
 10
141.558410
 20
66.618365
 30
0.0
 10
141.708863
 20
66.618365
 30
0.0
 10
141.708863
 20
69.614041
 30
0.0
  0
LWPOLYLINE
  5
145
100
AcDbEntity
  8
Lag_1
 62
7
100
AcDbPolyline
 90
4
 70
1
 10
147.570966
 20
69.614041
 30
0.0
 10
147.570966
 20
66.618365
 30
0.0
 10
147.721418
 20
66.618365
 30
0.0
 10
147.721418
 20
69.614041
 30
0.0
  0
LWPOLYLINE
  5
146
100
AcDbEntity
  8
Lag_1
 62
7
100
AcDbPolyline
 90
4
 70
1
 10
153.583814
 20
69.614041
 30
0.0
 10
153.583814
 20
66.618365
 30
0.0
 10
153.733974
 20
66.618365
 30
0.0
 10
153.733974
 20
69.614041
 30
0.0
  0
LWPOLYLINE
  5
147
100
AcDbEntity
  8
Lag_1
 62
7
100
AcDbPolyline
 90
4
 70
1
 10
177.634033
 20
81.597059
 30
0.0
 10
177.634033
 20
78.601383
 30
0.0
 10
177.784486
 20
78.601383
 30
0.0
 10
177.784486
 20
81.597059
 30
0.0
  0
LWPOLYLINE
  5
148
100
AcDbEntity
  8
Lag_1
 62
7
100
AcDbPolyline
 90
4
 70
1
 10
180.640456
 20
84.594486
 30
0.0
 10
180.640456
 20
81.597059
 30
0.0
 10
180.790616
 20
81.597059
 30
0.0
 10
180.790616
 20
84.594486
 30
0.0
  0
LWPOLYLINE
  5
149
100
AcDbEntity
  8
Lag_1
 62
7
100
AcDbPolyline
 90
4
 70
1
 10
165.608924
 20
69.614041
 30
0.0
 10
165.608924
 20
66.618365
 30
0.0
 10
165.759083
 20
66.618365
 30
0.0
 10
165.759083
 20
69.614041
 30
0.0
  0
LWPOLYLINE
  5
14a
100
AcDbEntity
  8
Lag_1
 62
7
100
AcDbPolyline
 90
4
 70
1
 10
144.639915
 20
69.689159
 30
0.0
 10
144.639915
 20
69.539222
 30
0.0
 10
147.646338
 20
69.539222
 30
0.0
 10
147.646338
 20
69.689159
 30
0.0
  0
LWPOLYLINE
  5
14b
100
AcDbEntity
  8
Lag_1
 62
7
100
AcDbPolyline
 90
4
 70
1
 10
147.646338
 20
66.693184
 30
0.0
 10
147.646338
 20
66.543546
 30
0.0
 10
150.652469
 20
66.543546
 30
0.0
 10
150.652469
 20
66.693184
 30
0.0
  0
LWPOLYLINE
  5
14c
100
AcDbEntity
  8
Lag_1
 62
7
100
AcDbPolyline
 90
4
 70
1
 10
144.564835
 20
69.614041
 30
0.0
 10
144.564835
 20
66.618365
 30
0.0
 10
144.714995
 20
66.618365
 30
0.0
 10
144.714995
 20
69.614041
 30
0.0
  0
LWPOLYLINE
  5
14d
100
AcDbEntity
  8
Lag_1
 62
7
100
AcDbPolyline
 90
4
 70
1
 10
177.709406
 20
81.672162
 30
0.0
 10
177.709406
 20
81.522240
 30
0.0
 10
180.715536
 20
81.522240
 30
0.0
 10
180.715536
 20
81.672162
 30
0.0
  0
LWPOLYLINE
  5
14e
100
AcDbEntity
  8
Lag_1
 62
7
100
AcDbPolyline
 90
4
 70
1
 10
138.552279
 20
69.614041
 30
0.0
 10
138.552279
 20
66.618365
 30
0.0
 10
138.702439
 20
66.618365
 30
0.0
 10
138.702439
 20
69.614041
 30
0.0
  0
LWPOLYLINE
  5
14f
100
AcDbEntity
  8
Lag_1
 62
7
100
AcDbPolyline
 90
4
 70
1
 10
141.633783
 20
66.693184
 30
0.0
 10
141.633783
 20
66.543546
 30
0.0
 10
144.639915
 20
66.543546
 30
0.0
 10
144.639915
 20
66.693184
 30
0.0
  0
LWPOLYLINE
  5
150
100
AcDbEntity
  8
Lag_1
 62
7
100
AcDbPolyline
 90
4
 70
1
 10
135.620936
 20
66.693184
 30
0.0
 10
135.620936
 20
66.543546
 30
0.0
 10
138.627359
 20
66.543546
 30
0.0
 10
138.627359
 20
66.693184
 30
0.0
  0
LWPOLYLINE
  5
151
100
AcDbEntity
  8
Lag_1
 62
7
100
AcDbPolyline
 90
4
 70
1
 10
138.627359
 20
69.689159
 30
0.0
 10
138.627359
 20
69.539222
 30
0.0
 10
141.633783
 20
69.539222
 30
0.0
 10
141.633783
 20
69.689159
 30
0.0
  0
LWPOLYLINE
  5
152
100
AcDbEntity
  8
Lag_1
 62
7
100
AcDbPolyline
 90
4
 70
1
 10
171.621478
 20
69.614041
 30
0.0
 10
171.621478
 20
66.618365
 30
0.0
 10
171.771932
 20
66.618365
 30
0.0
 10
171.771932
 20
69.614041
 30
0.0
  0
LWPOLYLINE
  5
153
100
AcDbEntity
  8
Lag_1
 62
7
100
AcDbPolyline
 90
4
 70
1
 10
168.690427
 20
69.689159
 30
0.0
 10
168.690427
 20
69.539222
 30
0.0
 10
171.696852
 20
69.539222
 30
0.0
 10
171.696852
 20
69.689159
 30
0.0
  0
LWPOLYLINE
  5
154
100
AcDbEntity
  8
Lag_1
 62
7
100
AcDbPolyline
 90
4
 70
1
 10
165.684003
 20
66.693184
 30
0.0
 10
165.684003
 20
66.543546
 30
0.0
 10
168.690427
 20
66.543546
 30
0.0
 10
168.690427
 20
66.693184
 30
0.0
  0
LWPOLYLINE
  5
155
100
AcDbEntity
  8
Lag_1
 62
7
100
AcDbPolyline
 90
4
 70
1
 10
129.533301
 20
69.614041
 30
0.0
 10
129.533301
 20
66.618365
 30
0.0
 10
129.683460
 20
66.618365
 30
0.0
 10
129.683460
 20
69.614041
 30
0.0
  0
LWPOLYLINE
  5
156
100
AcDbEntity
  8
Lag_1
 62
7
100
AcDbPolyline
 90
4
 70
1
 10
126.601957
 20
69.689159
 30
0.0
 10
126.601957
 20
69.539222
 30
0.0
 10
129.608381
 20
69.539222
 30
0.0
 10
129.608381
 20
69.689159
 30
0.0
  0
LWPOLYLINE
  5
157
100
AcDbEntity
  8
Lag_1
 62
7
100
AcDbPolyline
 90
4
 70
1
 10
180.640456
 20
126.535774
 30
0.0
 10
180.640456
 20
123.539802
 30
0.0
 10
180.790616
 20
123.539802
 30
0.0
 10
180.790616
 20
126.535774
 30
0.0
  0
LWPOLYLINE
  5
158
100
AcDbEntity
  8
Lag_1
 62
7
100
AcDbPolyline
 90
4
 70
1
 10
156.665025
 20
69.689159
 30
0.0
 10
156.665025
 20
69.539222
 30
0.0
 10
159.671448
 20
69.539222
 30
0.0
 10
159.671448
 20
69.689159
 30
0.0
  0
LWPOLYLINE
  5
159
100
AcDbEntity
  8
Lag_1
 62
7
100
AcDbPolyline
 90
4
 70
1
 10
153.658894
 20
66.693184
 30
0.0
 10
153.658894
 20
66.543546
 30
0.0
 10
156.665025
 20
66.543546
 30
0.0
 10
156.665025
 20
66.693184
 30
0.0
  0
LWPOLYLINE
  5
15a
100
AcDbEntity
  8
Lag_1
 62
7
100
AcDbPolyline
 90
4
 70
1
 10
150.652469
 20
69.689159
 30
0.0
 10
150.652469
 20
69.539222
 30
0.0
 10
153.658894
 20
69.539222
 30
0.0
 10
153.658894
 20
69.689159
 30
0.0
  0
LWPOLYLINE
  5
15b
100
AcDbEntity
  8
Lag_1
 62
7
100
AcDbPolyline
 90
4
 70
1
 10
129.608381
 20
66.693184
 30
0.0
 10
129.608381
 20
66.543546
 30
0.0
 10
132.614804
 20
66.543546
 30
0.0
 10
132.614804
 20
66.693184
 30
0.0
  0
LWPOLYLINE
  5
15c
100
AcDbEntity
  8
Lag_1
 62
7
100
AcDbPolyline
 90
4
 70
1
 10
177.634033
 20
75.605692
 30
0.0
 10
177.634033
 20
72.610016
 30
0.0
 10
177.784486
 20
72.610016
 30
0.0
 10
177.784486
 20
75.605692
 30
0.0
  0
LWPOLYLINE
  5
15d
100
AcDbEntity
  8
Lag_1
 62
7
100
AcDbPolyline
 90
4
 70
1
 10
177.709406
 20
75.680511
 30
0.0
 10
177.709406
 20
75.530873
 30
0.0
 10
180.715536
 20
75.530873
 30
0.0
 10
180.715536
 20
75.680511
 30
0.0
  0
LWPOLYLINE
  5
15e
100
AcDbEntity
  8
Lag_1
 62
7
100
AcDbPolyline
 90
4
 70
1
 10
159.671448
 20
66.693184
 30
0.0
 10
159.671448
 20
66.543546
 30
0.0
 10
162.677873
 20
66.543546
 30
0.0
 10
162.677873
 20
66.693184
 30
0.0
  0
LWPOLYLINE
  5
15f
100
AcDbEntity
  8
Lag_1
 62
7
100
AcDbPolyline
 90
4
 70
1
 10
120.589402
 20
66.693184
 30
0.0
 10
120.589402
 20
66.543546
 30
0.0
 10
123.595825
 20
66.543546
 30
0.0
 10
123.595825
 20
66.693184
 30
0.0
  0
LWPOLYLINE
  5
160
100
AcDbEntity
  8
Lag_1
 62
7
100
AcDbPolyline
 90
4
 70
1
 10
177.709406
 20
117.622967
 30
0.0
 10
177.709406
 20
117.473329
 30
0.0
 10
180.715536
 20
117.473329
 30
0.0
 10
180.715536
 20
117.622967
 30
0.0
  0
LWPOLYLINE
  5
161
100
AcDbEntity
  8
Lag_1
 62
7
100
AcDbPolyline
 90
4
 70
1
 10
177.634033
 20
87.590177
 30
0.0
 10
177.634033
 20
84.594486
 30
0.0
 10
177.784486
 20
84.594486
 30
0.0
 10
177.784486
 20
87.590177
 30
0.0
  0
LWPOLYLINE
  5
162
100
AcDbEntity
  8
Lag_1
 62
7
100
AcDbPolyline
 90
4
 70
1
 10
177.709406
 20
84.669305
 30
0.0
 10
177.709406
 20
84.519667
 30
0.0
 10
180.715536
 20
84.519667
 30
0.0
 10
180.715536
 20
84.669305
 30
0.0
  0
LWPOLYLINE
  5
163
100
AcDbEntity
  8
Lag_1
 62
7
100
AcDbPolyline
 90
4
 70
1
 10
177.709406
 20
78.676202
 30
0.0
 10
177.709406
 20
78.526564
 30
0.0
 10
180.715536
 20
78.526564
 30
0.0
 10
180.715536
 20
78.676202
 30
0.0
  0
LWPOLYLINE
  5
164
100
AcDbEntity
  8
Lag_1
 62
7
100
AcDbPolyline
 90
4
 70
1
 10
180.640456
 20
78.601383
 30
0.0
 10
180.640456
 20
75.605692
 30
0.0
 10
180.790616
 20
75.605692
 30
0.0
 10
180.790616
 20
78.601383
 30
0.0
  0
LWPOLYLINE
  5
165
100
AcDbEntity
  8
Lag_1
 62
7
100
AcDbPolyline
 90
4
 70
1
 10
180.640456
 20
72.610016
 30
0.0
 10
180.640456
 20
69.614041
 30
0.0
 10
180.790616
 20
69.614041
 30
0.0
 10
180.790616
 20
72.610016
 30
0.0
  0
LWPOLYLINE
  5
166
100
AcDbEntity
  8
Lag_1
 62
7
100
AcDbPolyline
 90
4
 70
1
 10
174.702982
 20
69.689159
 30
0.0
 10
174.702982
 20
69.539222
 30
0.0
 10
180.715536
 20
69.539222
 30
0.0
 10
180.715536
 20
69.689159
 30
0.0
  0
LWPOLYLINE
  5
167
100
AcDbEntity
  8
Lag_1
 62
7
100
AcDbPolyline
 90
4
 70
1
 10
174.627902
 20
69.614041
 30
0.0
 10
174.627902
 20
66.618365
 30
0.0
 10
174.778062
 20
66.618365
 30
0.0
 10
174.778062
 20
69.614041
 30
0.0
  0
LWPOLYLINE
  5
168
100
AcDbEntity
  8
Lag_1
 62
7
100
AcDbPolyline
 90
4
 70
1
 10
171.696852
 20
66.693184
 30
0.0
 10
171.696852
 20
66.543546
 30
0.0
 10
174.702982
 20
66.543546
 30
0.0
 10
174.702982
 20
66.693184
 30
0.0
  0
LWPOLYLINE
  5
169
100
AcDbEntity
  8
Lag_1
 62
7
100
AcDbPolyline
 90
4
 70
1
 10
168.615347
 20
69.614041
 30
0.0
 10
168.615347
 20
66.618365
 30
0.0
 10
168.765507
 20
66.618365
 30
0.0
 10
168.765507
 20
69.614041
 30
0.0
  0
LWPOLYLINE
  5
16a
100
AcDbEntity
  8
Lag_1
 62
7
100
AcDbPolyline
 90
4
 70
1
 10
162.677873
 20
69.689159
 30
0.0
 10
162.677873
 20
69.539222
 30
0.0
 10
165.684003
 20
69.539222
 30
0.0
 10
165.684003
 20
69.689159
 30
0.0
  0
LWPOLYLINE
  5
16b
100
AcDbEntity
  8
Lag_1
 62
7
100
AcDbPolyline
 90
4
 70
1
 10
162.602793
 20
69.614041
 30
0.0
 10
162.602793
 20
66.618365
 30
0.0
 10
162.752953
 20
66.618365
 30
0.0
 10
162.752953
 20
69.614041
 30
0.0
  0
LWPOLYLINE
  5
16c
100
AcDbEntity
  8
Lag_1
 62
7
100
AcDbPolyline
 90
4
 70
1
 10
159.596368
 20
69.614041
 30
0.0
 10
159.596368
 20
66.618365
 30
0.0
 10
159.746528
 20
66.618365
 30
0.0
 10
159.746528
 20
69.614041
 30
0.0
  0
LWPOLYLINE
  5
16d
100
AcDbEntity
  8
Lag_1
 62
7
100
AcDbPolyline
 90
4
 70
1
 10
156.589945
 20
69.614041
 30
0.0
 10
156.589945
 20
66.618365
 30
0.0
 10
156.740104
 20
66.618365
 30
0.0
 10
156.740104
 20
69.614041
 30
0.0
  0
LWPOLYLINE
  5
16e
100
AcDbEntity
  8
Lag_1
 62
7
100
AcDbPolyline
 90
4
 70
1
 10
150.577389
 20
69.614041
 30
0.0
 10
150.577389
 20
66.618365
 30
0.0
 10
150.727549
 20
66.618365
 30
0.0
 10
150.727549
 20
69.614041
 30
0.0
  0
LWPOLYLINE
  5
16f
100
AcDbEntity
  8
Lag_1
 62
7
100
AcDbPolyline
 90
4
 70
1
 10
132.614804
 20
69.689159
 30
0.0
 10
132.614804
 20
69.539222
 30
0.0
 10
135.620936
 20
69.539222
 30
0.0
 10
135.620936
 20
69.689159
 30
0.0
  0
LWPOLYLINE
  5
170
100
AcDbEntity
  8
Lag_1
 62
7
100
AcDbPolyline
 90
4
 70
1
 10
132.539724
 20
69.614041
 30
0.0
 10
132.539724
 20
66.618365
 30
0.0
 10
132.689884
 20
66.618365
 30
0.0
 10
132.689884
 20
69.614041
 30
0.0
  0
LWPOLYLINE
  5
171
100
AcDbEntity
  8
Lag_1
 62
7
100
AcDbPolyline
 90
4
 70
1
 10
126.526877
 20
69.614041
 30
0.0
 10
126.526877
 20
66.618365
 30
0.0
 10
126.677037
 20
66.618365
 30
0.0
 10
126.677037
 20
69.614041
 30
0.0
  0
LWPOLYLINE
  5
172
100
AcDbEntity
  8
Lag_1
 62
7
100
AcDbPolyline
 90
4
 70
1
 10
63.469690
 20
96.652034
 30
0.0
 10
63.469690
 20
96.502104
 30
0.0
 10
66.475821
 20
96.502104
 30
0.0
 10
66.475821
 20
96.652034
 30
0.0
  0
LWPOLYLINE
  5
173
100
AcDbEntity
  8
Lag_1
 62
7
100
AcDbPolyline
 90
4
 70
1
 10
66.400741
 20
126.535774
 30
0.0
 10
66.400741
 20
123.539802
 30
0.0
 10
66.551195
 20
123.539802
 30
0.0
 10
66.551195
 20
126.535774
 30
0.0
  0
LWPOLYLINE
  5
174
100
AcDbEntity
  8
Lag_1
 62
7
100
AcDbPolyline
 90
4
 70
1
 10
66.400741
 20
72.610016
 30
0.0
 10
66.400741
 20
69.614041
 30
0.0
 10
66.551195
 20
69.614041
 30
0.0
 10
66.551195
 20
72.610016
 30
0.0
  0
LWPOLYLINE
  5
175
100
AcDbEntity
  8
Lag_1
 62
7
100
AcDbPolyline
 90
4
 70
1
 10
63.469690
 20
78.676202
 30
0.0
 10
63.469690
 20
78.526564
 30
0.0
 10
66.475821
 20
78.526564
 30
0.0
 10
66.475821
 20
78.676202
 30
0.0
  0
LWPOLYLINE
  5
176
100
AcDbEntity
  8
Lag_1
 62
7
100
AcDbPolyline
 90
4
 70
1
 10
63.469690
 20
99.648008
 30
0.0
 10
63.469690
 20
99.498076
 30
0.0
 10
66.475821
 20
99.498076
 30
0.0
 10
66.475821
 20
99.648008
 30
0.0
  0
LWPOLYLINE
  5
177
100
AcDbEntity
  8
Lag_1
 62
7
100
AcDbPolyline
 90
4
 70
1
 10
63.469690
 20
123.614621
 30
0.0
 10
63.469690
 20
123.464983
 30
0.0
 10
66.475821
 20
123.464983
 30
0.0
 10
66.475821
 20
123.614621
 30
0.0
  0
LWPOLYLINE
  5
178
100
AcDbEntity
  8
Lag_1
 62
7
100
AcDbPolyline
 90
4
 70
1
 10
120.514322
 20
93.581243
 30
0.0
 10
120.514322
 20
90.585269
 30
0.0
 10
120.664482
 20
90.585269
 30
0.0
 10
120.664482
 20
93.581243
 30
0.0
  0
LWPOLYLINE
  5
179
100
AcDbEntity
  8
Lag_1
 62
7
100
AcDbPolyline
 90
4
 70
1
 10
120.514322
 20
105.564549
 30
0.0
 10
120.514322
 20
102.568869
 30
0.0
 10
120.664482
 20
102.568869
 30
0.0
 10
120.664482
 20
105.564549
 30
0.0
  0
LWPOLYLINE
  5
17a
100
AcDbEntity
  8
Lag_1
 62
7
100
AcDbPolyline
 90
4
 70
1
 10
66.400741
 20
102.568869
 30
0.0
 10
66.400741
 20
99.572895
 30
0.0
 10
66.551195
 20
99.572895
 30
0.0
 10
66.551195
 20
102.568869
 30
0.0
  0
LWPOLYLINE
  5
17b
100
AcDbEntity
  8
Lag_1
 62
7
100
AcDbPolyline
 90
4
 70
1
 10
120.589402
 20
105.639660
 30
0.0
 10
120.589402
 20
105.489731
 30
0.0
 10
123.595825
 20
105.489731
 30
0.0
 10
123.595825
 20
105.639660
 30
0.0
  0
LWPOLYLINE
  5
17c
100
AcDbEntity
  8
Lag_1
 62
7
100
AcDbPolyline
 90
4
 70
1
 10
123.520745
 20
102.568869
 30
0.0
 10
123.520745
 20
99.572895
 30
0.0
 10
123.670905
 20
99.572895
 30
0.0
 10
123.670905
 20
102.568869
 30
0.0
  0
LWPOLYLINE
  5
17d
100
AcDbEntity
  8
Lag_1
 62
7
100
AcDbPolyline
 90
4
 70
1
 10
63.469690
 20
84.669305
 30
0.0
 10
63.469690
 20
84.519667
 30
0.0
 10
66.475821
 20
84.519667
 30
0.0
 10
66.475821
 20
84.669305
 30
0.0
  0
LWPOLYLINE
  5
17e
100
AcDbEntity
  8
Lag_1
 62
7
100
AcDbPolyline
 90
4
 70
1
 10
63.469690
 20
72.684835
 30
0.0
 10
63.469690
 20
72.534898
 30
0.0
 10
66.475821
 20
72.534898
 30
0.0
 10
66.475821
 20
72.684835
 30
0.0
  0
LWPOLYLINE
  5
17f
100
AcDbEntity
  8
Lag_1
 62
7
100
AcDbPolyline
 90
4
 70
1
 10
63.394610
 20
93.581243
 30
0.0
 10
63.394610
 20
90.585269
 30
0.0
 10
63.544770
 20
90.585269
 30
0.0
 10
63.544770
 20
93.581243
 30
0.0
  0
LWPOLYLINE
  5
180
100
AcDbEntity
  8
Lag_1
 62
7
100
AcDbPolyline
 90
4
 70
1
 10
120.589402
 20
96.652034
 30
0.0
 10
120.589402
 20
96.502104
 30
0.0
 10
123.595825
 20
96.502104
 30
0.0
 10
123.595825
 20
96.652034
 30
0.0
  0
LWPOLYLINE
  5
181
100
AcDbEntity
  8
Lag_1
 62
7
100
AcDbPolyline
 90
4
 70
1
 10
66.400741
 20
108.560522
 30
0.0
 10
66.400741
 20
105.564549
 30
0.0
 10
66.551195
 20
105.564549
 30
0.0
 10
66.551195
 20
108.560522
 30
0.0
  0
LWPOLYLINE
  5
182
100
AcDbEntity
  8
Lag_1
 62
7
100
AcDbPolyline
 90
4
 70
1
 10
66.400741
 20
90.585269
 30
0.0
 10
66.400741
 20
87.590177
 30
0.0
 10
66.551195
 20
87.590177
 30
0.0
 10
66.551195
 20
90.585269
 30
0.0
  0
LWPOLYLINE
  5
183
100
AcDbEntity
  8
Lag_1
 62
7
100
AcDbPolyline
 90
4
 70
1
 10
63.469690
 20
69.689159
 30
0.0
 10
63.469690
 20
69.539222
 30
0.0
 10
66.475821
 20
69.539222
 30
0.0
 10
66.475821
 20
69.689159
 30
0.0
  0
LWPOLYLINE
  5
184
100
AcDbEntity
  8
Lag_1
 62
7
100
AcDbPolyline
 90
4
 70
1
 10
63.469690
 20
93.656062
 30
0.0
 10
63.469690
 20
93.506424
 30
0.0
 10
66.475821
 20
93.506424
 30
0.0
 10
66.475821
 20
93.656062
 30
0.0
  0
LWPOLYLINE
  5
185
100
AcDbEntity
  8
Lag_1
 62
7
100
AcDbPolyline
 90
4
 70
1
 10
63.394610
 20
105.564549
 30
0.0
 10
63.394610
 20
102.568869
 30
0.0
 10
63.544770
 20
102.568869
 30
0.0
 10
63.544770
 20
105.564549
 30
0.0
  0
LWPOLYLINE
  5
186
100
AcDbEntity
  8
Lag_1
 62
7
100
AcDbPolyline
 90
4
 70
1
 10
63.469690
 20
111.631314
 30
0.0
 10
63.469690
 20
111.481383
 30
0.0
 10
66.475821
 20
111.481383
 30
0.0
 10
66.475821
 20
111.631314
 30
0.0
  0
LWPOLYLINE
  5
187
100
AcDbEntity
  8
Lag_1
 62
7
100
AcDbPolyline
 90
4
 70
1
 10
120.589402
 20
111.631314
 30
0.0
 10
120.589402
 20
111.481383
 30
0.0
 10
123.595825
 20
111.481383
 30
0.0
 10
123.595825
 20
111.631314
 30
0.0
  0
LWPOLYLINE
  5
188
100
AcDbEntity
  8
Lag_1
 62
7
100
AcDbPolyline
 90
4
 70
1
 10
66.400741
 20
96.577215
 30
0.0
 10
66.400741
 20
93.581243
 30
0.0
 10
66.551195
 20
93.581243
 30
0.0
 10
66.551195
 20
96.577215
 30
0.0
  0
LWPOLYLINE
  5
189
100
AcDbEntity
  8
Lag_1
 62
7
100
AcDbPolyline
 90
4
 70
1
 10
120.514322
 20
123.539802
 30
0.0
 10
120.514322
 20
120.543828
 30
0.0
 10
120.664482
 20
120.543828
 30
0.0
 10
120.664482
 20
123.539802
 30
0.0
  0
LWPOLYLINE
  5
18a
100
AcDbEntity
  8
Lag_1
 62
7
100
AcDbPolyline
 90
4
 70
1
 10
120.589402
 20
114.626995
 30
0.0
 10
120.589402
 20
114.477357
 30
0.0
 10
123.595825
 20
114.477357
 30
0.0
 10
123.595825
 20
114.626995
 30
0.0
  0
LWPOLYLINE
  5
18b
100
AcDbEntity
  8
Lag_1
 62
7
100
AcDbPolyline
 90
4
 70
1
 10
120.589402
 20
123.614621
 30
0.0
 10
120.589402
 20
123.464983
 30
0.0
 10
123.595825
 20
123.464983
 30
0.0
 10
123.595825
 20
123.614621
 30
0.0
  0
LWPOLYLINE
  5
18c
100
AcDbEntity
  8
Lag_1
 62
7
100
AcDbPolyline
 90
4
 70
1
 10
63.394610
 20
87.590177
 30
0.0
 10
63.394610
 20
84.594486
 30
0.0
 10
63.544770
 20
84.594486
 30
0.0
 10
63.544770
 20
87.590177
 30
0.0
  0
LWPOLYLINE
  5
18d
100
AcDbEntity
  8
Lag_1
 62
7
100
AcDbPolyline
 90
4
 70
1
 10
120.589402
 20
120.618647
 30
0.0
 10
120.589402
 20
120.469009
 30
0.0
 10
123.595825
 20
120.469009
 30
0.0
 10
123.595825
 20
120.618647
 30
0.0
  0
LWPOLYLINE
  5
18e
100
AcDbEntity
  8
Lag_1
 62
7
100
AcDbPolyline
 90
4
 70
1
 10
120.589402
 20
99.648008
 30
0.0
 10
120.589402
 20
99.498076
 30
0.0
 10
123.595825
 20
99.498076
 30
0.0
 10
123.595825
 20
99.648008
 30
0.0
  0
LWPOLYLINE
  5
18f
100
AcDbEntity
  8
Lag_1
 62
7
100
AcDbPolyline
 90
4
 70
1
 10
63.469690
 20
75.680511
 30
0.0
 10
63.469690
 20
75.530873
 30
0.0
 10
66.475821
 20
75.530873
 30
0.0
 10
66.475821
 20
75.680511
 30
0.0
  0
LWPOLYLINE
  5
190
100
AcDbEntity
  8
Lag_1
 62
7
100
AcDbPolyline
 90
4
 70
1
 10
120.589402
 20
108.635341
 30
0.0
 10
120.589402
 20
108.485703
 30
0.0
 10
123.595825
 20
108.485703
 30
0.0
 10
123.595825
 20
108.635341
 30
0.0
  0
LWPOLYLINE
  5
191
100
AcDbEntity
  8
Lag_1
 62
7
100
AcDbPolyline
 90
4
 70
1
 10
123.520745
 20
120.543828
 30
0.0
 10
123.520745
 20
117.548148
 30
0.0
 10
123.670905
 20
117.548148
 30
0.0
 10
123.670905
 20
120.543828
 30
0.0
  0
LWPOLYLINE
  5
192
100
AcDbEntity
  8
Lag_1
 62
7
100
AcDbPolyline
 90
4
 70
1
 10
123.520745
 20
96.577215
 30
0.0
 10
123.520745
 20
93.581243
 30
0.0
 10
123.670905
 20
93.581243
 30
0.0
 10
123.670905
 20
96.577215
 30
0.0
  0
LWPOLYLINE
  5
193
100
AcDbEntity
  8
Lag_1
 62
7
100
AcDbPolyline
 90
4
 70
1
 10
123.520745
 20
108.560522
 30
0.0
 10
123.520745
 20
105.564549
 30
0.0
 10
123.670905
 20
105.564549
 30
0.0
 10
123.670905
 20
108.560522
 30
0.0
  0
LWPOLYLINE
  5
194
100
AcDbEntity
  8
Lag_1
 62
7
100
AcDbPolyline
 90
4
 70
1
 10
120.514322
 20
111.556202
 30
0.0
 10
120.514322
 20
108.560522
 30
0.0
 10
120.664482
 20
108.560522
 30
0.0
 10
120.664482
 20
111.556202
 30
0.0
  0
LWPOLYLINE
  5
195
100
AcDbEntity
  8
Lag_1
 62
7
100
AcDbPolyline
 90
4
 70
1
 10
63.469690
 20
105.639660
 30
0.0
 10
63.469690
 20
105.489731
 30
0.0
 10
66.475821
 20
105.489731
 30
0.0
 10
66.475821
 20
105.639660
 30
0.0
  0
LWPOLYLINE
  5
196
100
AcDbEntity
  8
Lag_1
 62
7
100
AcDbPolyline
 90
4
 70
1
 10
120.589402
 20
93.656062
 30
0.0
 10
120.589402
 20
93.506424
 30
0.0
 10
123.595825
 20
93.506424
 30
0.0
 10
123.595825
 20
93.656062
 30
0.0
  0
LWPOLYLINE
  5
197
100
AcDbEntity
  8
Lag_1
 62
7
100
AcDbPolyline
 90
4
 70
1
 10
63.394610
 20
99.572895
 30
0.0
 10
63.394610
 20
96.577215
 30
0.0
 10
63.544770
 20
96.577215
 30
0.0
 10
63.544770
 20
99.572895
 30
0.0
  0
LWPOLYLINE
  5
198
100
AcDbEntity
  8
Lag_1
 62
7
100
AcDbPolyline
 90
4
 70
1
 10
63.394610
 20
123.539802
 30
0.0
 10
63.394610
 20
120.543828
 30
0.0
 10
63.544770
 20
120.543828
 30
0.0
 10
63.544770
 20
123.539802
 30
0.0
  0
LWPOLYLINE
  5
199
100
AcDbEntity
  8
Lag_1
 62
7
100
AcDbPolyline
 90
4
 70
1
 10
66.400741
 20
78.601383
 30
0.0
 10
66.400741
 20
75.605692
 30
0.0
 10
66.551195
 20
75.605692
 30
0.0
 10
66.551195
 20
78.601383
 30
0.0
  0
LWPOLYLINE
  5
19a
100
AcDbEntity
  8
Lag_1
 62
7
100
AcDbPolyline
 90
4
 70
1
 10
120.589402
 20
102.643688
 30
0.0
 10
120.589402
 20
102.493757
 30
0.0
 10
123.595825
 20
102.493757
 30
0.0
 10
123.595825
 20
102.643688
 30
0.0
  0
LWPOLYLINE
  5
19b
100
AcDbEntity
  8
Lag_1
 62
7
100
AcDbPolyline
 90
4
 70
1
 10
120.589402
 20
87.664996
 30
0.0
 10
120.589402
 20
87.515358
 30
0.0
 10
123.595825
 20
87.515358
 30
0.0
 10
123.595825
 20
87.664996
 30
0.0
  0
LWPOLYLINE
  5
19c
100
AcDbEntity
  8
Lag_1
 62
7
100
AcDbPolyline
 90
4
 70
1
 10
63.469690
 20
102.643688
 30
0.0
 10
63.469690
 20
102.493757
 30
0.0
 10
66.475821
 20
102.493757
 30
0.0
 10
66.475821
 20
102.643688
 30
0.0
  0
LWPOLYLINE
  5
19d
100
AcDbEntity
  8
Lag_1
 62
7
100
AcDbPolyline
 90
4
 70
1
 10
66.400741
 20
114.552176
 30
0.0
 10
66.400741
 20
111.556202
 30
0.0
 10
66.551195
 20
111.556202
 30
0.0
 10
66.551195
 20
114.552176
 30
0.0
  0
LWPOLYLINE
  5
19e
100
AcDbEntity
  8
Lag_1
 62
7
100
AcDbPolyline
 90
4
 70
1
 10
123.520745
 20
90.585269
 30
0.0
 10
123.520745
 20
87.590177
 30
0.0
 10
123.670905
 20
87.590177
 30
0.0
 10
123.670905
 20
90.585269
 30
0.0
  0
LWPOLYLINE
  5
19f
100
AcDbEntity
  8
Lag_1
 62
7
100
AcDbPolyline
 90
4
 70
1
 10
63.394610
 20
117.548148
 30
0.0
 10
63.394610
 20
114.552176
 30
0.0
 10
63.544770
 20
114.552176
 30
0.0
 10
63.544770
 20
117.548148
 30
0.0
  0
LWPOLYLINE
  5
1a0
100
AcDbEntity
  8
Lag_1
 62
7
100
AcDbPolyline
 90
4
 70
1
 10
63.469690
 20
90.660088
 30
0.0
 10
63.469690
 20
90.510450
 30
0.0
 10
66.475821
 20
90.510450
 30
0.0
 10
66.475821
 20
90.660088
 30
0.0
  0
LWPOLYLINE
  5
1a1
100
AcDbEntity
  8
Lag_1
 62
7
100
AcDbPolyline
 90
4
 70
1
 10
63.469690
 20
87.664996
 30
0.0
 10
63.469690
 20
87.515358
 30
0.0
 10
66.475821
 20
87.515358
 30
0.0
 10
66.475821
 20
87.664996
 30
0.0
  0
LWPOLYLINE
  5
1a2
100
AcDbEntity
  8
Lag_1
 62
7
100
AcDbPolyline
 90
4
 70
1
 10
63.469690
 20
108.635341
 30
0.0
 10
63.469690
 20
108.485703
 30
0.0
 10
66.475821
 20
108.485703
 30
0.0
 10
66.475821
 20
108.635341
 30
0.0
  0
LWPOLYLINE
  5
1a3
100
AcDbEntity
  8
Lag_1
 62
7
100
AcDbPolyline
 90
4
 70
1
 10
66.400741
 20
84.594486
 30
0.0
 10
66.400741
 20
81.597059
 30
0.0
 10
66.551195
 20
81.597059
 30
0.0
 10
66.551195
 20
84.594486
 30
0.0
  0
LWPOLYLINE
  5
1a4
100
AcDbEntity
  8
Lag_1
 62
7
100
AcDbPolyline
 90
4
 70
1
 10
63.469690
 20
81.672162
 30
0.0
 10
63.469690
 20
81.522240
 30
0.0
 10
66.475821
 20
81.522240
 30
0.0
 10
66.475821
 20
81.672162
 30
0.0
  0
LWPOLYLINE
  5
1a5
100
AcDbEntity
  8
Lag_1
 62
7
100
AcDbPolyline
 90
4
 70
1
 10
120.514322
 20
99.572895
 30
0.0
 10
120.514322
 20
96.577215
 30
0.0
 10
120.664482
 20
96.577215
 30
0.0
 10
120.664482
 20
99.572895
 30
0.0
  0
LWPOLYLINE
  5
1a6
100
AcDbEntity
  8
Lag_1
 62
7
100
AcDbPolyline
 90
4
 70
1
 10
63.469690
 20
114.626995
 30
0.0
 10
63.469690
 20
114.477357
 30
0.0
 10
66.475821
 20
114.477357
 30
0.0
 10
66.475821
 20
114.626995
 30
0.0
  0
LWPOLYLINE
  5
1a7
100
AcDbEntity
  8
Lag_1
 62
7
100
AcDbPolyline
 90
4
 70
1
 10
66.400741
 20
120.543828
 30
0.0
 10
66.400741
 20
117.548148
 30
0.0
 10
66.551195
 20
117.548148
 30
0.0
 10
66.551195
 20
120.543828
 30
0.0
  0
LWPOLYLINE
  5
1a8
100
AcDbEntity
  8
Lag_1
 62
7
100
AcDbPolyline
 90
4
 70
1
 10
120.589402
 20
117.622967
 30
0.0
 10
120.589402
 20
117.473329
 30
0.0
 10
123.595825
 20
117.473329
 30
0.0
 10
123.595825
 20
117.622967
 30
0.0
  0
LWPOLYLINE
  5
1a9
100
AcDbEntity
  8
Lag_1
 62
7
100
AcDbPolyline
 90
4
 70
1
 10
63.469690
 20
117.622967
 30
0.0
 10
63.469690
 20
117.473329
 30
0.0
 10
66.475821
 20
117.473329
 30
0.0
 10
66.475821
 20
117.622967
 30
0.0
  0
LWPOLYLINE
  5
1aa
100
AcDbEntity
  8
Lag_1
 62
7
100
AcDbPolyline
 90
4
 70
1
 10
63.469690
 20
120.618647
 30
0.0
 10
63.469690
 20
120.469009
 30
0.0
 10
66.475821
 20
120.469009
 30
0.0
 10
66.475821
 20
120.618647
 30
0.0
  0
LWPOLYLINE
  5
1ab
100
AcDbEntity
  8
Lag_1
 62
7
100
AcDbPolyline
 90
4
 70
1
 10
120.514322
 20
117.548148
 30
0.0
 10
120.514322
 20
114.552176
 30
0.0
 10
120.664482
 20
114.552176
 30
0.0
 10
120.664482
 20
117.548148
 30
0.0
  0
LWPOLYLINE
  5
1ac
100
AcDbEntity
  8
Lag_1
 62
7
100
AcDbPolyline
 90
4
 70
1
 10
66.475821
 20
126.610593
 30
0.0
 10
66.475821
 20
126.460664
 30
0.0
 10
123.595825
 20
126.460664
 30
0.0
 10
123.595825
 20
126.610593
 30
0.0
  0
LWPOLYLINE
  5
1ad
100
AcDbEntity
  8
Lag_1
 62
7
100
AcDbPolyline
 90
4
 70
1
 10
123.520745
 20
114.552176
 30
0.0
 10
123.520745
 20
111.556202
 30
0.0
 10
123.670905
 20
111.556202
 30
0.0
 10
123.670905
 20
114.552176
 30
0.0
  0
LWPOLYLINE
  5
1ae
100
AcDbEntity
  8
Lag_1
 62
7
100
AcDbPolyline
 90
4
 70
1
 10
120.589402
 20
90.660088
 30
0.0
 10
120.589402
 20
90.510450
 30
0.0
 10
123.595825
 20
90.510450
 30
0.0
 10
123.595825
 20
90.660088
 30
0.0
  0
LWPOLYLINE
  5
1af
100
AcDbEntity
  8
Lag_1
 62
7
100
AcDbPolyline
 90
4
 70
1
 10
120.514322
 20
87.590177
 30
0.0
 10
120.514322
 20
84.594486
 30
0.0
 10
120.664482
 20
84.594486
 30
0.0
 10
120.664482
 20
87.590177
 30
0.0
  0
LWPOLYLINE
  5
1b0
100
AcDbEntity
  8
Lag_1
 62
7
100
AcDbPolyline
 90
4
 70
1
 10
120.589402
 20
84.669305
 30
0.0
 10
120.589402
 20
84.519667
 30
0.0
 10
123.595825
 20
84.519667
 30
0.0
 10
123.595825
 20
84.669305
 30
0.0
  0
LWPOLYLINE
  5
1b1
100
AcDbEntity
  8
Lag_1
 62
7
100
AcDbPolyline
 90
4
 70
1
 10
120.514322
 20
81.597059
 30
0.0
 10
120.514322
 20
78.601383
 30
0.0
 10
120.664482
 20
78.601383
 30
0.0
 10
120.664482
 20
81.597059
 30
0.0
  0
LWPOLYLINE
  5
1b2
100
AcDbEntity
  8
Lag_1
 62
7
100
AcDbPolyline
 90
4
 70
1
 10
120.589402
 20
78.676202
 30
0.0
 10
120.589402
 20
78.526564
 30
0.0
 10
123.595825
 20
78.526564
 30
0.0
 10
123.595825
 20
78.676202
 30
0.0
  0
LWPOLYLINE
  5
1b3
100
AcDbEntity
  8
Lag_1
 62
7
100
AcDbPolyline
 90
4
 70
1
 10
123.520745
 20
126.535774
 30
0.0
 10
123.520745
 20
123.539802
 30
0.0
 10
123.670905
 20
123.539802
 30
0.0
 10
123.670905
 20
126.535774
 30
0.0
  0
LWPOLYLINE
  5
1b4
100
AcDbEntity
  8
Lag_1
 62
7
100
AcDbPolyline
 90
4
 70
1
 10
123.520745
 20
78.601383
 30
0.0
 10
123.520745
 20
75.605692
 30
0.0
 10
123.670905
 20
75.605692
 30
0.0
 10
123.670905
 20
78.601383
 30
0.0
  0
LWPOLYLINE
  5
1b5
100
AcDbEntity
  8
Lag_1
 62
7
100
AcDbPolyline
 90
4
 70
1
 10
63.394610
 20
75.605692
 30
0.0
 10
63.394610
 20
72.610016
 30
0.0
 10
63.544770
 20
72.610016
 30
0.0
 10
63.544770
 20
75.605692
 30
0.0
  0
LWPOLYLINE
  5
1b6
100
AcDbEntity
  8
Lag_1
 62
7
100
AcDbPolyline
 90
4
 70
1
 10
123.520745
 20
84.594486
 30
0.0
 10
123.520745
 20
81.597059
 30
0.0
 10
123.670905
 20
81.597059
 30
0.0
 10
123.670905
 20
84.594486
 30
0.0
  0
LWPOLYLINE
  5
1b7
100
AcDbEntity
  8
Lag_1
 62
7
100
AcDbPolyline
 90
4
 70
1
 10
120.514322
 20
75.605692
 30
0.0
 10
120.514322
 20
72.610016
 30
0.0
 10
120.664482
 20
72.610016
 30
0.0
 10
120.664482
 20
75.605692
 30
0.0
  0
LWPOLYLINE
  5
1b8
100
AcDbEntity
  8
Lag_1
 62
7
100
AcDbPolyline
 90
4
 70
1
 10
120.589402
 20
72.684835
 30
0.0
 10
120.589402
 20
72.534898
 30
0.0
 10
123.595825
 20
72.534898
 30
0.0
 10
123.595825
 20
72.684835
 30
0.0
  0
LWPOLYLINE
  5
1b9
100
AcDbEntity
  8
Lag_1
 62
7
100
AcDbPolyline
 90
4
 70
1
 10
63.394610
 20
81.597059
 30
0.0
 10
63.394610
 20
78.601383
 30
0.0
 10
63.544770
 20
78.601383
 30
0.0
 10
63.544770
 20
81.597059
 30
0.0
  0
LWPOLYLINE
  5
1ba
100
AcDbEntity
  8
Lag_1
 62
7
100
AcDbPolyline
 90
4
 70
1
 10
63.394610
 20
111.556202
 30
0.0
 10
63.394610
 20
108.560522
 30
0.0
 10
63.544770
 20
108.560522
 30
0.0
 10
63.544770
 20
111.556202
 30
0.0
  0
LWPOLYLINE
  5
1bb
100
AcDbEntity
  8
Lag_1
 62
7
100
AcDbPolyline
 90
4
 70
1
 10
120.589402
 20
81.672162
 30
0.0
 10
120.589402
 20
81.522240
 30
0.0
 10
123.595825
 20
81.522240
 30
0.0
 10
123.595825
 20
81.672162
 30
0.0
  0
LWPOLYLINE
  5
1bc
100
AcDbEntity
  8
Lag_1
 62
7
100
AcDbPolyline
 90
4
 70
1
 10
120.589402
 20
75.680511
 30
0.0
 10
120.589402
 20
75.530873
 30
0.0
 10
123.595825
 20
75.530873
 30
0.0
 10
123.595825
 20
75.680511
 30
0.0
  0
LWPOLYLINE
  5
1bd
100
AcDbEntity
  8
Lag_1
 62
7
100
AcDbPolyline
 90
4
 70
1
 10
123.520745
 20
72.610016
 30
0.0
 10
123.520745
 20
69.614041
 30
0.0
 10
123.670905
 20
69.614041
 30
0.0
 10
123.670905
 20
72.610016
 30
0.0
  0
LWPOLYLINE
  5
1be
100
AcDbEntity
  8
Lag_1
 62
7
100
AcDbPolyline
 90
4
 70
1
 10
120.589402
 20
36.734330
 30
0.0
 10
120.589402
 20
36.584393
 30
0.0
 10
123.595825
 20
36.584393
 30
0.0
 10
123.595825
 20
36.734330
 30
0.0
  0
LWPOLYLINE
  5
1bf
100
AcDbEntity
  8
Lag_1
 62
7
100
AcDbPolyline
 90
4
 70
1
 10
120.589402
 20
54.710166
 30
0.0
 10
120.589402
 20
54.560528
 30
0.0
 10
123.595825
 20
54.560528
 30
0.0
 10
123.595825
 20
54.710166
 30
0.0
  0
LWPOLYLINE
  5
1c0
100
AcDbEntity
  8
Lag_1
 62
7
100
AcDbPolyline
 90
4
 70
1
 10
120.589402
 20
39.730006
 30
0.0
 10
120.589402
 20
39.580368
 30
0.0
 10
123.595825
 20
39.580368
 30
0.0
 10
123.595825
 20
39.730006
 30
0.0
  0
LWPOLYLINE
  5
1c1
100
AcDbEntity
  8
Lag_1
 62
7
100
AcDbPolyline
 90
4
 70
1
 10
120.589402
 20
12.768294
 30
0.0
 10
120.589402
 20
12.618656
 30
0.0
 10
123.595825
 20
12.618656
 30
0.0
 10
123.595825
 20
12.768294
 30
0.0
  0
LWPOLYLINE
  5
1c2
100
AcDbEntity
  8
Lag_1
 62
7
100
AcDbPolyline
 90
4
 70
1
 10
120.514322
 20
66.618365
 30
0.0
 10
120.514322
 20
63.622689
 30
0.0
 10
120.664482
 20
63.622689
 30
0.0
 10
120.664482
 20
66.618365
 30
0.0
  0
LWPOLYLINE
  5
1c3
100
AcDbEntity
  8
Lag_1
 62
7
100
AcDbPolyline
 90
4
 70
1
 10
63.394610
 20
18.684842
 30
0.0
 10
63.394610
 20
15.689166
 30
0.0
 10
63.544770
 20
15.689166
 30
0.0
 10
63.544770
 20
18.684842
 30
0.0
  0
LWPOLYLINE
  5
1c4
100
AcDbEntity
  8
Lag_1
 62
7
100
AcDbPolyline
 90
4
 70
1
 10
120.514322
 20
12.693475
 30
0.0
 10
120.514322
 20
9.697515
 30
0.0
 10
120.664482
 20
9.697515
 30
0.0
 10
120.664482
 20
12.693475
 30
0.0
  0
LWPOLYLINE
  5
1c5
100
AcDbEntity
  8
Lag_1
 62
7
100
AcDbPolyline
 90
4
 70
1
 10
120.589402
 20
57.706141
 30
0.0
 10
120.589402
 20
57.556204
 30
0.0
 10
123.595825
 20
57.556204
 30
0.0
 10
123.595825
 20
57.706141
 30
0.0
  0
LWPOLYLINE
  5
1c6
100
AcDbEntity
  8
Lag_1
 62
7
100
AcDbPolyline
 90
4
 70
1
 10
63.469690
 20
24.751312
 30
0.0
 10
63.469690
 20
24.601674
 30
0.0
 10
66.475821
 20
24.601674
 30
0.0
 10
66.475821
 20
24.751312
 30
0.0
  0
LWPOLYLINE
  5
1c7
100
AcDbEntity
  8
Lag_1
 62
7
100
AcDbPolyline
 90
4
 70
1
 10
63.469690
 20
9.772618
 30
0.0
 10
63.469690
 20
9.622696
 30
0.0
 10
120.589402
 20
9.622696
 30
0.0
 10
120.589402
 20
9.772618
 30
0.0
  0
LWPOLYLINE
  5
1c8
100
AcDbEntity
  8
Lag_1
 62
7
100
AcDbPolyline
 90
4
 70
1
 10
63.394610
 20
30.667860
 30
0.0
 10
63.394610
 20
27.672184
 30
0.0
 10
63.544770
 20
27.672184
 30
0.0
 10
63.544770
 20
30.667860
 30
0.0
  0
LWPOLYLINE
  5
1c9
100
AcDbEntity
  8
Lag_1
 62
7
100
AcDbPolyline
 90
4
 70
1
 10
123.520745
 20
15.689166
 30
0.0
 10
123.520745
 20
12.693475
 30
0.0
 10
123.670905
 20
12.693475
 30
0.0
 10
123.670905
 20
15.689166
 30
0.0
  0
LWPOLYLINE
  5
1ca
100
AcDbEntity
  8
Lag_1
 62
7
100
AcDbPolyline
 90
4
 70
1
 10
120.589402
 20
24.751312
 30
0.0
 10
120.589402
 20
24.601674
 30
0.0
 10
123.595825
 20
24.601674
 30
0.0
 10
123.595825
 20
24.751312
 30
0.0
  0
LWPOLYLINE
  5
1cb
100
AcDbEntity
  8
Lag_1
 62
7
100
AcDbPolyline
 90
4
 70
1
 10
66.400741
 20
33.663536
 30
0.0
 10
66.400741
 20
30.667860
 30
0.0
 10
66.551195
 20
30.667860
 30
0.0
 10
66.551195
 20
33.663536
 30
0.0
  0
LWPOLYLINE
  5
1cc
100
AcDbEntity
  8
Lag_1
 62
7
100
AcDbPolyline
 90
4
 70
1
 10
120.589402
 20
60.701817
 30
0.0
 10
120.589402
 20
60.552179
 30
0.0
 10
123.595825
 20
60.552179
 30
0.0
 10
123.595825
 20
60.701817
 30
0.0
  0
LWPOLYLINE
  5
1cd
100
AcDbEntity
  8
Lag_1
 62
7
100
AcDbPolyline
 90
4
 70
1
 10
120.514322
 20
30.667860
 30
0.0
 10
120.514322
 20
27.672184
 30
0.0
 10
120.664482
 20
27.672184
 30
0.0
 10
120.664482
 20
30.667860
 30
0.0
  0
LWPOLYLINE
  5
1ce
100
AcDbEntity
  8
Lag_1
 62
7
100
AcDbPolyline
 90
4
 70
1
 10
63.469690
 20
15.763985
 30
0.0
 10
63.469690
 20
15.614347
 30
0.0
 10
66.475821
 20
15.614347
 30
0.0
 10
66.475821
 20
15.763985
 30
0.0
  0
LWPOLYLINE
  5
1cf
100
AcDbEntity
  8
Lag_1
 62
7
100
AcDbPolyline
 90
4
 70
1
 10
120.589402
 20
63.697508
 30
0.0
 10
120.589402
 20
63.547870
 30
0.0
 10
123.595825
 20
63.547870
 30
0.0
 10
123.595825
 20
63.697508
 30
0.0
  0
LWPOLYLINE
  5
1d0
100
AcDbEntity
  8
Lag_1
 62
7
100
AcDbPolyline
 90
4
 70
1
 10
123.520745
 20
51.639671
 30
0.0
 10
123.520745
 20
48.643980
 30
0.0
 10
123.670905
 20
48.643980
 30
0.0
 10
123.670905
 20
51.639671
 30
0.0
  0
LWPOLYLINE
  5
1d1
100
AcDbEntity
  8
Lag_1
 62
7
100
AcDbPolyline
 90
4
 70
1
 10
123.520745
 20
45.648020
 30
0.0
 10
123.520745
 20
42.652329
 30
0.0
 10
123.670905
 20
42.652329
 30
0.0
 10
123.670905
 20
45.648020
 30
0.0
  0
LWPOLYLINE
  5
1d2
100
AcDbEntity
  8
Lag_1
 62
7
100
AcDbPolyline
 90
4
 70
1
 10
66.400741
 20
21.680518
 30
0.0
 10
66.400741
 20
18.684842
 30
0.0
 10
66.551195
 20
18.684842
 30
0.0
 10
66.551195
 20
21.680518
 30
0.0
  0
LWPOLYLINE
  5
1d3
100
AcDbEntity
  8
Lag_1
 62
7
100
AcDbPolyline
 90
4
 70
1
 10
63.469690
 20
36.734330
 30
0.0
 10
63.469690
 20
36.584393
 30
0.0
 10
66.475821
 20
36.584393
 30
0.0
 10
66.475821
 20
36.734330
 30
0.0
  0
LWPOLYLINE
  5
1d4
100
AcDbEntity
  8
Lag_1
 62
7
100
AcDbPolyline
 90
4
 70
1
 10
63.394610
 20
24.676493
 30
0.0
 10
63.394610
 20
21.680518
 30
0.0
 10
63.544770
 20
21.680518
 30
0.0
 10
63.544770
 20
24.676493
 30
0.0
  0
LWPOLYLINE
  5
1d5
100
AcDbEntity
  8
Lag_1
 62
7
100
AcDbPolyline
 90
4
 70
1
 10
66.400741
 20
27.672184
 30
0.0
 10
66.400741
 20
24.676493
 30
0.0
 10
66.551195
 20
24.676493
 30
0.0
 10
66.551195
 20
27.672184
 30
0.0
  0
LWPOLYLINE
  5
1d6
100
AcDbEntity
  8
Lag_1
 62
7
100
AcDbPolyline
 90
4
 70
1
 10
63.469690
 20
33.738654
 30
0.0
 10
63.469690
 20
33.588717
 30
0.0
 10
66.475821
 20
33.588717
 30
0.0
 10
66.475821
 20
33.738654
 30
0.0
  0
LWPOLYLINE
  5
1d7
100
AcDbEntity
  8
Lag_1
 62
7
100
AcDbPolyline
 90
4
 70
1
 10
63.469690
 20
39.730006
 30
0.0
 10
63.469690
 20
39.580368
 30
0.0
 10
66.475821
 20
39.580368
 30
0.0
 10
66.475821
 20
39.730006
 30
0.0
  0
LWPOLYLINE
  5
1d8
100
AcDbEntity
  8
Lag_1
 62
7
100
AcDbPolyline
 90
4
 70
1
 10
120.589402
 20
45.723123
 30
0.0
 10
120.589402
 20
45.573201
 30
0.0
 10
123.595825
 20
45.573201
 30
0.0
 10
123.595825
 20
45.723123
 30
0.0
  0
LWPOLYLINE
  5
1d9
100
AcDbEntity
  8
Lag_1
 62
7
100
AcDbPolyline
 90
4
 70
1
 10
63.394610
 20
48.643980
 30
0.0
 10
63.394610
 20
45.648020
 30
0.0
 10
63.544770
 20
45.648020
 30
0.0
 10
63.544770
 20
48.643980
 30
0.0
  0
LWPOLYLINE
  5
1da
100
AcDbEntity
  8
Lag_1
 62
7
100
AcDbPolyline
 90
4
 70
1
 10
63.469690
 20
27.747003
 30
0.0
 10
63.469690
 20
27.597365
 30
0.0
 10
66.475821
 20
27.597365
 30
0.0
 10
66.475821
 20
27.747003
 30
0.0
  0
LWPOLYLINE
  5
1db
100
AcDbEntity
  8
Lag_1
 62
7
100
AcDbPolyline
 90
4
 70
1
 10
93.457678
 20
69.614041
 30
0.0
 10
93.457678
 20
66.618365
 30
0.0
 10
93.607838
 20
66.618365
 30
0.0
 10
93.607838
 20
69.614041
 30
0.0
  0
LWPOLYLINE
  5
1dc
100
AcDbEntity
  8
Lag_1
 62
7
100
AcDbPolyline
 90
4
 70
1
 10
69.482246
 20
69.689159
 30
0.0
 10
69.482246
 20
69.539222
 30
0.0
 10
72.488670
 20
69.539222
 30
0.0
 10
72.488670
 20
69.689159
 30
0.0
  0
LWPOLYLINE
  5
1dd
100
AcDbEntity
  8
Lag_1
 62
7
100
AcDbPolyline
 90
4
 70
1
 10
123.520745
 20
39.655187
 30
0.0
 10
123.520745
 20
36.659511
 30
0.0
 10
123.670905
 20
36.659511
 30
0.0
 10
123.670905
 20
39.655187
 30
0.0
  0
LWPOLYLINE
  5
1de
100
AcDbEntity
  8
Lag_1
 62
7
100
AcDbPolyline
 90
4
 70
1
 10
120.514322
 20
42.652329
 30
0.0
 10
120.514322
 20
39.655187
 30
0.0
 10
120.664482
 20
39.655187
 30
0.0
 10
120.664482
 20
42.652329
 30
0.0
  0
LWPOLYLINE
  5
1df
100
AcDbEntity
  8
Lag_1
 62
7
100
AcDbPolyline
 90
4
 70
1
 10
63.469690
 20
30.742679
 30
0.0
 10
63.469690
 20
30.593041
 30
0.0
 10
66.475821
 20
30.593041
 30
0.0
 10
66.475821
 20
30.742679
 30
0.0
  0
LWPOLYLINE
  5
1e0
100
AcDbEntity
  8
Lag_1
 62
7
100
AcDbPolyline
 90
4
 70
1
 10
123.520745
 20
33.663536
 30
0.0
 10
123.520745
 20
30.667860
 30
0.0
 10
123.670905
 20
30.667860
 30
0.0
 10
123.670905
 20
33.663536
 30
0.0
  0
LWPOLYLINE
  5
1e1
100
AcDbEntity
  8
Lag_1
 62
7
100
AcDbPolyline
 90
4
 70
1
 10
66.400741
 20
45.648020
 30
0.0
 10
66.400741
 20
42.652329
 30
0.0
 10
66.551195
 20
42.652329
 30
0.0
 10
66.551195
 20
45.648020
 30
0.0
  0
LWPOLYLINE
  5
1e2
100
AcDbEntity
  8
Lag_1
 62
7
100
AcDbPolyline
 90
4
 70
1
 10
120.514322
 20
60.626998
 30
0.0
 10
120.514322
 20
57.631023
 30
0.0
 10
120.664482
 20
57.631023
 30
0.0
 10
120.664482
 20
60.626998
 30
0.0
  0
LWPOLYLINE
  5
1e3
100
AcDbEntity
  8
Lag_1
 62
7
100
AcDbPolyline
 90
4
 70
1
 10
63.469690
 20
48.718799
 30
0.0
 10
63.469690
 20
48.569161
 30
0.0
 10
66.475821
 20
48.569161
 30
0.0
 10
66.475821
 20
48.718799
 30
0.0
  0
LWPOLYLINE
  5
1e4
100
AcDbEntity
  8
Lag_1
 62
7
100
AcDbPolyline
 90
4
 70
1
 10
120.589402
 20
42.727148
 30
0.0
 10
120.589402
 20
42.577510
 30
0.0
 10
123.595825
 20
42.577510
 30
0.0
 10
123.595825
 20
42.727148
 30
0.0
  0
LWPOLYLINE
  5
1e5
100
AcDbEntity
  8
Lag_1
 62
7
100
AcDbPolyline
 90
4
 70
1
 10
72.413590
 20
69.614041
 30
0.0
 10
72.413590
 20
66.618365
 30
0.0
 10
72.563749
 20
66.618365
 30
0.0
 10
72.563749
 20
69.614041
 30
0.0
  0
LWPOLYLINE
  5
1e6
100
AcDbEntity
  8
Lag_1
 62
7
100
AcDbPolyline
 90
4
 70
1
 10
120.589402
 20
48.718799
 30
0.0
 10
120.589402
 20
48.569161
 30
0.0
 10
123.595825
 20
48.569161
 30
0.0
 10
123.595825
 20
48.718799
 30
0.0
  0
LWPOLYLINE
  5
1e7
100
AcDbEntity
  8
Lag_1
 62
7
100
AcDbPolyline
 90
4
 70
1
 10
81.432275
 20
69.614041
 30
0.0
 10
81.432275
 20
66.618365
 30
0.0
 10
81.582728
 20
66.618365
 30
0.0
 10
81.582728
 20
69.614041
 30
0.0
  0
LWPOLYLINE
  5
1e8
100
AcDbEntity
  8
Lag_1
 62
7
100
AcDbPolyline
 90
4
 70
1
 10
96.463809
 20
69.614041
 30
0.0
 10
96.463809
 20
66.618365
 30
0.0
 10
96.614262
 20
66.618365
 30
0.0
 10
96.614262
 20
69.614041
 30
0.0
  0
LWPOLYLINE
  5
1e9
100
AcDbEntity
  8
Lag_1
 62
7
100
AcDbPolyline
 90
4
 70
1
 10
90.451254
 20
69.614041
 30
0.0
 10
90.451254
 20
66.618365
 30
0.0
 10
90.601707
 20
66.618365
 30
0.0
 10
90.601707
 20
69.614041
 30
0.0
  0
LWPOLYLINE
  5
1ea
100
AcDbEntity
  8
Lag_1
 62
7
100
AcDbPolyline
 90
4
 70
1
 10
99.545313
 20
69.689159
 30
0.0
 10
99.545313
 20
69.539222
 30
0.0
 10
102.551736
 20
69.539222
 30
0.0
 10
102.551736
 20
69.689159
 30
0.0
  0
LWPOLYLINE
  5
1eb
100
AcDbEntity
  8
Lag_1
 62
7
100
AcDbPolyline
 90
4
 70
1
 10
63.469690
 20
51.714490
 30
0.0
 10
63.469690
 20
51.564852
 30
0.0
 10
66.475821
 20
51.564852
 30
0.0
 10
66.475821
 20
51.714490
 30
0.0
  0
LWPOLYLINE
  5
1ec
100
AcDbEntity
  8
Lag_1
 62
7
100
AcDbPolyline
 90
4
 70
1
 10
99.470233
 20
69.614041
 30
0.0
 10
99.470233
 20
66.618365
 30
0.0
 10
99.620393
 20
66.618365
 30
0.0
 10
99.620393
 20
69.614041
 30
0.0
  0
LWPOLYLINE
  5
1ed
100
AcDbEntity
  8
Lag_1
 62
7
100
AcDbPolyline
 90
4
 70
1
 10
63.469690
 20
18.759661
 30
0.0
 10
63.469690
 20
18.610023
 30
0.0
 10
66.475821
 20
18.610023
 30
0.0
 10
66.475821
 20
18.759661
 30
0.0
  0
LWPOLYLINE
  5
1ee
100
AcDbEntity
  8
Lag_1
 62
7
100
AcDbPolyline
 90
4
 70
1
 10
90.526334
 20
66.693184
 30
0.0
 10
90.526334
 20
66.543546
 30
0.0
 10
93.532758
 20
66.543546
 30
0.0
 10
93.532758
 20
66.693184
 30
0.0
  0
LWPOLYLINE
  5
1ef
100
AcDbEntity
  8
Lag_1
 62
7
100
AcDbPolyline
 90
4
 70
1
 10
63.394610
 20
60.626998
 30
0.0
 10
63.394610
 20
57.631023
 30
0.0
 10
63.544770
 20
57.631023
 30
0.0
 10
63.544770
 20
60.626998
 30
0.0
  0
LWPOLYLINE
  5
1f0
100
AcDbEntity
  8
Lag_1
 62
7
100
AcDbPolyline
 90
4
 70
1
 10
120.589402
 20
33.738654
 30
0.0
 10
120.589402
 20
33.588717
 30
0.0
 10
123.595825
 20
33.588717
 30
0.0
 10
123.595825
 20
33.738654
 30
0.0
  0
LWPOLYLINE
  5
1f1
100
AcDbEntity
  8
Lag_1
 62
7
100
AcDbPolyline
 90
4
 70
1
 10
120.589402
 20
15.763985
 30
0.0
 10
120.589402
 20
15.614347
 30
0.0
 10
123.595825
 20
15.614347
 30
0.0
 10
123.595825
 20
15.763985
 30
0.0
  0
LWPOLYLINE
  5
1f2
100
AcDbEntity
  8
Lag_1
 62
7
100
AcDbPolyline
 90
4
 70
1
 10
120.589402
 20
27.747003
 30
0.0
 10
120.589402
 20
27.597365
 30
0.0
 10
123.595825
 20
27.597365
 30
0.0
 10
123.595825
 20
27.747003
 30
0.0
  0
LWPOLYLINE
  5
1f3
100
AcDbEntity
  8
Lag_1
 62
7
100
AcDbPolyline
 90
4
 70
1
 10
75.419720
 20
69.614041
 30
0.0
 10
75.419720
 20
66.618365
 30
0.0
 10
75.570173
 20
66.618365
 30
0.0
 10
75.570173
 20
69.614041
 30
0.0
  0
LWPOLYLINE
  5
1f4
100
AcDbEntity
  8
Lag_1
 62
7
100
AcDbPolyline
 90
4
 70
1
 10
63.394610
 20
54.635347
 30
0.0
 10
63.394610
 20
51.639671
 30
0.0
 10
63.544770
 20
51.639671
 30
0.0
 10
63.544770
 20
54.635347
 30
0.0
  0
LWPOLYLINE
  5
1f5
100
AcDbEntity
  8
Lag_1
 62
7
100
AcDbPolyline
 90
4
 70
1
 10
63.469690
 20
54.710166
 30
0.0
 10
63.469690
 20
54.560528
 30
0.0
 10
66.475821
 20
54.560528
 30
0.0
 10
66.475821
 20
54.710166
 30
0.0
  0
LWPOLYLINE
  5
1f6
100
AcDbEntity
  8
Lag_1
 62
7
100
AcDbPolyline
 90
4
 70
1
 10
120.514322
 20
18.684842
 30
0.0
 10
120.514322
 20
15.689166
 30
0.0
 10
120.664482
 20
15.689166
 30
0.0
 10
120.664482
 20
18.684842
 30
0.0
  0
LWPOLYLINE
  5
1f7
100
AcDbEntity
  8
Lag_1
 62
7
100
AcDbPolyline
 90
4
 70
1
 10
78.426144
 20
69.614041
 30
0.0
 10
78.426144
 20
66.618365
 30
0.0
 10
78.576304
 20
66.618365
 30
0.0
 10
78.576304
 20
69.614041
 30
0.0
  0
LWPOLYLINE
  5
1f8
100
AcDbEntity
  8
Lag_1
 62
7
100
AcDbPolyline
 90
4
 70
1
 10
63.394610
 20
36.659511
 30
0.0
 10
63.394610
 20
33.663536
 30
0.0
 10
63.544770
 20
33.663536
 30
0.0
 10
63.544770
 20
36.659511
 30
0.0
  0
LWPOLYLINE
  5
1f9
100
AcDbEntity
  8
Lag_1
 62
7
100
AcDbPolyline
 90
4
 70
1
 10
63.469690
 20
66.693184
 30
0.0
 10
63.469690
 20
66.543546
 30
0.0
 10
69.482246
 20
66.543546
 30
0.0
 10
69.482246
 20
66.693184
 30
0.0
  0
LWPOLYLINE
  5
1fa
100
AcDbEntity
  8
Lag_1
 62
7
100
AcDbPolyline
 90
4
 70
1
 10
78.501224
 20
66.693184
 30
0.0
 10
78.501224
 20
66.543546
 30
0.0
 10
81.507648
 20
66.543546
 30
0.0
 10
81.507648
 20
66.693184
 30
0.0
  0
LWPOLYLINE
  5
1fb
100
AcDbEntity
  8
Lag_1
 62
7
100
AcDbPolyline
 90
4
 70
1
 10
120.514322
 20
24.676493
 30
0.0
 10
120.514322
 20
21.680518
 30
0.0
 10
120.664482
 20
21.680518
 30
0.0
 10
120.664482
 20
24.676493
 30
0.0
  0
LWPOLYLINE
  5
1fc
100
AcDbEntity
  8
Lag_1
 62
7
100
AcDbPolyline
 90
4
 70
1
 10
102.551736
 20
66.693184
 30
0.0
 10
102.551736
 20
66.543546
 30
0.0
 10
105.557869
 20
66.543546
 30
0.0
 10
105.557869
 20
66.693184
 30
0.0
  0
LWPOLYLINE
  5
1fd
100
AcDbEntity
  8
Lag_1
 62
7
100
AcDbPolyline
 90
4
 70
1
 10
123.520745
 20
69.614041
 30
0.0
 10
123.520745
 20
66.618365
 30
0.0
 10
123.670905
 20
66.618365
 30
0.0
 10
123.670905
 20
69.614041
 30
0.0
  0
LWPOLYLINE
  5
1fe
100
AcDbEntity
  8
Lag_1
 62
7
100
AcDbPolyline
 90
4
 70
1
 10
63.469690
 20
21.755636
 30
0.0
 10
63.469690
 20
21.605699
 30
0.0
 10
66.475821
 20
21.605699
 30
0.0
 10
66.475821
 20
21.755636
 30
0.0
  0
LWPOLYLINE
  5
1ff
100
AcDbEntity
  8
Lag_1
 62
7
100
AcDbPolyline
 90
4
 70
1
 10
120.514322
 20
48.643980
 30
0.0
 10
120.514322
 20
45.648020
 30
0.0
 10
120.664482
 20
45.648020
 30
0.0
 10
120.664482
 20
48.643980
 30
0.0
  0
LWPOLYLINE
  5
200
100
AcDbEntity
  8
Lag_1
 62
7
100
AcDbPolyline
 90
4
 70
1
 10
66.400741
 20
57.631023
 30
0.0
 10
66.400741
 20
54.635347
 30
0.0
 10
66.551195
 20
54.635347
 30
0.0
 10
66.551195
 20
57.631023
 30
0.0
  0
LWPOLYLINE
  5
201
100
AcDbEntity
  8
Lag_1
 62
7
100
AcDbPolyline
 90
4
 70
1
 10
105.482789
 20
69.614041
 30
0.0
 10
105.482789
 20
66.618365
 30
0.0
 10
105.632949
 20
66.618365
 30
0.0
 10
105.632949
 20
69.614041
 30
0.0
  0
LWPOLYLINE
  5
202
100
AcDbEntity
  8
Lag_1
 62
7
100
AcDbPolyline
 90
4
 70
1
 10
105.557869
 20
69.689159
 30
0.0
 10
105.557869
 20
69.539222
 30
0.0
 10
108.564292
 20
69.539222
 30
0.0
 10
108.564292
 20
69.689159
 30
0.0
  0
LWPOLYLINE
  5
203
100
AcDbEntity
  8
Lag_1
 62
7
100
AcDbPolyline
 90
4
 70
1
 10
111.495343
 20
69.614041
 30
0.0
 10
111.495343
 20
66.618365
 30
0.0
 10
111.645795
 20
66.618365
 30
0.0
 10
111.645795
 20
69.614041
 30
0.0
  0
LWPOLYLINE
  5
204
100
AcDbEntity
  8
Lag_1
 62
7
100
AcDbPolyline
 90
4
 70
1
 10
120.589402
 20
18.759661
 30
0.0
 10
120.589402
 20
18.610023
 30
0.0
 10
123.595825
 20
18.610023
 30
0.0
 10
123.595825
 20
18.759661
 30
0.0
  0
LWPOLYLINE
  5
205
100
AcDbEntity
  8
Lag_1
 62
7
100
AcDbPolyline
 90
4
 70
1
 10
120.589402
 20
30.742679
 30
0.0
 10
120.589402
 20
30.593041
 30
0.0
 10
123.595825
 20
30.593041
 30
0.0
 10
123.595825
 20
30.742679
 30
0.0
  0
LWPOLYLINE
  5
206
100
AcDbEntity
  8
Lag_1
 62
7
100
AcDbPolyline
 90
4
 70
1
 10
120.589402
 20
51.714490
 30
0.0
 10
120.589402
 20
51.564852
 30
0.0
 10
123.595825
 20
51.564852
 30
0.0
 10
123.595825
 20
51.714490
 30
0.0
  0
LWPOLYLINE
  5
207
100
AcDbEntity
  8
Lag_1
 62
7
100
AcDbPolyline
 90
4
 70
1
 10
120.514322
 20
54.635347
 30
0.0
 10
120.514322
 20
51.639671
 30
0.0
 10
120.664482
 20
51.639671
 30
0.0
 10
120.664482
 20
54.635347
 30
0.0
  0
LWPOLYLINE
  5
208
100
AcDbEntity
  8
Lag_1
 62
7
100
AcDbPolyline
 90
4
 70
1
 10
120.589402
 20
21.755636
 30
0.0
 10
120.589402
 20
21.605699
 30
0.0
 10
123.595825
 20
21.605699
 30
0.0
 10
123.595825
 20
21.755636
 30
0.0
  0
LWPOLYLINE
  5
209
100
AcDbEntity
  8
Lag_1
 62
7
100
AcDbPolyline
 90
4
 70
1
 10
66.400741
 20
39.655187
 30
0.0
 10
66.400741
 20
36.659511
 30
0.0
 10
66.551195
 20
36.659511
 30
0.0
 10
66.551195
 20
39.655187
 30
0.0
  0
LWPOLYLINE
  5
20a
100
AcDbEntity
  8
Lag_1
 62
7
100
AcDbPolyline
 90
4
 70
1
 10
120.514322
 20
36.659511
 30
0.0
 10
120.514322
 20
33.663536
 30
0.0
 10
120.664482
 20
33.663536
 30
0.0
 10
120.664482
 20
36.659511
 30
0.0
  0
LWPOLYLINE
  5
20b
100
AcDbEntity
  8
Lag_1
 62
7
100
AcDbPolyline
 90
4
 70
1
 10
66.400741
 20
15.689166
 30
0.0
 10
66.400741
 20
12.693475
 30
0.0
 10
66.551195
 20
12.693475
 30
0.0
 10
66.551195
 20
15.689166
 30
0.0
  0
LWPOLYLINE
  5
20c
100
AcDbEntity
  8
Lag_1
 62
7
100
AcDbPolyline
 90
4
 70
1
 10
63.469690
 20
42.727148
 30
0.0
 10
63.469690
 20
42.577510
 30
0.0
 10
66.475821
 20
42.577510
 30
0.0
 10
66.475821
 20
42.727148
 30
0.0
  0
LWPOLYLINE
  5
20d
100
AcDbEntity
  8
Lag_1
 62
7
100
AcDbPolyline
 90
4
 70
1
 10
63.469690
 20
45.723123
 30
0.0
 10
63.469690
 20
45.573201
 30
0.0
 10
66.475821
 20
45.573201
 30
0.0
 10
66.475821
 20
45.723123
 30
0.0
  0
LWPOLYLINE
  5
20e
100
AcDbEntity
  8
Lag_1
 62
7
100
AcDbPolyline
 90
4
 70
1
 10
123.520745
 20
21.680518
 30
0.0
 10
123.520745
 20
18.684842
 30
0.0
 10
123.670905
 20
18.684842
 30
0.0
 10
123.670905
 20
21.680518
 30
0.0
  0
LWPOLYLINE
  5
20f
100
AcDbEntity
  8
Lag_1
 62
7
100
AcDbPolyline
 90
4
 70
1
 10
63.394610
 20
42.652329
 30
0.0
 10
63.394610
 20
39.655187
 30
0.0
 10
63.544770
 20
39.655187
 30
0.0
 10
63.544770
 20
42.652329
 30
0.0
  0
LWPOLYLINE
  5
210
100
AcDbEntity
  8
Lag_1
 62
7
100
AcDbPolyline
 90
4
 70
1
 10
84.513779
 20
66.693184
 30
0.0
 10
84.513779
 20
66.543546
 30
0.0
 10
87.520203
 20
66.543546
 30
0.0
 10
87.520203
 20
66.693184
 30
0.0
  0
LWPOLYLINE
  5
211
100
AcDbEntity
  8
Lag_1
 62
7
100
AcDbPolyline
 90
4
 70
1
 10
96.539182
 20
66.693184
 30
0.0
 10
96.539182
 20
66.543546
 30
0.0
 10
99.545313
 20
66.543546
 30
0.0
 10
99.545313
 20
66.693184
 30
0.0
  0
LWPOLYLINE
  5
212
100
AcDbEntity
  8
Lag_1
 62
7
100
AcDbPolyline
 90
4
 70
1
 10
87.520203
 20
69.689159
 30
0.0
 10
87.520203
 20
69.539222
 30
0.0
 10
90.526334
 20
69.539222
 30
0.0
 10
90.526334
 20
69.689159
 30
0.0
  0
LWPOLYLINE
  5
213
100
AcDbEntity
  8
Lag_1
 62
7
100
AcDbPolyline
 90
4
 70
1
 10
93.532758
 20
69.689159
 30
0.0
 10
93.532758
 20
69.539222
 30
0.0
 10
96.539182
 20
69.539222
 30
0.0
 10
96.539182
 20
69.689159
 30
0.0
  0
LWPOLYLINE
  5
214
100
AcDbEntity
  8
Lag_1
 62
7
100
AcDbPolyline
 90
4
 70
1
 10
108.564292
 20
66.693184
 30
0.0
 10
108.564292
 20
66.543546
 30
0.0
 10
111.570715
 20
66.543546
 30
0.0
 10
111.570715
 20
66.693184
 30
0.0
  0
LWPOLYLINE
  5
215
100
AcDbEntity
  8
Lag_1
 62
7
100
AcDbPolyline
 90
4
 70
1
 10
75.494800
 20
69.689159
 30
0.0
 10
75.494800
 20
69.539222
 30
0.0
 10
78.501224
 20
69.539222
 30
0.0
 10
78.501224
 20
69.689159
 30
0.0
  0
LWPOLYLINE
  5
216
100
AcDbEntity
  8
Lag_1
 62
7
100
AcDbPolyline
 90
4
 70
1
 10
72.488670
 20
66.693184
 30
0.0
 10
72.488670
 20
66.543546
 30
0.0
 10
75.494800
 20
66.543546
 30
0.0
 10
75.494800
 20
66.693184
 30
0.0
  0
LWPOLYLINE
  5
217
100
AcDbEntity
  8
Lag_1
 62
7
100
AcDbPolyline
 90
4
 70
1
 10
66.400741
 20
63.622689
 30
0.0
 10
66.400741
 20
60.626998
 30
0.0
 10
66.551195
 20
60.626998
 30
0.0
 10
66.551195
 20
63.622689
 30
0.0
  0
LWPOLYLINE
  5
218
100
AcDbEntity
  8
Lag_1
 62
7
100
AcDbPolyline
 90
4
 70
1
 10
87.445123
 20
69.614041
 30
0.0
 10
87.445123
 20
66.618365
 30
0.0
 10
87.595283
 20
66.618365
 30
0.0
 10
87.595283
 20
69.614041
 30
0.0
  0
LWPOLYLINE
  5
219
100
AcDbEntity
  8
Lag_1
 62
7
100
AcDbPolyline
 90
4
 70
1
 10
63.469690
 20
60.701817
 30
0.0
 10
63.469690
 20
60.552179
 30
0.0
 10
66.475821
 20
60.552179
 30
0.0
 10
66.475821
 20
60.701817
 30
0.0
  0
LWPOLYLINE
  5
21a
100
AcDbEntity
  8
Lag_1
 62
7
100
AcDbPolyline
 90
4
 70
1
 10
81.507648
 20
69.689159
 30
0.0
 10
81.507648
 20
69.539222
 30
0.0
 10
84.513779
 20
69.539222
 30
0.0
 10
84.513779
 20
69.689159
 30
0.0
  0
LWPOLYLINE
  5
21b
100
AcDbEntity
  8
Lag_1
 62
7
100
AcDbPolyline
 90
4
 70
1
 10
63.469690
 20
57.706141
 30
0.0
 10
63.469690
 20
57.556204
 30
0.0
 10
66.475821
 20
57.556204
 30
0.0
 10
66.475821
 20
57.706141
 30
0.0
  0
LWPOLYLINE
  5
21c
100
AcDbEntity
  8
Lag_1
 62
7
100
AcDbPolyline
 90
4
 70
1
 10
69.407166
 20
69.614041
 30
0.0
 10
69.407166
 20
66.618365
 30
0.0
 10
69.557326
 20
66.618365
 30
0.0
 10
69.557326
 20
69.614041
 30
0.0
  0
LWPOLYLINE
  5
21d
100
AcDbEntity
  8
Lag_1
 62
7
100
AcDbPolyline
 90
4
 70
1
 10
120.589402
 20
69.689159
 30
0.0
 10
120.589402
 20
69.539222
 30
0.0
 10
123.595825
 20
69.539222
 30
0.0
 10
123.595825
 20
69.689159
 30
0.0
  0
LWPOLYLINE
  5
21e
100
AcDbEntity
  8
Lag_1
 62
7
100
AcDbPolyline
 90
4
 70
1
 10
123.520745
 20
63.622689
 30
0.0
 10
123.520745
 20
60.626998
 30
0.0
 10
123.670905
 20
60.626998
 30
0.0
 10
123.670905
 20
63.622689
 30
0.0
  0
LWPOLYLINE
  5
21f
100
AcDbEntity
  8
Lag_1
 62
7
100
AcDbPolyline
 90
4
 70
1
 10
123.520745
 20
57.631023
 30
0.0
 10
123.520745
 20
54.635347
 30
0.0
 10
123.670905
 20
54.635347
 30
0.0
 10
123.670905
 20
57.631023
 30
0.0
  0
LWPOLYLINE
  5
220
100
AcDbEntity
  8
Lag_1
 62
7
100
AcDbPolyline
 90
4
 70
1
 10
123.520745
 20
27.672184
 30
0.0
 10
123.520745
 20
24.676493
 30
0.0
 10
123.670905
 20
24.676493
 30
0.0
 10
123.670905
 20
27.672184
 30
0.0
  0
LWPOLYLINE
  5
221
100
AcDbEntity
  8
Lag_1
 62
7
100
AcDbPolyline
 90
4
 70
1
 10
63.394610
 20
12.693475
 30
0.0
 10
63.394610
 20
9.697515
 30
0.0
 10
63.544770
 20
9.697515
 30
0.0
 10
63.544770
 20
12.693475
 30
0.0
  0
LWPOLYLINE
  5
222
100
AcDbEntity
  8
Lag_1
 62
7
100
AcDbPolyline
 90
4
 70
1
 10
66.400741
 20
51.639671
 30
0.0
 10
66.400741
 20
48.643980
 30
0.0
 10
66.551195
 20
48.643980
 30
0.0
 10
66.551195
 20
51.639671
 30
0.0
  0
LWPOLYLINE
  5
223
100
AcDbEntity
  8
Lag_1
 62
7
100
AcDbPolyline
 90
4
 70
1
 10
63.469690
 20
63.697508
 30
0.0
 10
63.469690
 20
63.547870
 30
0.0
 10
66.475821
 20
63.547870
 30
0.0
 10
66.475821
 20
63.697508
 30
0.0
  0
LWPOLYLINE
  5
224
100
AcDbEntity
  8
Lag_1
 62
7
100
AcDbPolyline
 90
4
 70
1
 10
84.438699
 20
69.614041
 30
0.0
 10
84.438699
 20
66.618365
 30
0.0
 10
84.588859
 20
66.618365
 30
0.0
 10
84.588859
 20
69.614041
 30
0.0
  0
LWPOLYLINE
  5
225
100
AcDbEntity
  8
Lag_1
 62
7
100
AcDbPolyline
 90
4
 70
1
 10
102.476657
 20
69.614041
 30
0.0
 10
102.476657
 20
66.618365
 30
0.0
 10
102.626816
 20
66.618365
 30
0.0
 10
102.626816
 20
69.614041
 30
0.0
  0
LWPOLYLINE
  5
226
100
AcDbEntity
  8
Lag_1
 62
7
100
AcDbPolyline
 90
4
 70
1
 10
108.489212
 20
69.614041
 30
0.0
 10
108.489212
 20
66.618365
 30
0.0
 10
108.639372
 20
66.618365
 30
0.0
 10
108.639372
 20
69.614041
 30
0.0
  0
LWPOLYLINE
  5
227
100
AcDbEntity
  8
Lag_1
 62
7
100
AcDbPolyline
 90
4
 70
1
 10
111.570715
 20
69.689159
 30
0.0
 10
111.570715
 20
69.539222
 30
0.0
 10
114.576846
 20
69.539222
 30
0.0
 10
114.576846
 20
69.689159
 30
0.0
  0
LWPOLYLINE
  5
228
100
AcDbEntity
  8
Lag_1
 62
7
100
AcDbPolyline
 90
4
 70
1
 10
114.501766
 20
69.614041
 30
0.0
 10
114.501766
 20
66.618365
 30
0.0
 10
114.651926
 20
66.618365
 30
0.0
 10
114.651926
 20
69.614041
 30
0.0
  0
LWPOLYLINE
  5
229
100
AcDbEntity
  8
Lag_1
 62
7
100
AcDbPolyline
 90
4
 70
1
 10
114.576846
 20
66.693184
 30
0.0
 10
114.576846
 20
66.543546
 30
0.0
 10
117.583271
 20
66.543546
 30
0.0
 10
117.583271
 20
66.693184
 30
0.0
  0
LWPOLYLINE
  5
22a
100
AcDbEntity
  8
Lag_1
 62
7
100
AcDbPolyline
 90
4
 70
1
 10
117.507898
 20
69.614041
 30
0.0
 10
117.507898
 20
66.618365
 30
0.0
 10
117.658351
 20
66.618365
 30
0.0
 10
117.658351
 20
69.614041
 30
0.0
  0
LWPOLYLINE
  5
22b
100
AcDbEntity
  8
Lag_1
 62
7
100
AcDbPolyline
 90
4
 70
1
 10
123.595825
 20
66.693184
 30
0.0
 10
123.595825
 20
66.543546
 30
0.0
 10
126.601957
 20
66.543546
 30
0.0
 10
126.601957
 20
66.693184
 30
0.0
  0
LWPOLYLINE
  5
22c
100
AcDbEntity
  8
Lag_1
 62
7
100
AcDbPolyline
 90
4
 70
1
 10
117.583271
 20
69.689159
 30
0.0
 10
117.583271
 20
69.539222
 30
0.0
 10
120.589402
 20
69.539222
 30
0.0
 10
120.589402
 20
69.689159
 30
0.0
  0
LWPOLYLINE
  5
22d
100
AcDbEntity
  8
Lag_1
 62
7
100
AcDbPolyline
 90
4
 70
1
 10
30.325119
 20
69.614041
 30
0.0
 10
30.325119
 20
66.618365
 30
0.0
 10
30.475572
 20
66.618365
 30
0.0
 10
30.475572
 20
69.614041
 30
0.0
  0
LWPOLYLINE
  5
22e
100
AcDbEntity
  8
Lag_1
 62
7
100
AcDbPolyline
 90
4
 70
1
 10
21.381513
 20
66.693184
 30
0.0
 10
21.381513
 20
66.543546
 30
0.0
 10
24.387644
 20
66.543546
 30
0.0
 10
24.387644
 20
66.693184
 30
0.0
  0
LWPOLYLINE
  5
22f
100
AcDbEntity
  8
Lag_1
 62
7
100
AcDbPolyline
 90
4
 70
1
 10
21.306140
 20
69.614041
 30
0.0
 10
21.306140
 20
66.618365
 30
0.0
 10
21.456593
 20
66.618365
 30
0.0
 10
21.456593
 20
69.614041
 30
0.0
  0
LWPOLYLINE
  5
230
100
AcDbEntity
  8
Lag_1
 62
7
100
AcDbPolyline
 90
4
 70
1
 10
54.375631
 20
69.614041
 30
0.0
 10
54.375631
 20
66.618365
 30
0.0
 10
54.526085
 20
66.618365
 30
0.0
 10
54.526085
 20
69.614041
 30
0.0
  0
LWPOLYLINE
  5
231
100
AcDbEntity
  8
Lag_1
 62
7
100
AcDbPolyline
 90
4
 70
1
 10
42.425602
 20
69.689159
 30
0.0
 10
42.425602
 20
69.539222
 30
0.0
 10
45.432027
 20
69.539222
 30
0.0
 10
45.432027
 20
69.689159
 30
0.0
  0
LWPOLYLINE
  5
232
100
AcDbEntity
  8
Lag_1
 62
7
100
AcDbPolyline
 90
4
 70
1
 10
45.356652
 20
69.614041
 30
0.0
 10
45.356652
 20
66.618365
 30
0.0
 10
45.507106
 20
66.618365
 30
0.0
 10
45.507106
 20
69.614041
 30
0.0
  0
LWPOLYLINE
  5
233
100
AcDbEntity
  8
Lag_1
 62
7
100
AcDbPolyline
 90
4
 70
1
 10
54.450711
 20
69.689159
 30
0.0
 10
54.450711
 20
69.539222
 30
0.0
 10
57.457136
 20
69.539222
 30
0.0
 10
57.457136
 20
69.689159
 30
0.0
  0
LWPOLYLINE
  5
234
100
AcDbEntity
  8
Lag_1
 62
7
100
AcDbPolyline
 90
4
 70
1
 10
36.337673
 20
69.614041
 30
0.0
 10
36.337673
 20
66.618365
 30
0.0
 10
36.488128
 20
66.618365
 30
0.0
 10
36.488128
 20
69.614041
 30
0.0
  0
LWPOLYLINE
  5
235
100
AcDbEntity
  8
Lag_1
 62
7
100
AcDbPolyline
 90
4
 70
1
 10
57.457136
 20
66.693184
 30
0.0
 10
57.457136
 20
66.543546
 30
0.0
 10
60.463267
 20
66.543546
 30
0.0
 10
60.463267
 20
66.693184
 30
0.0
  0
LWPOLYLINE
  5
236
100
AcDbEntity
  8
Lag_1
 62
7
100
AcDbPolyline
 90
4
 70
1
 10
33.331543
 20
69.614041
 30
0.0
 10
33.331543
 20
66.618365
 30
0.0
 10
33.481703
 20
66.618365
 30
0.0
 10
33.481703
 20
69.614041
 30
0.0
  0
LWPOLYLINE
  5
237
100
AcDbEntity
  8
Lag_1
 62
7
100
AcDbPolyline
 90
4
 70
1
 10
15.368958
 20
66.693184
 30
0.0
 10
15.368958
 20
66.543546
 30
0.0
 10
18.375090
 20
66.543546
 30
0.0
 10
18.375090
 20
66.693184
 30
0.0
  0
LWPOLYLINE
  5
238
100
AcDbEntity
  8
Lag_1
 62
7
100
AcDbPolyline
 90
4
 70
1
 10
33.406623
 20
66.693184
 30
0.0
 10
33.406623
 20
66.543546
 30
0.0
 10
36.412753
 20
66.543546
 30
0.0
 10
36.412753
 20
66.693184
 30
0.0
  0
LWPOLYLINE
  5
239
100
AcDbEntity
  8
Lag_1
 62
7
100
AcDbPolyline
 90
4
 70
1
 10
39.419178
 20
66.693184
 30
0.0
 10
39.419178
 20
66.543546
 30
0.0
 10
42.425602
 20
66.543546
 30
0.0
 10
42.425602
 20
66.693184
 30
0.0
  0
LWPOLYLINE
  5
23a
100
AcDbEntity
  8
Lag_1
 62
7
100
AcDbPolyline
 90
4
 70
1
 10
42.350522
 20
69.614041
 30
0.0
 10
42.350522
 20
66.618365
 30
0.0
 10
42.500682
 20
66.618365
 30
0.0
 10
42.500682
 20
69.614041
 30
0.0
  0
LWPOLYLINE
  5
23b
100
AcDbEntity
  8
Lag_1
 62
7
100
AcDbPolyline
 90
4
 70
1
 10
45.432027
 20
66.693184
 30
0.0
 10
45.432027
 20
66.543546
 30
0.0
 10
48.438157
 20
66.543546
 30
0.0
 10
48.438157
 20
66.693184
 30
0.0
  0
LWPOLYLINE
  5
23c
100
AcDbEntity
  8
Lag_1
 62
7
100
AcDbPolyline
 90
4
 70
1
 10
48.363077
 20
69.614041
 30
0.0
 10
48.363077
 20
66.618365
 30
0.0
 10
48.513237
 20
66.618365
 30
0.0
 10
48.513237
 20
69.614041
 30
0.0
  0
LWPOLYLINE
  5
23d
100
AcDbEntity
  8
Lag_1
 62
7
100
AcDbPolyline
 90
4
 70
1
 10
48.438157
 20
69.689159
 30
0.0
 10
48.438157
 20
69.539222
 30
0.0
 10
51.444581
 20
69.539222
 30
0.0
 10
51.444581
 20
69.689159
 30
0.0
  0
LWPOLYLINE
  5
23e
100
AcDbEntity
  8
Lag_1
 62
7
100
AcDbPolyline
 90
4
 70
1
 10
51.369208
 20
69.614041
 30
0.0
 10
51.369208
 20
66.618365
 30
0.0
 10
51.519661
 20
66.618365
 30
0.0
 10
51.519661
 20
69.614041
 30
0.0
  0
LWPOLYLINE
  5
23f
100
AcDbEntity
  8
Lag_1
 62
7
100
AcDbPolyline
 90
4
 70
1
 10
51.444581
 20
66.693184
 30
0.0
 10
51.444581
 20
66.543546
 30
0.0
 10
54.450711
 20
66.543546
 30
0.0
 10
54.450711
 20
66.693184
 30
0.0
  0
LWPOLYLINE
  5
240
100
AcDbEntity
  8
Lag_1
 62
7
100
AcDbPolyline
 90
4
 70
1
 10
57.381762
 20
69.614041
 30
0.0
 10
57.381762
 20
66.618365
 30
0.0
 10
57.532216
 20
66.618365
 30
0.0
 10
57.532216
 20
69.614041
 30
0.0
  0
LWPOLYLINE
  5
241
100
AcDbEntity
  8
Lag_1
 62
7
100
AcDbPolyline
 90
4
 70
1
 10
60.388187
 20
69.614041
 30
0.0
 10
60.388187
 20
66.618365
 30
0.0
 10
60.538639
 20
66.618365
 30
0.0
 10
60.538639
 20
69.614041
 30
0.0
  0
LWPOLYLINE
  5
242
100
AcDbEntity
  8
Lag_1
 62
7
100
AcDbPolyline
 90
4
 70
1
 10
60.463267
 20
69.689159
 30
0.0
 10
60.463267
 20
69.539222
 30
0.0
 10
63.469690
 20
69.539222
 30
0.0
 10
63.469690
 20
69.689159
 30
0.0
  0
LWPOLYLINE
  5
243
100
AcDbEntity
  8
Lag_1
 62
7
100
AcDbPolyline
 90
4
 70
1
 10
63.394610
 20
66.618365
 30
0.0
 10
63.394610
 20
63.622689
 30
0.0
 10
63.544770
 20
63.622689
 30
0.0
 10
63.544770
 20
66.618365
 30
0.0
  0
LWPOLYLINE
  5
244
100
AcDbEntity
  8
Lag_1
 62
7
100
AcDbPolyline
 90
4
 70
1
 10
60.463267
 20
12.768294
 30
0.0
 10
60.463267
 20
12.618656
 30
0.0
 10
63.469690
 20
12.618656
 30
0.0
 10
63.469690
 20
12.768294
 30
0.0
  0
LWPOLYLINE
  5
245
100
AcDbEntity
  8
Lag_1
 62
7
100
AcDbPolyline
 90
4
 70
1
 10
60.388187
 20
12.693475
 30
0.0
 10
60.388187
 20
9.697515
 30
0.0
 10
60.538639
 20
9.697515
 30
0.0
 10
60.538639
 20
12.693475
 30
0.0
  0
LWPOLYLINE
  5
246
100
AcDbEntity
  8
Lag_1
 62
7
100
AcDbPolyline
 90
4
 70
1
 10
57.457136
 20
9.772618
 30
0.0
 10
57.457136
 20
9.622696
 30
0.0
 10
60.463267
 20
9.622696
 30
0.0
 10
60.463267
 20
9.772618
 30
0.0
  0
LWPOLYLINE
  5
247
100
AcDbEntity
  8
Lag_1
 62
7
100
AcDbPolyline
 90
4
 70
1
 10
57.381762
 20
12.693475
 30
0.0
 10
57.381762
 20
9.697515
 30
0.0
 10
57.532216
 20
9.697515
 30
0.0
 10
57.532216
 20
12.693475
 30
0.0
  0
LWPOLYLINE
  5
248
100
AcDbEntity
  8
Lag_1
 62
7
100
AcDbPolyline
 90
4
 70
1
 10
54.450711
 20
12.768294
 30
0.0
 10
54.450711
 20
12.618656
 30
0.0
 10
57.457136
 20
12.618656
 30
0.0
 10
57.457136
 20
12.768294
 30
0.0
  0
LWPOLYLINE
  5
249
100
AcDbEntity
  8
Lag_1
 62
7
100
AcDbPolyline
 90
4
 70
1
 10
54.375631
 20
12.693475
 30
0.0
 10
54.375631
 20
9.697515
 30
0.0
 10
54.526085
 20
9.697515
 30
0.0
 10
54.526085
 20
12.693475
 30
0.0
  0
LWPOLYLINE
  5
24a
100
AcDbEntity
  8
Lag_1
 62
7
100
AcDbPolyline
 90
4
 70
1
 10
51.444581
 20
9.772618
 30
0.0
 10
51.444581
 20
9.622696
 30
0.0
 10
54.450711
 20
9.622696
 30
0.0
 10
54.450711
 20
9.772618
 30
0.0
  0
LWPOLYLINE
  5
24b
100
AcDbEntity
  8
Lag_1
 62
7
100
AcDbPolyline
 90
4
 70
1
 10
51.369208
 20
12.693475
 30
0.0
 10
51.369208
 20
9.697515
 30
0.0
 10
51.519661
 20
9.697515
 30
0.0
 10
51.519661
 20
12.693475
 30
0.0
  0
LWPOLYLINE
  5
24c
100
AcDbEntity
  8
Lag_1
 62
7
100
AcDbPolyline
 90
4
 70
1
 10
48.438157
 20
12.768294
 30
0.0
 10
48.438157
 20
12.618656
 30
0.0
 10
51.444581
 20
12.618656
 30
0.0
 10
51.444581
 20
12.768294
 30
0.0
  0
LWPOLYLINE
  5
24d
100
AcDbEntity
  8
Lag_1
 62
7
100
AcDbPolyline
 90
4
 70
1
 10
48.363077
 20
12.693475
 30
0.0
 10
48.363077
 20
9.697515
 30
0.0
 10
48.513237
 20
9.697515
 30
0.0
 10
48.513237
 20
12.693475
 30
0.0
  0
LWPOLYLINE
  5
24e
100
AcDbEntity
  8
Lag_1
 62
7
100
AcDbPolyline
 90
4
 70
1
 10
45.432027
 20
9.772618
 30
0.0
 10
45.432027
 20
9.622696
 30
0.0
 10
48.438157
 20
9.622696
 30
0.0
 10
48.438157
 20
9.772618
 30
0.0
  0
LWPOLYLINE
  5
24f
100
AcDbEntity
  8
Lag_1
 62
7
100
AcDbPolyline
 90
4
 70
1
 10
45.356652
 20
12.693475
 30
0.0
 10
45.356652
 20
9.697515
 30
0.0
 10
45.507106
 20
9.697515
 30
0.0
 10
45.507106
 20
12.693475
 30
0.0
  0
LWPOLYLINE
  5
250
100
AcDbEntity
  8
Lag_1
 62
7
100
AcDbPolyline
 90
4
 70
1
 10
42.425602
 20
12.768294
 30
0.0
 10
42.425602
 20
12.618656
 30
0.0
 10
45.432027
 20
12.618656
 30
0.0
 10
45.432027
 20
12.768294
 30
0.0
  0
LWPOLYLINE
  5
251
100
AcDbEntity
  8
Lag_1
 62
7
100
AcDbPolyline
 90
4
 70
1
 10
42.350522
 20
12.693475
 30
0.0
 10
42.350522
 20
9.697515
 30
0.0
 10
42.500682
 20
9.697515
 30
0.0
 10
42.500682
 20
12.693475
 30
0.0
  0
LWPOLYLINE
  5
252
100
AcDbEntity
  8
Lag_1
 62
7
100
AcDbPolyline
 90
4
 70
1
 10
39.419178
 20
9.772618
 30
0.0
 10
39.419178
 20
9.622696
 30
0.0
 10
42.425602
 20
9.622696
 30
0.0
 10
42.425602
 20
9.772618
 30
0.0
  0
LWPOLYLINE
  5
253
100
AcDbEntity
  8
Lag_1
 62
7
100
AcDbPolyline
 90
4
 70
1
 10
39.344098
 20
12.693475
 30
0.0
 10
39.344098
 20
9.697515
 30
0.0
 10
39.494258
 20
9.697515
 30
0.0
 10
39.494258
 20
12.693475
 30
0.0
  0
LWPOLYLINE
  5
254
100
AcDbEntity
  8
Lag_1
 62
7
100
AcDbPolyline
 90
4
 70
1
 10
36.412753
 20
12.768294
 30
0.0
 10
36.412753
 20
12.618656
 30
0.0
 10
39.419178
 20
12.618656
 30
0.0
 10
39.419178
 20
12.768294
 30
0.0
  0
LWPOLYLINE
  5
255
100
AcDbEntity
  8
Lag_1
 62
7
100
AcDbPolyline
 90
4
 70
1
 10
36.337673
 20
12.693475
 30
0.0
 10
36.337673
 20
9.697515
 30
0.0
 10
36.488128
 20
9.697515
 30
0.0
 10
36.488128
 20
12.693475
 30
0.0
  0
LWPOLYLINE
  5
256
100
AcDbEntity
  8
Lag_1
 62
7
100
AcDbPolyline
 90
4
 70
1
 10
33.406623
 20
9.772618
 30
0.0
 10
33.406623
 20
9.622696
 30
0.0
 10
36.412753
 20
9.622696
 30
0.0
 10
36.412753
 20
9.772618
 30
0.0
  0
LWPOLYLINE
  5
257
100
AcDbEntity
  8
Lag_1
 62
7
100
AcDbPolyline
 90
4
 70
1
 10
33.331543
 20
12.693475
 30
0.0
 10
33.331543
 20
9.697515
 30
0.0
 10
33.481703
 20
9.697515
 30
0.0
 10
33.481703
 20
12.693475
 30
0.0
  0
LWPOLYLINE
  5
258
100
AcDbEntity
  8
Lag_1
 62
7
100
AcDbPolyline
 90
4
 70
1
 10
30.400199
 20
12.768294
 30
0.0
 10
30.400199
 20
12.618656
 30
0.0
 10
33.406623
 20
12.618656
 30
0.0
 10
33.406623
 20
12.768294
 30
0.0
  0
LWPOLYLINE
  5
259
100
AcDbEntity
  8
Lag_1
 62
7
100
AcDbPolyline
 90
4
 70
1
 10
30.325119
 20
12.693475
 30
0.0
 10
30.325119
 20
9.697515
 30
0.0
 10
30.475572
 20
9.697515
 30
0.0
 10
30.475572
 20
12.693475
 30
0.0
  0
LWPOLYLINE
  5
25a
100
AcDbEntity
  8
Lag_1
 62
7
100
AcDbPolyline
 90
4
 70
1
 10
27.394069
 20
9.772618
 30
0.0
 10
27.394069
 20
9.622696
 30
0.0
 10
30.400199
 20
9.622696
 30
0.0
 10
30.400199
 20
9.772618
 30
0.0
  0
LWPOLYLINE
  5
25b
100
AcDbEntity
  8
Lag_1
 62
7
100
AcDbPolyline
 90
4
 70
1
 10
27.318694
 20
12.693475
 30
0.0
 10
27.318694
 20
9.697515
 30
0.0
 10
27.469149
 20
9.697515
 30
0.0
 10
27.469149
 20
12.693475
 30
0.0
  0
LWPOLYLINE
  5
25c
100
AcDbEntity
  8
Lag_1
 62
7
100
AcDbPolyline
 90
4
 70
1
 10
24.387644
 20
12.768294
 30
0.0
 10
24.387644
 20
12.618656
 30
0.0
 10
27.394069
 20
12.618656
 30
0.0
 10
27.394069
 20
12.768294
 30
0.0
  0
LWPOLYLINE
  5
25d
100
AcDbEntity
  8
Lag_1
 62
7
100
AcDbPolyline
 90
4
 70
1
 10
24.312564
 20
12.693475
 30
0.0
 10
24.312564
 20
9.697515
 30
0.0
 10
24.463017
 20
9.697515
 30
0.0
 10
24.463017
 20
12.693475
 30
0.0
  0
LWPOLYLINE
  5
25e
100
AcDbEntity
  8
Lag_1
 62
7
100
AcDbPolyline
 90
4
 70
1
 10
21.381513
 20
9.772618
 30
0.0
 10
21.381513
 20
9.622696
 30
0.0
 10
24.387644
 20
9.622696
 30
0.0
 10
24.387644
 20
9.772618
 30
0.0
  0
LWPOLYLINE
  5
25f
100
AcDbEntity
  8
Lag_1
 62
7
100
AcDbPolyline
 90
4
 70
1
 10
21.306140
 20
12.693475
 30
0.0
 10
21.306140
 20
9.697515
 30
0.0
 10
21.456593
 20
9.697515
 30
0.0
 10
21.456593
 20
12.693475
 30
0.0
  0
LWPOLYLINE
  5
260
100
AcDbEntity
  8
Lag_1
 62
7
100
AcDbPolyline
 90
4
 70
1
 10
18.375090
 20
12.768294
 30
0.0
 10
18.375090
 20
12.618656
 30
0.0
 10
21.381513
 20
12.618656
 30
0.0
 10
21.381513
 20
12.768294
 30
0.0
  0
LWPOLYLINE
  5
261
100
AcDbEntity
  8
Lag_1
 62
7
100
AcDbPolyline
 90
4
 70
1
 10
18.300010
 20
12.693475
 30
0.0
 10
18.300010
 20
9.697515
 30
0.0
 10
18.450170
 20
9.697515
 30
0.0
 10
18.450170
 20
12.693475
 30
0.0
  0
LWPOLYLINE
  5
262
100
AcDbEntity
  8
Lag_1
 62
7
100
AcDbPolyline
 90
4
 70
1
 10
15.368958
 20
9.772618
 30
0.0
 10
15.368958
 20
9.622696
 30
0.0
 10
18.375090
 20
9.622696
 30
0.0
 10
18.375090
 20
9.772618
 30
0.0
  0
LWPOLYLINE
  5
263
100
AcDbEntity
  8
Lag_1
 62
7
100
AcDbPolyline
 90
4
 70
1
 10
15.293585
 20
12.693475
 30
0.0
 10
15.293585
 20
9.697515
 30
0.0
 10
15.444038
 20
9.697515
 30
0.0
 10
15.444038
 20
12.693475
 30
0.0
  0
LWPOLYLINE
  5
264
100
AcDbEntity
  8
Lag_1
 62
7
100
AcDbPolyline
 90
4
 70
1
 10
12.362534
 20
12.768294
 30
0.0
 10
12.362534
 20
12.618656
 30
0.0
 10
15.368958
 20
12.618656
 30
0.0
 10
15.368958
 20
12.768294
 30
0.0
  0
LWPOLYLINE
  5
265
100
AcDbEntity
  8
Lag_1
 62
7
100
AcDbPolyline
 90
4
 70
1
 10
12.287454
 20
12.693475
 30
0.0
 10
12.287454
 20
9.697515
 30
0.0
 10
12.437614
 20
9.697515
 30
0.0
 10
12.437614
 20
12.693475
 30
0.0
  0
LWPOLYLINE
  5
266
100
AcDbEntity
  8
Lag_1
 62
7
100
AcDbPolyline
 90
4
 70
1
 10
9.356111
 20
9.772618
 30
0.0
 10
9.356111
 20
9.622696
 30
0.0
 10
12.362534
 20
9.622696
 30
0.0
 10
12.362534
 20
9.772618
 30
0.0
  0
LWPOLYLINE
  5
267
100
AcDbEntity
  8
Lag_1
 62
7
100
AcDbPolyline
 90
4
 70
1
 10
9.281031
 20
15.689166
 30
0.0
 10
9.281031
 20
9.697515
 30
0.0
 10
9.431191
 20
9.697515
 30
0.0
 10
9.431191
 20
15.689166
 30
0.0
  0
LWPOLYLINE
  5
268
100
AcDbEntity
  8
Lag_1
 62
7
100
AcDbPolyline
 90
4
 70
1
 10
6.349686
 20
15.763985
 30
0.0
 10
6.349686
 20
15.614347
 30
0.0
 10
9.356111
 20
15.614347
 30
0.0
 10
9.356111
 20
15.763985
 30
0.0
  0
LWPOLYLINE
  5
269
100
AcDbEntity
  8
Lag_1
 62
7
100
AcDbPolyline
 90
4
 70
1
 10
6.274606
 20
18.684842
 30
0.0
 10
6.274606
 20
15.689166
 30
0.0
 10
6.425059
 20
15.689166
 30
0.0
 10
6.425059
 20
18.684842
 30
0.0
  0
LWPOLYLINE
  5
26a
100
AcDbEntity
  8
Lag_1
 62
7
100
AcDbPolyline
 90
4
 70
1
 10
6.349686
 20
18.759661
 30
0.0
 10
6.349686
 20
18.610023
 30
0.0
 10
9.356111
 20
18.610023
 30
0.0
 10
9.356111
 20
18.759661
 30
0.0
  0
LWPOLYLINE
  5
26b
100
AcDbEntity
  8
Lag_1
 62
7
100
AcDbPolyline
 90
4
 70
1
 10
9.281031
 20
21.680518
 30
0.0
 10
9.281031
 20
18.684842
 30
0.0
 10
9.431191
 20
18.684842
 30
0.0
 10
9.431191
 20
21.680518
 30
0.0
  0
LWPOLYLINE
  5
26c
100
AcDbEntity
  8
Lag_1
 62
7
100
AcDbPolyline
 90
4
 70
1
 10
6.349686
 20
21.755636
 30
0.0
 10
6.349686
 20
21.605699
 30
0.0
 10
9.356111
 20
21.605699
 30
0.0
 10
9.356111
 20
21.755636
 30
0.0
  0
LWPOLYLINE
  5
26d
100
AcDbEntity
  8
Lag_1
 62
7
100
AcDbPolyline
 90
4
 70
1
 10
6.274606
 20
24.676493
 30
0.0
 10
6.274606
 20
21.680518
 30
0.0
 10
6.425059
 20
21.680518
 30
0.0
 10
6.425059
 20
24.676493
 30
0.0
  0
LWPOLYLINE
  5
26e
100
AcDbEntity
  8
Lag_1
 62
7
100
AcDbPolyline
 90
4
 70
1
 10
6.349686
 20
24.751312
 30
0.0
 10
6.349686
 20
24.601674
 30
0.0
 10
9.356111
 20
24.601674
 30
0.0
 10
9.356111
 20
24.751312
 30
0.0
  0
LWPOLYLINE
  5
26f
100
AcDbEntity
  8
Lag_1
 62
7
100
AcDbPolyline
 90
4
 70
1
 10
9.281031
 20
27.672184
 30
0.0
 10
9.281031
 20
24.676493
 30
0.0
 10
9.431191
 20
24.676493
 30
0.0
 10
9.431191
 20
27.672184
 30
0.0
  0
LWPOLYLINE
  5
270
100
AcDbEntity
  8
Lag_1
 62
7
100
AcDbPolyline
 90
4
 70
1
 10
6.349686
 20
27.747003
 30
0.0
 10
6.349686
 20
27.597365
 30
0.0
 10
9.356111
 20
27.597365
 30
0.0
 10
9.356111
 20
27.747003
 30
0.0
  0
LWPOLYLINE
  5
271
100
AcDbEntity
  8
Lag_1
 62
7
100
AcDbPolyline
 90
4
 70
1
 10
6.274606
 20
30.667860
 30
0.0
 10
6.274606
 20
27.672184
 30
0.0
 10
6.425059
 20
27.672184
 30
0.0
 10
6.425059
 20
30.667860
 30
0.0
  0
LWPOLYLINE
  5
272
100
AcDbEntity
  8
Lag_1
 62
7
100
AcDbPolyline
 90
4
 70
1
 10
6.349686
 20
30.742679
 30
0.0
 10
6.349686
 20
30.593041
 30
0.0
 10
9.356111
 20
30.593041
 30
0.0
 10
9.356111
 20
30.742679
 30
0.0
  0
LWPOLYLINE
  5
273
100
AcDbEntity
  8
Lag_1
 62
7
100
AcDbPolyline
 90
4
 70
1
 10
9.281031
 20
33.663536
 30
0.0
 10
9.281031
 20
30.667860
 30
0.0
 10
9.431191
 20
30.667860
 30
0.0
 10
9.431191
 20
33.663536
 30
0.0
  0
LWPOLYLINE
  5
274
100
AcDbEntity
  8
Lag_1
 62
7
100
AcDbPolyline
 90
4
 70
1
 10
6.349686
 20
33.738654
 30
0.0
 10
6.349686
 20
33.588717
 30
0.0
 10
9.356111
 20
33.588717
 30
0.0
 10
9.356111
 20
33.738654
 30
0.0
  0
LWPOLYLINE
  5
275
100
AcDbEntity
  8
Lag_1
 62
7
100
AcDbPolyline
 90
4
 70
1
 10
6.274606
 20
36.659511
 30
0.0
 10
6.274606
 20
33.663536
 30
0.0
 10
6.425059
 20
33.663536
 30
0.0
 10
6.425059
 20
36.659511
 30
0.0
  0
LWPOLYLINE
  5
276
100
AcDbEntity
  8
Lag_1
 62
7
100
AcDbPolyline
 90
4
 70
1
 10
6.349686
 20
36.734330
 30
0.0
 10
6.349686
 20
36.584393
 30
0.0
 10
9.356111
 20
36.584393
 30
0.0
 10
9.356111
 20
36.734330
 30
0.0
  0
LWPOLYLINE
  5
277
100
AcDbEntity
  8
Lag_1
 62
7
100
AcDbPolyline
 90
4
 70
1
 10
9.281031
 20
39.655187
 30
0.0
 10
9.281031
 20
36.659511
 30
0.0
 10
9.431191
 20
36.659511
 30
0.0
 10
9.431191
 20
39.655187
 30
0.0
  0
LWPOLYLINE
  5
278
100
AcDbEntity
  8
Lag_1
 62
7
100
AcDbPolyline
 90
4
 70
1
 10
6.349686
 20
39.730006
 30
0.0
 10
6.349686
 20
39.580368
 30
0.0
 10
9.356111
 20
39.580368
 30
0.0
 10
9.356111
 20
39.730006
 30
0.0
  0
LWPOLYLINE
  5
279
100
AcDbEntity
  8
Lag_1
 62
7
100
AcDbPolyline
 90
4
 70
1
 10
6.274606
 20
42.652329
 30
0.0
 10
6.274606
 20
39.655187
 30
0.0
 10
6.425059
 20
39.655187
 30
0.0
 10
6.425059
 20
42.652329
 30
0.0
  0
LWPOLYLINE
  5
27a
100
AcDbEntity
  8
Lag_1
 62
7
100
AcDbPolyline
 90
4
 70
1
 10
6.349686
 20
42.727148
 30
0.0
 10
6.349686
 20
42.577510
 30
0.0
 10
9.356111
 20
42.577510
 30
0.0
 10
9.356111
 20
42.727148
 30
0.0
  0
LWPOLYLINE
  5
27b
100
AcDbEntity
  8
Lag_1
 62
7
100
AcDbPolyline
 90
4
 70
1
 10
9.281031
 20
45.648020
 30
0.0
 10
9.281031
 20
42.652329
 30
0.0
 10
9.431191
 20
42.652329
 30
0.0
 10
9.431191
 20
45.648020
 30
0.0
  0
LWPOLYLINE
  5
27c
100
AcDbEntity
  8
Lag_1
 62
7
100
AcDbPolyline
 90
4
 70
1
 10
6.349686
 20
45.723123
 30
0.0
 10
6.349686
 20
45.573201
 30
0.0
 10
9.356111
 20
45.573201
 30
0.0
 10
9.356111
 20
45.723123
 30
0.0
  0
LWPOLYLINE
  5
27d
100
AcDbEntity
  8
Lag_1
 62
7
100
AcDbPolyline
 90
4
 70
1
 10
6.274606
 20
48.643980
 30
0.0
 10
6.274606
 20
45.648020
 30
0.0
 10
6.425059
 20
45.648020
 30
0.0
 10
6.425059
 20
48.643980
 30
0.0
  0
LWPOLYLINE
  5
27e
100
AcDbEntity
  8
Lag_1
 62
7
100
AcDbPolyline
 90
4
 70
1
 10
6.349686
 20
48.718799
 30
0.0
 10
6.349686
 20
48.569161
 30
0.0
 10
9.356111
 20
48.569161
 30
0.0
 10
9.356111
 20
48.718799
 30
0.0
  0
LWPOLYLINE
  5
27f
100
AcDbEntity
  8
Lag_1
 62
7
100
AcDbPolyline
 90
4
 70
1
 10
9.281031
 20
51.639671
 30
0.0
 10
9.281031
 20
48.643980
 30
0.0
 10
9.431191
 20
48.643980
 30
0.0
 10
9.431191
 20
51.639671
 30
0.0
  0
LWPOLYLINE
  5
280
100
AcDbEntity
  8
Lag_1
 62
7
100
AcDbPolyline
 90
4
 70
1
 10
6.349686
 20
51.714490
 30
0.0
 10
6.349686
 20
51.564852
 30
0.0
 10
9.356111
 20
51.564852
 30
0.0
 10
9.356111
 20
51.714490
 30
0.0
  0
LWPOLYLINE
  5
281
100
AcDbEntity
  8
Lag_1
 62
7
100
AcDbPolyline
 90
4
 70
1
 10
6.274606
 20
54.635347
 30
0.0
 10
6.274606
 20
51.639671
 30
0.0
 10
6.425059
 20
51.639671
 30
0.0
 10
6.425059
 20
54.635347
 30
0.0
  0
LWPOLYLINE
  5
282
100
AcDbEntity
  8
Lag_1
 62
7
100
AcDbPolyline
 90
4
 70
1
 10
6.349686
 20
54.710166
 30
0.0
 10
6.349686
 20
54.560528
 30
0.0
 10
9.356111
 20
54.560528
 30
0.0
 10
9.356111
 20
54.710166
 30
0.0
  0
LWPOLYLINE
  5
283
100
AcDbEntity
  8
Lag_1
 62
7
100
AcDbPolyline
 90
4
 70
1
 10
9.281031
 20
57.631023
 30
0.0
 10
9.281031
 20
54.635347
 30
0.0
 10
9.431191
 20
54.635347
 30
0.0
 10
9.431191
 20
57.631023
 30
0.0
  0
LWPOLYLINE
  5
284
100
AcDbEntity
  8
Lag_1
 62
7
100
AcDbPolyline
 90
4
 70
1
 10
6.349686
 20
57.706141
 30
0.0
 10
6.349686
 20
57.556204
 30
0.0
 10
9.356111
 20
57.556204
 30
0.0
 10
9.356111
 20
57.706141
 30
0.0
  0
LWPOLYLINE
  5
285
100
AcDbEntity
  8
Lag_1
 62
7
100
AcDbPolyline
 90
4
 70
1
 10
6.274606
 20
60.626998
 30
0.0
 10
6.274606
 20
57.631023
 30
0.0
 10
6.425059
 20
57.631023
 30
0.0
 10
6.425059
 20
60.626998
 30
0.0
  0
LWPOLYLINE
  5
286
100
AcDbEntity
  8
Lag_1
 62
7
100
AcDbPolyline
 90
4
 70
1
 10
6.349686
 20
60.701817
 30
0.0
 10
6.349686
 20
60.552179
 30
0.0
 10
9.356111
 20
60.552179
 30
0.0
 10
9.356111
 20
60.701817
 30
0.0
  0
LWPOLYLINE
  5
287
100
AcDbEntity
  8
Lag_1
 62
7
100
AcDbPolyline
 90
4
 70
1
 10
9.281031
 20
63.622689
 30
0.0
 10
9.281031
 20
60.626998
 30
0.0
 10
9.431191
 20
60.626998
 30
0.0
 10
9.431191
 20
63.622689
 30
0.0
  0
LWPOLYLINE
  5
288
100
AcDbEntity
  8
Lag_1
 62
7
100
AcDbPolyline
 90
4
 70
1
 10
6.349686
 20
63.697508
 30
0.0
 10
6.349686
 20
63.547870
 30
0.0
 10
9.356111
 20
63.547870
 30
0.0
 10
9.356111
 20
63.697508
 30
0.0
  0
LWPOLYLINE
  5
289
100
AcDbEntity
  8
Lag_1
 62
7
100
AcDbPolyline
 90
4
 70
1
 10
6.274606
 20
66.618365
 30
0.0
 10
6.274606
 20
63.622689
 30
0.0
 10
6.425059
 20
63.622689
 30
0.0
 10
6.425059
 20
66.618365
 30
0.0
  0
LWPOLYLINE
  5
28a
100
AcDbEntity
  8
Lag_1
 62
7
100
AcDbPolyline
 90
4
 70
1
 10
6.349686
 20
66.693184
 30
0.0
 10
6.349686
 20
66.543546
 30
0.0
 10
12.362534
 20
66.543546
 30
0.0
 10
12.362534
 20
66.693184
 30
0.0
  0
LWPOLYLINE
  5
28b
100
AcDbEntity
  8
Lag_1
 62
7
100
AcDbPolyline
 90
4
 70
1
 10
12.287454
 20
69.614041
 30
0.0
 10
12.287454
 20
66.618365
 30
0.0
 10
12.437614
 20
66.618365
 30
0.0
 10
12.437614
 20
69.614041
 30
0.0
  0
LWPOLYLINE
  5
28c
100
AcDbEntity
  8
Lag_1
 62
7
100
AcDbPolyline
 90
4
 70
1
 10
12.362534
 20
69.689159
 30
0.0
 10
12.362534
 20
69.539222
 30
0.0
 10
15.368958
 20
69.539222
 30
0.0
 10
15.368958
 20
69.689159
 30
0.0
  0
LWPOLYLINE
  5
28d
100
AcDbEntity
  8
Lag_1
 62
7
100
AcDbPolyline
 90
4
 70
1
 10
15.293585
 20
69.614041
 30
0.0
 10
15.293585
 20
66.618365
 30
0.0
 10
15.444038
 20
66.618365
 30
0.0
 10
15.444038
 20
69.614041
 30
0.0
  0
LWPOLYLINE
  5
28e
100
AcDbEntity
  8
Lag_1
 62
7
100
AcDbPolyline
 90
4
 70
1
 10
18.300010
 20
69.614041
 30
0.0
 10
18.300010
 20
66.618365
 30
0.0
 10
18.450170
 20
66.618365
 30
0.0
 10
18.450170
 20
69.614041
 30
0.0
  0
LWPOLYLINE
  5
28f
100
AcDbEntity
  8
Lag_1
 62
7
100
AcDbPolyline
 90
4
 70
1
 10
18.375090
 20
69.689159
 30
0.0
 10
18.375090
 20
69.539222
 30
0.0
 10
21.381513
 20
69.539222
 30
0.0
 10
21.381513
 20
69.689159
 30
0.0
  0
LWPOLYLINE
  5
290
100
AcDbEntity
  8
Lag_1
 62
7
100
AcDbPolyline
 90
4
 70
1
 10
24.312564
 20
69.614041
 30
0.0
 10
24.312564
 20
66.618365
 30
0.0
 10
24.463017
 20
66.618365
 30
0.0
 10
24.463017
 20
69.614041
 30
0.0
  0
LWPOLYLINE
  5
291
100
AcDbEntity
  8
Lag_1
 62
7
100
AcDbPolyline
 90
4
 70
1
 10
24.387644
 20
69.689159
 30
0.0
 10
24.387644
 20
69.539222
 30
0.0
 10
27.394069
 20
69.539222
 30
0.0
 10
27.394069
 20
69.689159
 30
0.0
  0
LWPOLYLINE
  5
292
100
AcDbEntity
  8
Lag_1
 62
7
100
AcDbPolyline
 90
4
 70
1
 10
27.318694
 20
69.614041
 30
0.0
 10
27.318694
 20
66.618365
 30
0.0
 10
27.469149
 20
66.618365
 30
0.0
 10
27.469149
 20
69.614041
 30
0.0
  0
LWPOLYLINE
  5
293
100
AcDbEntity
  8
Lag_1
 62
7
100
AcDbPolyline
 90
4
 70
1
 10
27.394069
 20
66.693184
 30
0.0
 10
27.394069
 20
66.543546
 30
0.0
 10
30.400199
 20
66.543546
 30
0.0
 10
30.400199
 20
66.693184
 30
0.0
  0
LWPOLYLINE
  5
294
100
AcDbEntity
  8
Lag_1
 62
7
100
AcDbPolyline
 90
4
 70
1
 10
30.400199
 20
69.689159
 30
0.0
 10
30.400199
 20
69.539222
 30
0.0
 10
33.406623
 20
69.539222
 30
0.0
 10
33.406623
 20
69.689159
 30
0.0
  0
LWPOLYLINE
  5
295
100
AcDbEntity
  8
Lag_1
 62
7
100
AcDbPolyline
 90
4
 70
1
 10
36.412753
 20
69.689159
 30
0.0
 10
36.412753
 20
69.539222
 30
0.0
 10
39.419178
 20
69.539222
 30
0.0
 10
39.419178
 20
69.689159
 30
0.0
  0
LWPOLYLINE
  5
296
100
AcDbEntity
  8
Lag_1
 62
7
100
AcDbPolyline
 90
4
 70
1
 10
39.344098
 20
69.614041
 30
0.0
 10
39.344098
 20
66.618365
 30
0.0
 10
39.494258
 20
66.618365
 30
0.0
 10
39.494258
 20
69.614041
 30
0.0
  0
LWPOLYLINE
  5
297
100
AcDbEntity
  8
Lag_1
 62
7
100
AcDbPolyline
 90
4
 70
1
 10
63.394610
 20
69.614041
 30
0.0
 10
63.394610
 20
66.618365
 30
0.0
 10
63.544770
 20
66.618365
 30
0.0
 10
63.544770
 20
69.614041
 30
0.0
  0
LWPOLYLINE
  5
298
100
AcDbEntity
  8
Lag_1
 62
7
100
AcDbPolyline
 90
4
 70
1
 10
63.469690
 20
12.768294
 30
0.0
 10
63.469690
 20
12.618656
 30
0.0
 10
66.475821
 20
12.618656
 30
0.0
 10
66.475821
 20
12.768294
 30
0.0
  0
LWPOLYLINE
  5
299
100
AcDbEntity
  8
Lag_1
 62
7
100
AcDbPolyline
 90
8
 70
1
 10
75.228881
 20
84.350161
 30
0.0
 10
75.228881
 20
90.424376
 30
0.0
 10
81.303095
 20
90.424376
 30
0.0
 10
87.377310
 20
90.424376
 30
0.0
 10
87.377310
 20
84.350161
 30
0.0
 10
87.377310
 20
78.275946
 30
0.0
 10
81.303095
 20
78.275946
 30
0.0
 10
75.228881
 20
78.275946
 30
0.0
  0
LWPOLYLINE
  5
29a
100
AcDbEntity
  8
Lag_1
 62
7
100
AcDbPolyline
 90
8
 70
1
 10
85.658561
 20
84.350161
 30
0.0
 10
85.658561
 20
88.705627
 30
0.0
 10
81.303095
 20
88.705627
 30
0.0
 10
76.947630
 20
88.705627
 30
0.0
 10
76.947630
 20
84.350161
 30
0.0
 10
76.947630
 20
79.994695
 30
0.0
 10
81.303095
 20
79.994695
 30
0.0
 10
85.658561
 20
79.994695
 30
0.0
  0
LWPOLYLINE
  5
29b
100
AcDbEntity
  8
Lag_1
 62
7
100
AcDbPolyline
 90
8
 70
1
 10
78.705441
 20
84.350161
 30
0.0
 10
78.705441
 20
86.947816
 30
0.0
 10
81.303095
 20
86.947816
 30
0.0
 10
83.900751
 20
86.947816
 30
0.0
 10
83.900751
 20
84.350161
 30
0.0
 10
83.900751
 20
81.752507
 30
0.0
 10
81.303095
 20
81.752507
 30
0.0
 10
78.705441
 20
81.752507
 30
0.0
  0
LWPOLYLINE
  5
29c
100
AcDbEntity
  8
Lag_1
 62
7
100
AcDbPolyline
 90
140
 70
1
 10
90.853871
 20
79.135321
 30
0.0
 10
90.853871
 20
79.994695
 30
0.0
 10
91.732776
 20
79.994695
 30
0.0
 10
92.611682
 20
79.994695
 30
0.0
 10
92.611682
 20
81.732976
 30
0.0
 10
92.611682
 20
83.471256
 30
0.0
 10
94.349962
 20
83.471256
 30
0.0
 10
96.088245
 20
83.471256
 30
0.0
 10
96.088245
 20
85.209536
 30
0.0
 10
96.088245
 20
86.947816
 30
0.0
 10
95.209336
 20
86.947816
 30
0.0
 10
94.330431
 20
86.947816
 30
0.0
 10
94.330431
 20
87.826722
 30
0.0
 10
94.330431
 20
88.705627
 30
0.0
 10
93.471056
 20
88.705627
 30
0.0
 10
92.611682
 20
88.705627
 30
0.0
 10
92.611682
 20
86.967348
 30
0.0
 10
92.611682
 20
85.229067
 30
0.0
 10
91.732776
 20
85.229067
 30
0.0
 10
90.853871
 20
85.229067
 30
0.0
 10
90.853871
 20
86.088441
 30
0.0
 10
90.853871
 20
86.947816
 30
0.0
 10
89.994497
 20
86.947816
 30
0.0
 10
89.135122
 20
86.947816
 30
0.0
 10
89.135122
 20
89.565002
 30
0.0
 10
89.135122
 20
92.182187
 30
0.0
 10
87.396841
 20
92.182187
 30
0.0
 10
85.658561
 20
92.182187
 30
0.0
 10
85.658561
 20
93.041562
 30
0.0
 10
85.658561
 20
93.900936
 30
0.0
 10
82.182002
 20
93.900936
 30
0.0
 10
78.705441
 20
93.900936
 30
0.0
 10
78.705441
 20
94.779842
 30
0.0
 10
78.705441
 20
95.658748
 30
0.0
 10
79.564816
 20
95.658748
 30
0.0
 10
80.424190
 20
95.658748
 30
0.0
 10
80.424190
 20
96.517375
 30
0.0
 10
80.424190
 20
97.376002
 30
0.0
 10
81.293330
 20
97.386512
 30
0.0
 10
82.162470
 20
97.397022
 30
0.0
 10
82.172980
 20
98.266162
 30
0.0
 10
82.183490
 20
99.135301
 30
0.0
 10
83.042117
 20
99.135301
 30
0.0
 10
83.900745
 20
99.135301
 30
0.0
 10
83.900745
 20
99.994676
 30
0.0
 10
83.900745
 20
100.854050
 30
0.0
 10
87.377304
 20
100.854050
 30
0.0
 10
90.853865
 20
100.854050
 30
0.0
 10
90.853865
 20
101.732957
 30
0.0
 10
90.853865
 20
102.611862
 30
0.0
 10
89.994491
 20
102.611862
 30
0.0
 10
89.135116
 20
102.611862
 30
0.0
 10
89.135116
 20
107.826703
 30
0.0
 10
89.135116
 20
113.041542
 30
0.0
 10
89.994491
 20
113.041542
 30
0.0
 10
90.853865
 20
113.041542
 30
0.0
 10
90.853865
 20
113.900916
 30
0.0
 10
90.853865
 20
114.760291
 30
0.0
 10
92.592145
 20
114.760291
 30
0.0
 10
94.330425
 20
114.760291
 30
0.0
 10
94.330425
 20
113.900916
 30
0.0
 10
94.330425
 20
113.041542
 30
0.0
 10
95.209330
 20
113.041542
 30
0.0
 10
96.088235
 20
113.041542
 30
0.0
 10
96.088235
 20
113.900916
 30
0.0
 10
96.088235
 20
114.760291
 30
0.0
 10
96.947605
 20
114.760291
 30
0.0
 10
97.806984
 20
114.760291
 30
0.0
 10
97.806984
 20
113.900916
 30
0.0
 10
97.806984
 20
113.041542
 30
0.0
 10
96.947605
 20
113.041542
 30
0.0
 10
96.088235
 20
113.041542
 30
0.0
 10
96.088235
 20
109.564982
 30
0.0
 10
96.088235
 20
106.088422
 30
0.0
 10
96.947605
 20
106.088422
 30
0.0
 10
97.806984
 20
106.088422
 30
0.0
 10
97.806984
 20
103.471236
 30
0.0
 10
97.806984
 20
100.854050
 30
0.0
 10
98.685884
 20
100.854050
 30
0.0
 10
99.564793
 20
100.854050
 30
0.0
 10
99.564793
 20
98.256396
 30
0.0
 10
99.564793
 20
95.658742
 30
0.0
 10
100.424163
 20
95.658742
 30
0.0
 10
101.283542
 20
95.658742
 30
0.0
 10
101.283542
 20
98.256396
 30
0.0
 10
101.283542
 20
100.854050
 30
0.0
 10
105.639009
 20
100.854050
 30
0.0
 10
109.994476
 20
100.854050
 30
0.0
 10
109.994476
 20
99.994676
 30
0.0
 10
109.994476
 20
99.135301
 30
0.0
 10
110.853846
 20
99.135301
 30
0.0
 10
111.713225
 20
99.135301
 30
0.0
 10
111.713225
 20
97.397022
 30
0.0
 10
111.713225
 20
95.658742
 30
0.0
 10
110.853846
 20
95.658742
 30
0.0
 10
109.994476
 20
95.658742
 30
0.0
 10
109.994476
 20
94.779836
 30
0.0
 10
109.994476
 20
93.900930
 30
0.0
 10
110.853846
 20
93.900930
 30
0.0
 10
111.713225
 20
93.900930
 30
0.0
 10
111.713225
 20
89.565402
 30
0.0
 10
111.713225
 20
85.229874
 30
0.0
 10
109.984706
 20
85.219704
 30
0.0
 10
108.256197
 20
85.209534
 30
0.0
 10
108.245697
 20
84.340394
 30
0.0
 10
108.235197
 20
83.471254
 30
0.0
 10
107.376568
 20
83.471254
 30
0.0
 10
106.517938
 20
83.471254
 30
0.0
 10
106.517938
 20
82.592349
 30
0.0
 10
106.517938
 20
81.713442
 30
0.0
 10
107.377318
 20
81.713442
 30
0.0
 10
108.236687
 20
81.713442
 30
0.0
 10
108.236687
 20
79.994693
 30
0.0
 10
108.236687
 20
78.275944
 30
0.0
 10
104.760130
 20
78.275944
 30
0.0
 10
101.283572
 20
78.275944
 30
0.0
 10
101.283572
 20
79.135319
 30
0.0
 10
101.283572
 20
79.994693
 30
0.0
 10
100.424943
 20
79.994693
 30
0.0
 10
99.566313
 20
79.994693
 30
0.0
 10
99.555813
 20
80.863834
 30
0.0
 10
99.545313
 20
81.732974
 30
0.0
 10
98.676174
 20
81.743484
 30
0.0
 10
97.807034
 20
81.753994
 30
0.0
 10
97.807034
 20
82.612621
 30
0.0
 10
97.807034
 20
83.471248
 30
0.0
 10
96.947655
 20
83.471248
 30
0.0
 10
96.088285
 20
83.471248
 30
0.0
 10
96.088285
 20
82.612621
 30
0.0
 10
96.088285
 20
81.753994
 30
0.0
 10
95.219146
 20
81.743484
 30
0.0
 10
94.350006
 20
81.732974
 30
0.0
 10
94.339496
 20
80.863834
 30
0.0
 10
94.328986
 20
79.994693
 30
0.0
 10
93.470359
 20
79.994693
 30
0.0
 10
92.611732
 20
79.994693
 30
0.0
 10
92.611732
 20
79.135319
 30
0.0
 10
92.611732
 20
78.275944
 30
0.0
 10
91.732826
 20
78.275944
 30
0.0
 10
90.853921
 20
78.275944
 30
0.0
  0
LWPOLYLINE
  5
29d
100
AcDbEntity
  8
Lag_1
 62
7
100
AcDbPolyline
 90
8
 70
1
 10
104.790160
 20
80.863836
 30
0.0
 10
104.779660
 20
81.732976
 30
0.0
 10
103.910520
 20
81.743486
 30
0.0
 10
103.041381
 20
81.753996
 30
0.0
 10
103.041381
 20
80.874343
 30
0.0
 10
103.041381
 20
79.994689
 30
0.0
 10
103.921040
 20
79.994689
 30
0.0
 10
104.800690
 20
79.994689
 30
0.0
  0
LWPOLYLINE
  5
29e
100
AcDbEntity
  8
Lag_1
 62
7
100
AcDbPolyline
 90
96
 70
1
 10
104.799160
 20
85.209130
 30
0.0
 10
104.799160
 20
86.947004
 30
0.0
 10
106.527678
 20
86.957174
 30
0.0
 10
108.256197
 20
86.967344
 30
0.0
 10
108.256197
 20
87.826718
 30
0.0
 10
108.256197
 20
88.686092
 30
0.0
 10
106.527678
 20
88.696262
 30
0.0
 10
104.799160
 20
88.706432
 30
0.0
 10
104.799160
 20
89.564994
 30
0.0
 10
104.799160
 20
90.423556
 30
0.0
 10
106.527678
 20
90.433726
 30
0.0
 10
108.256197
 20
90.443896
 30
0.0
 10
108.256197
 20
93.041551
 30
0.0
 10
108.256197
 20
95.639206
 30
0.0
 10
105.648769
 20
95.649246
 30
0.0
 10
103.041351
 20
95.659286
 30
0.0
 10
103.041351
 20
94.780103
 30
0.0
 10
103.041351
 20
93.900920
 30
0.0
 10
103.900730
 20
93.900920
 30
0.0
 10
104.760100
 20
93.900920
 30
0.0
 10
104.760100
 20
93.041546
 30
0.0
 10
104.760100
 20
92.182171
 30
0.0
 10
103.021821
 20
92.182171
 30
0.0
 10
101.283542
 20
92.182171
 30
0.0
 10
101.283542
 20
93.041546
 30
0.0
 10
101.283542
 20
93.900920
 30
0.0
 10
100.424163
 20
93.900920
 30
0.0
 10
99.564793
 20
93.900920
 30
0.0
 10
99.564793
 20
94.779826
 30
0.0
 10
99.564793
 20
95.658732
 30
0.0
 10
96.947605
 20
95.658732
 30
0.0
 10
94.330421
 20
95.658732
 30
0.0
 10
94.330421
 20
96.518106
 30
0.0
 10
94.330421
 20
97.377481
 30
0.0
 10
95.209326
 20
97.377481
 30
0.0
 10
96.088235
 20
97.377481
 30
0.0
 10
96.088235
 20
98.256386
 30
0.0
 10
96.088235
 20
99.135291
 30
0.0
 10
96.947605
 20
99.135291
 30
0.0
 10
97.806984
 20
99.135291
 30
0.0
 10
97.806984
 20
99.994666
 30
0.0
 10
97.806984
 20
100.854040
 30
0.0
 10
96.947605
 20
100.854040
 30
0.0
 10
96.088235
 20
100.854040
 30
0.0
 10
96.088235
 20
99.994666
 30
0.0
 10
96.088235
 20
99.135291
 30
0.0
 10
93.471046
 20
99.135291
 30
0.0
 10
90.853861
 20
99.135291
 30
0.0
 10
90.853861
 20
98.256386
 30
0.0
 10
90.853861
 20
97.377481
 30
0.0
 10
89.994497
 20
97.377481
 30
0.0
 10
89.135122
 20
97.377481
 30
0.0
 10
89.135122
 20
98.256402
 30
0.0
 10
89.135122
 20
99.135307
 30
0.0
 10
87.396841
 20
99.135307
 30
0.0
 10
85.658561
 20
99.135307
 30
0.0
 10
85.658561
 20
98.256402
 30
0.0
 10
85.658561
 20
97.377497
 30
0.0
 10
86.517936
 20
97.377497
 30
0.0
 10
87.377310
 20
97.377497
 30
0.0
 10
87.377310
 20
96.518122
 30
0.0
 10
87.377310
 20
95.658748
 30
0.0
 10
86.517936
 20
95.658748
 30
0.0
 10
85.658561
 20
95.658748
 30
0.0
 10
85.658561
 20
94.779842
 30
0.0
 10
85.658561
 20
93.900936
 30
0.0
 10
86.517936
 20
93.900936
 30
0.0
 10
87.377310
 20
93.900936
 30
0.0
 10
87.377310
 20
94.779842
 30
0.0
 10
87.377310
 20
95.658748
 30
0.0
 10
88.256216
 20
95.658748
 30
0.0
 10
89.135122
 20
95.658748
 30
0.0
 10
89.135122
 20
93.920468
 30
0.0
 10
89.135122
 20
92.182187
 30
0.0
 10
90.873402
 20
92.182187
 30
0.0
 10
92.611682
 20
92.182187
 30
0.0
 10
92.611682
 20
91.303282
 30
0.0
 10
92.611682
 20
90.424376
 30
0.0
 10
95.209059
 20
90.424376
 30
0.0
 10
97.806434
 20
90.424376
 30
0.0
 10
97.816434
 20
87.816956
 30
0.0
 10
97.826434
 20
85.209536
 30
0.0
 10
98.685804
 20
85.209536
 30
0.0
 10
99.545183
 20
85.209536
 30
0.0
 10
99.555683
 20
86.078676
 30
0.0
 10
99.566183
 20
86.947816
 30
0.0
 10
100.424063
 20
86.947816
 30
0.0
 10
101.281942
 20
86.947816
 30
0.0
 10
101.292442
 20
86.078676
 30
0.0
 10
101.302942
 20
85.209536
 30
0.0
 10
102.172081
 20
85.199026
 30
0.0
 10
103.041221
 20
85.188516
 30
0.0
 10
103.041221
 20
84.329889
 30
0.0
 10
103.041221
 20
83.471262
 30
0.0
 10
103.920130
 20
83.471262
 30
0.0
 10
104.799030
 20
83.471262
 30
0.0
  0
LWPOLYLINE
  5
29f
100
AcDbEntity
  8
Lag_1
 62
7
100
AcDbPolyline
 90
8
 70
1
 10
103.041351
 20
87.826722
 30
0.0
 10
103.041351
 20
88.705627
 30
0.0
 10
103.900730
 20
88.705627
 30
0.0
 10
104.760100
 20
88.705627
 30
0.0
 10
104.760100
 20
87.826722
 30
0.0
 10
104.760100
 20
86.947816
 30
0.0
 10
103.900730
 20
86.947816
 30
0.0
 10
103.041351
 20
86.947816
 30
0.0
  0
LWPOLYLINE
  5
2a0
100
AcDbEntity
  8
Lag_1
 62
7
100
AcDbPolyline
 90
24
 70
1
 10
97.806984
 20
91.303282
 30
0.0
 10
97.806984
 20
92.182187
 30
0.0
 10
96.068705
 20
92.182187
 30
0.0
 10
94.330421
 20
92.182187
 30
0.0
 10
94.330421
 20
93.041562
 30
0.0
 10
94.330421
 20
93.900936
 30
0.0
 10
92.592141
 20
93.900936
 30
0.0
 10
90.853861
 20
93.900936
 30
0.0
 10
90.853861
 20
94.779842
 30
0.0
 10
90.853861
 20
95.658748
 30
0.0
 10
92.592141
 20
95.658748
 30
0.0
 10
94.330421
 20
95.658748
 30
0.0
 10
94.330421
 20
94.779842
 30
0.0
 10
94.330421
 20
93.900936
 30
0.0
 10
96.947605
 20
93.900936
 30
0.0
 10
99.564793
 20
93.900936
 30
0.0
 10
99.564793
 20
93.041562
 30
0.0
 10
99.564793
 20
92.182187
 30
0.0
 10
100.424163
 20
92.182187
 30
0.0
 10
101.283542
 20
92.182187
 30
0.0
 10
101.283542
 20
91.303282
 30
0.0
 10
101.283542
 20
90.424376
 30
0.0
 10
99.545263
 20
90.424376
 30
0.0
 10
97.806984
 20
90.424376
 30
0.0
  0
LWPOLYLINE
  5
2a1
100
AcDbEntity
  8
Lag_1
 62
7
100
AcDbPolyline
 90
8
 70
1
 10
108.256197
 20
98.256402
 30
0.0
 10
108.256197
 20
99.115776
 30
0.0
 10
105.648769
 20
99.125816
 30
0.0
 10
103.041351
 20
99.135856
 30
0.0
 10
103.041351
 20
98.256397
 30
0.0
 10
103.041351
 20
97.376938
 30
0.0
 10
105.648769
 20
97.386978
 30
0.0
 10
108.256197
 20
97.397018
 30
0.0
  0
LWPOLYLINE
  5
2a2
100
AcDbEntity
  8
Lag_1
 62
7
100
AcDbPolyline
 90
20
 70
1
 10
94.330431
 20
101.732963
 30
0.0
 10
94.330431
 20
102.611868
 30
0.0
 10
95.209336
 20
102.611868
 30
0.0
 10
96.088245
 20
102.611868
 30
0.0
 10
96.088245
 20
104.350148
 30
0.0
 10
96.088245
 20
106.088428
 30
0.0
 10
95.209336
 20
106.088428
 30
0.0
 10
94.330431
 20
106.088428
 30
0.0
 10
94.330431
 20
106.967740
 30
0.0
 10
94.330431
 20
107.847052
 30
0.0
 10
92.601916
 20
107.836882
 30
0.0
 10
90.873402
 20
107.826712
 30
0.0
 10
90.863362
 20
105.219291
 30
0.0
 10
90.853322
 20
102.611871
 30
0.0
 10
91.732504
 20
102.611871
 30
0.0
 10
92.611687
 20
102.611871
 30
0.0
 10
92.611687
 20
101.732966
 30
0.0
 10
92.611687
 20
100.854059
 30
0.0
 10
93.471061
 20
100.854059
 30
0.0
 10
94.330436
 20
100.854059
 30
0.0
  0
LWPOLYLINE
  5
2a3
100
AcDbEntity
  8
Lag_1
 62
7
100
AcDbPolyline
 90
8
 70
1
 10
92.611682
 20
103.471242
 30
0.0
 10
92.611682
 20
104.330617
 30
0.0
 10
93.471056
 20
104.330617
 30
0.0
 10
94.330431
 20
104.330617
 30
0.0
 10
94.330431
 20
103.471242
 30
0.0
 10
94.330431
 20
102.611868
 30
0.0
 10
93.471056
 20
102.611868
 30
0.0
 10
92.611682
 20
102.611868
 30
0.0
  0
LWPOLYLINE
  5
2a4
100
AcDbEntity
  8
Lag_1
 62
7
100
AcDbPolyline
 90
8
 70
1
 10
96.088245
 20
79.994695
 30
0.0
 10
96.088245
 20
81.713444
 30
0.0
 10
96.947615
 20
81.713444
 30
0.0
 10
97.806994
 20
81.713444
 30
0.0
 10
97.806994
 20
79.994695
 30
0.0
 10
97.806994
 20
78.275946
 30
0.0
 10
96.947615
 20
78.275946
 30
0.0
 10
96.088245
 20
78.275946
 30
0.0
  0
LWPOLYLINE
  5
2a5
100
AcDbEntity
  8
Lag_1
 62
7
100
AcDbPolyline
 90
8
 70
1
 10
109.994486
 20
79.135321
 30
0.0
 10
109.994486
 20
79.994695
 30
0.0
 10
110.853856
 20
79.994695
 30
0.0
 10
111.713235
 20
79.994695
 30
0.0
 10
111.713235
 20
79.135321
 30
0.0
 10
111.713235
 20
78.275946
 30
0.0
 10
110.853856
 20
78.275946
 30
0.0
 10
109.994486
 20
78.275946
 30
0.0
  0
LWPOLYLINE
  5
2a6
100
AcDbEntity
  8
Lag_1
 62
7
100
AcDbPolyline
 90
8
 70
1
 10
89.135122
 20
82.611882
 30
0.0
 10
89.135122
 20
83.471256
 30
0.0
 10
89.994497
 20
83.471256
 30
0.0
 10
90.853871
 20
83.471256
 30
0.0
 10
90.853871
 20
82.611882
 30
0.0
 10
90.853871
 20
81.752507
 30
0.0
 10
89.994497
 20
81.752507
 30
0.0
 10
89.135122
 20
81.752507
 30
0.0
  0
LWPOLYLINE
  5
2a7
100
AcDbEntity
  8
Lag_1
 62
7
100
AcDbPolyline
 90
8
 70
1
 10
108.275737
 20
82.611882
 30
0.0
 10
108.275737
 20
83.471256
 30
0.0
 10
109.994486
 20
83.471256
 30
0.0
 10
111.713235
 20
83.471256
 30
0.0
 10
111.713235
 20
82.611882
 30
0.0
 10
111.713235
 20
81.752507
 30
0.0
 10
109.994486
 20
81.752507
 30
0.0
 10
108.275737
 20
81.752507
 30
0.0
  0
LWPOLYLINE
  5
2a8
100
AcDbEntity
  8
Lag_1
 62
7
100
AcDbPolyline
 90
20
 70
1
 10
76.947630
 20
93.041562
 30
0.0
 10
76.947630
 20
93.900936
 30
0.0
 10
76.088256
 20
93.900936
 30
0.0
 10
75.228881
 20
93.900936
 30
0.0
 10
75.228881
 20
96.518122
 30
0.0
 10
75.228881
 20
99.135307
 30
0.0
 10
76.947630
 20
99.135307
 30
0.0
 10
78.666379
 20
99.135307
 30
0.0
 10
78.666379
 20
97.397028
 30
0.0
 10
78.666379
 20
95.658748
 30
0.0
 10
77.807005
 20
95.658748
 30
0.0
 10
76.947630
 20
95.658748
 30
0.0
 10
76.947630
 20
94.779842
 30
0.0
 10
76.947630
 20
93.900936
 30
0.0
 10
77.807005
 20
93.900936
 30
0.0
 10
78.666379
 20
93.900936
 30
0.0
 10
78.666379
 20
93.041562
 30
0.0
 10
78.666379
 20
92.182187
 30
0.0
 10
77.807005
 20
92.182187
 30
0.0
 10
76.947630
 20
92.182187
 30
0.0
  0
LWPOLYLINE
  5
2a9
100
AcDbEntity
  8
Lag_1
 62
7
100
AcDbPolyline
 90
8
 70
1
 10
78.705441
 20
99.994682
 30
0.0
 10
78.705441
 20
100.854056
 30
0.0
 10
79.564816
 20
100.854056
 30
0.0
 10
80.424190
 20
100.854056
 30
0.0
 10
80.424190
 20
99.994682
 30
0.0
 10
80.424190
 20
99.135307
 30
0.0
 10
79.564816
 20
99.135307
 30
0.0
 10
78.705441
 20
99.135307
 30
0.0
  0
LWPOLYLINE
  5
2aa
100
AcDbEntity
  8
Lag_1
 62
7
100
AcDbPolyline
 90
8
 70
1
 10
75.228881
 20
108.686083
 30
0.0
 10
75.228881
 20
114.760297
 30
0.0
 10
81.303095
 20
114.760297
 30
0.0
 10
87.377310
 20
114.760297
 30
0.0
 10
87.377310
 20
108.686083
 30
0.0
 10
87.377310
 20
102.611868
 30
0.0
 10
81.303095
 20
102.611868
 30
0.0
 10
75.228881
 20
102.611868
 30
0.0
  0
LWPOLYLINE
  5
2ab
100
AcDbEntity
  8
Lag_1
 62
7
100
AcDbPolyline
 90
8
 70
1
 10
85.658561
 20
108.686083
 30
0.0
 10
85.658561
 20
113.041548
 30
0.0
 10
81.303095
 20
113.041548
 30
0.0
 10
76.947630
 20
113.041548
 30
0.0
 10
76.947630
 20
108.686083
 30
0.0
 10
76.947630
 20
104.330617
 30
0.0
 10
81.303095
 20
104.330617
 30
0.0
 10
85.658561
 20
104.330617
 30
0.0
  0
LWPOLYLINE
  5
2ac
100
AcDbEntity
  8
Lag_1
 62
7
100
AcDbPolyline
 90
8
 70
1
 10
78.705441
 20
108.686083
 30
0.0
 10
78.705441
 20
111.283737
 30
0.0
 10
81.303095
 20
111.283737
 30
0.0
 10
83.900751
 20
111.283737
 30
0.0
 10
83.900751
 20
108.686083
 30
0.0
 10
83.900751
 20
106.088428
 30
0.0
 10
81.303095
 20
106.088428
 30
0.0
 10
78.705441
 20
106.088428
 30
0.0
  0
LWPOLYLINE
  5
2ad
100
AcDbEntity
  8
Lag_1
 62
7
100
AcDbPolyline
 90
8
 70
1
 10
99.564803
 20
108.686083
 30
0.0
 10
99.564803
 20
114.760297
 30
0.0
 10
105.639019
 20
114.760297
 30
0.0
 10
111.713235
 20
114.760297
 30
0.0
 10
111.713235
 20
108.686083
 30
0.0
 10
111.713235
 20
102.611868
 30
0.0
 10
105.639019
 20
102.611868
 30
0.0
 10
99.564803
 20
102.611868
 30
0.0
  0
LWPOLYLINE
  5
2ae
100
AcDbEntity
  8
Lag_1
 62
7
100
AcDbPolyline
 90
8
 70
1
 10
109.994486
 20
108.686083
 30
0.0
 10
109.994486
 20
113.041548
 30
0.0
 10
105.639019
 20
113.041548
 30
0.0
 10
101.283552
 20
113.041548
 30
0.0
 10
101.283552
 20
108.686083
 30
0.0
 10
101.283552
 20
104.330617
 30
0.0
 10
105.639019
 20
104.330617
 30
0.0
 10
109.994486
 20
104.330617
 30
0.0
  0
LWPOLYLINE
  5
2af
100
AcDbEntity
  8
Lag_1
 62
7
100
AcDbPolyline
 90
8
 70
1
 10
103.041361
 20
108.686083
 30
0.0
 10
103.041361
 20
111.283737
 30
0.0
 10
105.639019
 20
111.283737
 30
0.0
 10
108.236667
 20
111.283737
 30
0.0
 10
108.236667
 20
108.686083
 30
0.0
 10
108.236667
 20
106.088428
 30
0.0
 10
105.639019
 20
106.088428
 30
0.0
 10
103.041361
 20
106.088428
 30
0.0
  0
LWPOLYLINE
  5
2b0
100
AcDbEntity
  8
Lag_1
 62
7
100
AcDbPolyline
 90
8
 70
1
 10
132.343531
 20
84.423173
 30
0.0
 10
132.343531
 20
90.497388
 30
0.0
 10
138.417747
 20
90.497388
 30
0.0
 10
144.491963
 20
90.497388
 30
0.0
 10
144.491963
 20
84.423173
 30
0.0
 10
144.491963
 20
78.348959
 30
0.0
 10
138.417747
 20
78.348959
 30
0.0
 10
132.343531
 20
78.348959
 30
0.0
  0
LWPOLYLINE
  5
2b1
100
AcDbEntity
  8
Lag_1
 62
7
100
AcDbPolyline
 90
8
 70
1
 10
142.773214
 20
84.423173
 30
0.0
 10
142.773214
 20
88.778639
 30
0.0
 10
138.417747
 20
88.778639
 30
0.0
 10
134.062280
 20
88.778639
 30
0.0
 10
134.062280
 20
84.423173
 30
0.0
 10
134.062280
 20
80.067708
 30
0.0
 10
138.417747
 20
80.067708
 30
0.0
 10
142.773214
 20
80.067708
 30
0.0
  0
LWPOLYLINE
  5
2b2
100
AcDbEntity
  8
Lag_1
 62
7
100
AcDbPolyline
 90
8
 70
1
 10
135.820089
 20
84.423173
 30
0.0
 10
135.820089
 20
87.020829
 30
0.0
 10
138.417747
 20
87.020829
 30
0.0
 10
141.015405
 20
87.020829
 30
0.0
 10
141.015405
 20
84.423173
 30
0.0
 10
141.015405
 20
81.825519
 30
0.0
 10
138.417747
 20
81.825519
 30
0.0
 10
135.820089
 20
81.825519
 30
0.0
  0
LWPOLYLINE
  5
2b3
100
AcDbEntity
  8
Lag_1
 62
7
100
AcDbPolyline
 90
140
 70
1
 10
147.968521
 20
79.208334
 30
0.0
 10
147.968521
 20
80.067708
 30
0.0
 10
148.847430
 20
80.067708
 30
0.0
 10
149.726329
 20
80.067708
 30
0.0
 10
149.726329
 20
81.805988
 30
0.0
 10
149.726329
 20
83.544268
 30
0.0
 10
151.464618
 20
83.544268
 30
0.0
 10
153.202897
 20
83.544268
 30
0.0
 10
153.202897
 20
85.282548
 30
0.0
 10
153.202897
 20
87.020829
 30
0.0
 10
152.323988
 20
87.020829
 30
0.0
 10
151.445078
 20
87.020829
 30
0.0
 10
151.445078
 20
87.899734
 30
0.0
 10
151.445078
 20
88.778639
 30
0.0
 10
150.585709
 20
88.778639
 30
0.0
 10
149.726329
 20
88.778639
 30
0.0
 10
149.726329
 20
87.040360
 30
0.0
 10
149.726329
 20
85.302080
 30
0.0
 10
148.847430
 20
85.302080
 30
0.0
 10
147.968521
 20
85.302080
 30
0.0
 10
147.968521
 20
86.161454
 30
0.0
 10
147.968521
 20
87.020829
 30
0.0
 10
147.109151
 20
87.020829
 30
0.0
 10
146.249772
 20
87.020829
 30
0.0
 10
146.249772
 20
89.638014
 30
0.0
 10
146.249772
 20
92.255200
 30
0.0
 10
144.511493
 20
92.255200
 30
0.0
 10
142.773214
 20
92.255200
 30
0.0
 10
142.773214
 20
93.114574
 30
0.0
 10
142.773214
 20
93.973949
 30
0.0
 10
139.296656
 20
93.973949
 30
0.0
 10
135.820089
 20
93.973949
 30
0.0
 10
135.820089
 20
94.852854
 30
0.0
 10
135.820089
 20
95.731760
 30
0.0
 10
136.679468
 20
95.731760
 30
0.0
 10
137.538838
 20
95.731760
 30
0.0
 10
137.538838
 20
96.590387
 30
0.0
 10
137.538838
 20
97.449014
 30
0.0
 10
138.407987
 20
97.459524
 30
0.0
 10
139.277126
 20
97.470034
 30
0.0
 10
139.287626
 20
98.339174
 30
0.0
 10
139.298126
 20
99.208314
 30
0.0
 10
140.156756
 20
99.208314
 30
0.0
 10
141.015385
 20
99.208314
 30
0.0
 10
141.015385
 20
100.067689
 30
0.0
 10
141.015385
 20
100.927063
 30
0.0
 10
144.491943
 20
100.927063
 30
0.0
 10
147.968501
 20
100.927063
 30
0.0
 10
147.968501
 20
101.805969
 30
0.0
 10
147.968501
 20
102.684874
 30
0.0
 10
147.109131
 20
102.684874
 30
0.0
 10
146.249752
 20
102.684874
 30
0.0
 10
146.249752
 20
107.899715
 30
0.0
 10
146.249752
 20
113.114555
 30
0.0
 10
147.109131
 20
113.114555
 30
0.0
 10
147.968501
 20
113.114555
 30
0.0
 10
147.968501
 20
113.973929
 30
0.0
 10
147.968501
 20
114.833304
 30
0.0
 10
149.706779
 20
114.833304
 30
0.0
 10
151.445058
 20
114.833304
 30
0.0
 10
151.445058
 20
113.973929
 30
0.0
 10
151.445058
 20
113.114555
 30
0.0
 10
152.323968
 20
113.114555
 30
0.0
 10
153.202877
 20
113.114555
 30
0.0
 10
153.202877
 20
113.973929
 30
0.0
 10
153.202877
 20
114.833304
 30
0.0
 10
154.062247
 20
114.833304
 30
0.0
 10
154.921626
 20
114.833304
 30
0.0
 10
154.921626
 20
113.973929
 30
0.0
 10
154.921626
 20
113.114555
 30
0.0
 10
154.062247
 20
113.114555
 30
0.0
 10
153.202877
 20
113.114555
 30
0.0
 10
153.202877
 20
109.637994
 30
0.0
 10
153.202877
 20
106.161435
 30
0.0
 10
154.062247
 20
106.161435
 30
0.0
 10
154.921626
 20
106.161435
 30
0.0
 10
154.921626
 20
103.544248
 30
0.0
 10
154.921626
 20
100.927063
 30
0.0
 10
155.800525
 20
100.927063
 30
0.0
 10
156.679435
 20
100.927063
 30
0.0
 10
156.679435
 20
98.329408
 30
0.0
 10
156.679435
 20
95.731754
 30
0.0
 10
157.538804
 20
95.731754
 30
0.0
 10
158.398184
 20
95.731754
 30
0.0
 10
158.398184
 20
98.329414
 30
0.0
 10
158.398184
 20
100.927069
 30
0.0
 10
162.753651
 20
100.927069
 30
0.0
 10
167.109118
 20
100.927069
 30
0.0
 10
167.109118
 20
100.067695
 30
0.0
 10
167.109118
 20
99.208320
 30
0.0
 10
167.968487
 20
99.208320
 30
0.0
 10
168.827867
 20
99.208320
 30
0.0
 10
168.827867
 20
97.470040
 30
0.0
 10
168.827867
 20
95.731760
 30
0.0
 10
167.968487
 20
95.731760
 30
0.0
 10
167.109118
 20
95.731760
 30
0.0
 10
167.109118
 20
94.852854
 30
0.0
 10
167.109118
 20
93.973949
 30
0.0
 10
167.968487
 20
93.973949
 30
0.0
 10
168.827867
 20
93.973949
 30
0.0
 10
168.827867
 20
89.638420
 30
0.0
 10
168.827867
 20
85.302892
 30
0.0
 10
167.099348
 20
85.292722
 30
0.0
 10
165.370839
 20
85.282552
 30
0.0
 10
165.360339
 20
84.413412
 30
0.0
 10
165.349839
 20
83.544272
 30
0.0
 10
164.491210
 20
83.544272
 30
0.0
 10
163.632580
 20
83.544272
 30
0.0
 10
163.632580
 20
82.665366
 30
0.0
 10
163.632580
 20
81.786461
 30
0.0
 10
164.491960
 20
81.786461
 30
0.0
 10
165.351329
 20
81.786461
 30
0.0
 10
165.351329
 20
80.067712
 30
0.0
 10
165.351329
 20
78.348963
 30
0.0
 10
161.874771
 20
78.348963
 30
0.0
 10
158.398214
 20
78.348963
 30
0.0
 10
158.398214
 20
79.208338
 30
0.0
 10
158.398214
 20
80.067712
 30
0.0
 10
157.539584
 20
80.067712
 30
0.0
 10
156.680955
 20
80.067712
 30
0.0
 10
156.670455
 20
80.936852
 30
0.0
 10
156.659955
 20
81.805992
 30
0.0
 10
155.790815
 20
81.816502
 30
0.0
 10
154.921676
 20
81.827012
 30
0.0
 10
154.921676
 20
82.685638
 30
0.0
 10
154.921676
 20
83.544266
 30
0.0
 10
154.062297
 20
83.544266
 30
0.0
 10
153.202927
 20
83.544266
 30
0.0
 10
153.202927
 20
82.685638
 30
0.0
 10
153.202927
 20
81.827012
 30
0.0
 10
152.333788
 20
81.816502
 30
0.0
 10
151.464648
 20
81.805992
 30
0.0
 10
151.454148
 20
80.936852
 30
0.0
 10
151.443648
 20
80.067712
 30
0.0
 10
150.585019
 20
80.067712
 30
0.0
 10
149.726389
 20
80.067712
 30
0.0
 10
149.726389
 20
79.208338
 30
0.0
 10
149.726389
 20
78.348963
 30
0.0
 10
148.847490
 20
78.348963
 30
0.0
 10
147.968581
 20
78.348963
 30
0.0
  0
LWPOLYLINE
  5
2b4
100
AcDbEntity
  8
Lag_1
 62
7
100
AcDbPolyline
 90
8
 70
1
 10
161.904811
 20
80.936848
 30
0.0
 10
161.894311
 20
81.805988
 30
0.0
 10
161.025172
 20
81.816498
 30
0.0
 10
160.156032
 20
81.827008
 30
0.0
 10
160.156032
 20
80.947355
 30
0.0
 10
160.156032
 20
80.067702
 30
0.0
 10
161.035692
 20
80.067702
 30
0.0
 10
161.915341
 20
80.067702
 30
0.0
  0
LWPOLYLINE
  5
2b5
100
AcDbEntity
  8
Lag_1
 62
7
100
AcDbPolyline
 90
96
 70
1
 10
161.913811
 20
85.282142
 30
0.0
 10
161.913811
 20
87.020016
 30
0.0
 10
163.642330
 20
87.030186
 30
0.0
 10
165.370849
 20
87.040356
 30
0.0
 10
165.370849
 20
87.899730
 30
0.0
 10
165.370849
 20
88.759104
 30
0.0
 10
163.642330
 20
88.769274
 30
0.0
 10
161.913811
 20
88.779444
 30
0.0
 10
161.913811
 20
89.638007
 30
0.0
 10
161.913811
 20
90.496568
 30
0.0
 10
163.642330
 20
90.506738
 30
0.0
 10
165.370849
 20
90.516908
 30
0.0
 10
165.370849
 20
93.114563
 30
0.0
 10
165.370849
 20
95.712218
 30
0.0
 10
162.763421
 20
95.722258
 30
0.0
 10
160.156002
 20
95.732298
 30
0.0
 10
160.156002
 20
94.853115
 30
0.0
 10
160.156002
 20
93.973933
 30
0.0
 10
161.015382
 20
93.973933
 30
0.0
 10
161.874751
 20
93.973933
 30
0.0
 10
161.874751
 20
93.114558
 30
0.0
 10
161.874751
 20
92.255184
 30
0.0
 10
160.136472
 20
92.255184
 30
0.0
 10
158.398194
 20
92.255184
 30
0.0
 10
158.398194
 20
93.114558
 30
0.0
 10
158.398194
 20
93.973933
 30
0.0
 10
157.538814
 20
93.973933
 30
0.0
 10
156.679445
 20
93.973933
 30
0.0
 10
156.679445
 20
94.852838
 30
0.0
 10
156.679445
 20
95.731744
 30
0.0
 10
154.062257
 20
95.731744
 30
0.0
 10
151.445068
 20
95.731744
 30
0.0
 10
151.445068
 20
96.591118
 30
0.0
 10
151.445068
 20
97.450493
 30
0.0
 10
152.323978
 20
97.450493
 30
0.0
 10
153.202887
 20
97.450493
 30
0.0
 10
153.202887
 20
98.329414
 30
0.0
 10
153.202887
 20
99.208320
 30
0.0
 10
154.062257
 20
99.208320
 30
0.0
 10
154.921636
 20
99.208320
 30
0.0
 10
154.921636
 20
100.067695
 30
0.0
 10
154.921636
 20
100.927069
 30
0.0
 10
154.062257
 20
100.927069
 30
0.0
 10
153.202887
 20
100.927069
 30
0.0
 10
153.202887
 20
100.067695
 30
0.0
 10
153.202887
 20
99.208320
 30
0.0
 10
150.585699
 20
99.208320
 30
0.0
 10
147.968511
 20
99.208320
 30
0.0
 10
147.968511
 20
98.329414
 30
0.0
 10
147.968511
 20
97.450509
 30
0.0
 10
147.109141
 20
97.450509
 30
0.0
 10
146.249762
 20
97.450509
 30
0.0
 10
146.249762
 20
98.329414
 30
0.0
 10
146.249762
 20
99.208320
 30
0.0
 10
144.511483
 20
99.208320
 30
0.0
 10
142.773204
 20
99.208320
 30
0.0
 10
142.773204
 20
98.329414
 30
0.0
 10
142.773204
 20
97.450509
 30
0.0
 10
143.632574
 20
97.450509
 30
0.0
 10
144.491953
 20
97.450509
 30
0.0
 10
144.491953
 20
96.591134
 30
0.0
 10
144.491953
 20
95.731760
 30
0.0
 10
143.632574
 20
95.731760
 30
0.0
 10
142.773204
 20
95.731760
 30
0.0
 10
142.773204
 20
94.852854
 30
0.0
 10
142.773204
 20
93.973949
 30
0.0
 10
143.632574
 20
93.973949
 30
0.0
 10
144.491953
 20
93.973949
 30
0.0
 10
144.491953
 20
94.852854
 30
0.0
 10
144.491953
 20
95.731760
 30
0.0
 10
145.370862
 20
95.731760
 30
0.0
 10
146.249762
 20
95.731760
 30
0.0
 10
146.249762
 20
93.993480
 30
0.0
 10
146.249762
 20
92.255200
 30
0.0
 10
147.988041
 20
92.255200
 30
0.0
 10
149.726319
 20
92.255200
 30
0.0
 10
149.726319
 20
91.376294
 30
0.0
 10
149.726319
 20
90.497388
 30
0.0
 10
152.323698
 20
90.497388
 30
0.0
 10
154.921076
 20
90.497388
 30
0.0
 10
154.931076
 20
87.889968
 30
0.0
 10
154.941076
 20
85.282548
 30
0.0
 10
155.800445
 20
85.282548
 30
0.0
 10
156.659825
 20
85.282548
 30
0.0
 10
156.670325
 20
86.151688
 30
0.0
 10
156.680825
 20
87.020829
 30
0.0
 10
157.538704
 20
87.020829
 30
0.0
 10
158.396594
 20
87.020829
 30
0.0
 10
158.407094
 20
86.151688
 30
0.0
 10
158.417594
 20
85.282548
 30
0.0
 10
159.286733
 20
85.272038
 30
0.0
 10
160.155872
 20
85.261528
 30
0.0
 10
160.155872
 20
84.402901
 30
0.0
 10
160.155872
 20
83.544274
 30
0.0
 10
161.034782
 20
83.544274
 30
0.0
 10
161.913681
 20
83.544274
 30
0.0
  0
LWPOLYLINE
  5
2b6
100
AcDbEntity
  8
Lag_1
 62
7
100
AcDbPolyline
 90
8
 70
1
 10
160.156002
 20
87.899734
 30
0.0
 10
160.156002
 20
88.778639
 30
0.0
 10
161.015382
 20
88.778639
 30
0.0
 10
161.874751
 20
88.778639
 30
0.0
 10
161.874751
 20
87.899734
 30
0.0
 10
161.874751
 20
87.020829
 30
0.0
 10
161.015382
 20
87.020829
 30
0.0
 10
160.156002
 20
87.020829
 30
0.0
  0
LWPOLYLINE
  5
2b7
100
AcDbEntity
  8
Lag_1
 62
7
100
AcDbPolyline
 90
24
 70
1
 10
154.921636
 20
91.376294
 30
0.0
 10
154.921636
 20
92.255200
 30
0.0
 10
153.183357
 20
92.255200
 30
0.0
 10
151.445068
 20
92.255200
 30
0.0
 10
151.445068
 20
93.114574
 30
0.0
 10
151.445068
 20
93.973949
 30
0.0
 10
149.706789
 20
93.973949
 30
0.0
 10
147.968511
 20
93.973949
 30
0.0
 10
147.968511
 20
94.852854
 30
0.0
 10
147.968511
 20
95.731760
 30
0.0
 10
149.706789
 20
95.731760
 30
0.0
 10
151.445068
 20
95.731760
 30
0.0
 10
151.445068
 20
94.852854
 30
0.0
 10
151.445068
 20
93.973949
 30
0.0
 10
154.062257
 20
93.973949
 30
0.0
 10
156.679445
 20
93.973949
 30
0.0
 10
156.679445
 20
93.114574
 30
0.0
 10
156.679445
 20
92.255200
 30
0.0
 10
157.538814
 20
92.255200
 30
0.0
 10
158.398194
 20
92.255200
 30
0.0
 10
158.398194
 20
91.376294
 30
0.0
 10
158.398194
 20
90.497388
 30
0.0
 10
156.659915
 20
90.497388
 30
0.0
 10
154.921636
 20
90.497388
 30
0.0
  0
LWPOLYLINE
  5
2b8
100
AcDbEntity
  8
Lag_1
 62
7
100
AcDbPolyline
 90
8
 70
1
 10
165.370849
 20
98.329414
 30
0.0
 10
165.370849
 20
99.188788
 30
0.0
 10
162.763421
 20
99.198828
 30
0.0
 10
160.156002
 20
99.208868
 30
0.0
 10
160.156002
 20
98.329409
 30
0.0
 10
160.156002
 20
97.449950
 30
0.0
 10
162.763421
 20
97.459990
 30
0.0
 10
165.370849
 20
97.470030
 30
0.0
  0
LWPOLYLINE
  5
2b9
100
AcDbEntity
  8
Lag_1
 62
7
100
AcDbPolyline
 90
20
 70
1
 10
151.445068
 20
101.805975
 30
0.0
 10
151.445068
 20
102.684880
 30
0.0
 10
152.323978
 20
102.684880
 30
0.0
 10
153.202887
 20
102.684880
 30
0.0
 10
153.202887
 20
104.423160
 30
0.0
 10
153.202887
 20
106.161441
 30
0.0
 10
152.323978
 20
106.161441
 30
0.0
 10
151.445068
 20
106.161441
 30
0.0
 10
151.445068
 20
107.040752
 30
0.0
 10
151.445068
 20
107.920064
 30
0.0
 10
149.716559
 20
107.909894
 30
0.0
 10
147.988041
 20
107.899724
 30
0.0
 10
147.978041
 20
105.292303
 30
0.0
 10
147.968041
 20
102.684883
 30
0.0
 10
148.847220
 20
102.684883
 30
0.0
 10
149.726399
 20
102.684883
 30
0.0
 10
149.726399
 20
101.805978
 30
0.0
 10
149.726399
 20
100.927072
 30
0.0
 10
150.585779
 20
100.927072
 30
0.0
 10
151.445148
 20
100.927072
 30
0.0
  0
LWPOLYLINE
  5
2ba
100
AcDbEntity
  8
Lag_1
 62
7
100
AcDbPolyline
 90
8
 70
1
 10
149.726319
 20
103.544254
 30
0.0
 10
149.726319
 20
104.403629
 30
0.0
 10
150.585699
 20
104.403629
 30
0.0
 10
151.445068
 20
104.403629
 30
0.0
 10
151.445068
 20
103.544254
 30
0.0
 10
151.445068
 20
102.684880
 30
0.0
 10
150.585699
 20
102.684880
 30
0.0
 10
149.726319
 20
102.684880
 30
0.0
  0
LWPOLYLINE
  5
2bb
100
AcDbEntity
  8
Lag_1
 62
7
100
AcDbPolyline
 90
8
 70
1
 10
153.202887
 20
80.067708
 30
0.0
 10
153.202887
 20
81.786457
 30
0.0
 10
154.062257
 20
81.786457
 30
0.0
 10
154.921636
 20
81.786457
 30
0.0
 10
154.921636
 20
80.067708
 30
0.0
 10
154.921636
 20
78.348959
 30
0.0
 10
154.062257
 20
78.348959
 30
0.0
 10
153.202887
 20
78.348959
 30
0.0
  0
LWPOLYLINE
  5
2bc
100
AcDbEntity
  8
Lag_1
 62
7
100
AcDbPolyline
 90
8
 70
1
 10
167.109128
 20
79.208334
 30
0.0
 10
167.109128
 20
80.067708
 30
0.0
 10
167.968497
 20
80.067708
 30
0.0
 10
168.827877
 20
80.067708
 30
0.0
 10
168.827877
 20
79.208334
 30
0.0
 10
168.827877
 20
78.348959
 30
0.0
 10
167.968497
 20
78.348959
 30
0.0
 10
167.109128
 20
78.348959
 30
0.0
  0
LWPOLYLINE
  5
2bd
100
AcDbEntity
  8
Lag_1
 62
7
100
AcDbPolyline
 90
8
 70
1
 10
146.249762
 20
82.684893
 30
0.0
 10
146.249762
 20
83.544268
 30
0.0
 10
147.109141
 20
83.544268
 30
0.0
 10
147.968511
 20
83.544268
 30
0.0
 10
147.968511
 20
82.684893
 30
0.0
 10
147.968511
 20
81.825519
 30
0.0
 10
147.109141
 20
81.825519
 30
0.0
 10
146.249762
 20
81.825519
 30
0.0
  0
LWPOLYLINE
  5
2be
100
AcDbEntity
  8
Lag_1
 62
7
100
AcDbPolyline
 90
8
 70
1
 10
165.390379
 20
82.684893
 30
0.0
 10
165.390379
 20
83.544268
 30
0.0
 10
167.109128
 20
83.544268
 30
0.0
 10
168.827877
 20
83.544268
 30
0.0
 10
168.827877
 20
82.684893
 30
0.0
 10
168.827877
 20
81.825519
 30
0.0
 10
167.109128
 20
81.825519
 30
0.0
 10
165.390379
 20
81.825519
 30
0.0
  0
LWPOLYLINE
  5
2bf
100
AcDbEntity
  8
Lag_1
 62
7
100
AcDbPolyline
 90
20
 70
1
 10
134.062280
 20
93.114574
 30
0.0
 10
134.062280
 20
93.973949
 30
0.0
 10
133.202911
 20
93.973949
 30
0.0
 10
132.343531
 20
93.973949
 30
0.0
 10
132.343531
 20
96.591134
 30
0.0
 10
132.343531
 20
99.208320
 30
0.0
 10
134.062280
 20
99.208320
 30
0.0
 10
135.781029
 20
99.208320
 30
0.0
 10
135.781029
 20
97.470040
 30
0.0
 10
135.781029
 20
95.731760
 30
0.0
 10
134.921659
 20
95.731760
 30
0.0
 10
134.062280
 20
95.731760
 30
0.0
 10
134.062280
 20
94.852854
 30
0.0
 10
134.062280
 20
93.973949
 30
0.0
 10
134.921659
 20
93.973949
 30
0.0
 10
135.781029
 20
93.973949
 30
0.0
 10
135.781029
 20
93.114574
 30
0.0
 10
135.781029
 20
92.255200
 30
0.0
 10
134.921659
 20
92.255200
 30
0.0
 10
134.062280
 20
92.255200
 30
0.0
  0
LWPOLYLINE
  5
2c0
100
AcDbEntity
  8
Lag_1
 62
7
100
AcDbPolyline
 90
8
 70
1
 10
135.820089
 20
100.067695
 30
0.0
 10
135.820089
 20
100.927069
 30
0.0
 10
136.679468
 20
100.927069
 30
0.0
 10
137.538838
 20
100.927069
 30
0.0
 10
137.538838
 20
100.067695
 30
0.0
 10
137.538838
 20
99.208320
 30
0.0
 10
136.679468
 20
99.208320
 30
0.0
 10
135.820089
 20
99.208320
 30
0.0
  0
LWPOLYLINE
  5
2c1
100
AcDbEntity
  8
Lag_1
 62
7
100
AcDbPolyline
 90
8
 70
1
 10
132.343531
 20
108.759095
 30
0.0
 10
132.343531
 20
114.833310
 30
0.0
 10
138.417747
 20
114.833310
 30
0.0
 10
144.491963
 20
114.833310
 30
0.0
 10
144.491963
 20
108.759095
 30
0.0
 10
144.491963
 20
102.684880
 30
0.0
 10
138.417747
 20
102.684880
 30
0.0
 10
132.343531
 20
102.684880
 30
0.0
  0
LWPOLYLINE
  5
2c2
100
AcDbEntity
  8
Lag_1
 62
7
100
AcDbPolyline
 90
8
 70
1
 10
142.773214
 20
108.759095
 30
0.0
 10
142.773214
 20
113.114561
 30
0.0
 10
138.417747
 20
113.114561
 30
0.0
 10
134.062280
 20
113.114561
 30
0.0
 10
134.062280
 20
108.759095
 30
0.0
 10
134.062280
 20
104.403629
 30
0.0
 10
138.417747
 20
104.403629
 30
0.0
 10
142.773214
 20
104.403629
 30
0.0
  0
LWPOLYLINE
  5
2c3
100
AcDbEntity
  8
Lag_1
 62
7
100
AcDbPolyline
 90
8
 70
1
 10
135.820089
 20
108.759095
 30
0.0
 10
135.820089
 20
111.356749
 30
0.0
 10
138.417747
 20
111.356749
 30
0.0
 10
141.015405
 20
111.356749
 30
0.0
 10
141.015405
 20
108.759095
 30
0.0
 10
141.015405
 20
106.161441
 30
0.0
 10
138.417747
 20
106.161441
 30
0.0
 10
135.820089
 20
106.161441
 30
0.0
  0
LWPOLYLINE
  5
2c4
100
AcDbEntity
  8
Lag_1
 62
7
100
AcDbPolyline
 90
8
 70
1
 10
156.679455
 20
108.759095
 30
0.0
 10
156.679455
 20
114.833310
 30
0.0
 10
162.753671
 20
114.833310
 30
0.0
 10
168.827887
 20
114.833310
 30
0.0
 10
168.827887
 20
108.759095
 30
0.0
 10
168.827887
 20
102.684880
 30
0.0
 10
162.753671
 20
102.684880
 30
0.0
 10
156.679455
 20
102.684880
 30
0.0
  0
LWPOLYLINE
  5
2c5
100
AcDbEntity
  8
Lag_1
 62
7
100
AcDbPolyline
 90
8
 70
1
 10
167.109138
 20
108.759095
 30
0.0
 10
167.109138
 20
113.114561
 30
0.0
 10
162.753671
 20
113.114561
 30
0.0
 10
158.398204
 20
113.114561
 30
0.0
 10
158.398204
 20
108.759095
 30
0.0
 10
158.398204
 20
104.403629
 30
0.0
 10
162.753671
 20
104.403629
 30
0.0
 10
167.109138
 20
104.403629
 30
0.0
  0
SPLINE
  5
2c6
100
AcDbEntity
  8
Lag_1
 62
7
100
AcDbSpline
 70
8
 71
3
 72
8
 73
4
 74
0
 40
0
 40
0
 40
0
 40
0
 40
1
 40
1
 40
1
 40
1
 10
32.268452
 20
40.354733
 30
0.0
 10
32.268452
 20
39.940287
 30
0.0
 10
32.203340
 20
39.635910
 30
0.0
 10
32.073115
 20
39.441604
 30
0.0
  0
SPLINE
  5
2c7
100
AcDbEntity
  8
Lag_1
 62
7
100
AcDbSpline
 70
8
 71
3
 72
8
 73
4
 74
0
 40
0
 40
0
 40
0
 40
0
 40
1
 40
1
 40
1
 40
1
 10
32.073115
 20
39.441604
 30
0.0
 10
31.943925
 20
39.248337
 30
0.0
 10
31.742904
 20
39.151704
 30
0.0
 10
31.470052
 20
39.151704
 30
0.0
  0
SPLINE
  5
2c8
100
AcDbEntity
  8
Lag_1
 62
7
100
AcDbSpline
 70
8
 71
3
 72
8
 73
4
 74
0
 40
0
 40
0
 40
0
 40
0
 40
1
 40
1
 40
1
 40
1
 10
31.470052
 20
39.151704
 30
0.0
 10
31.193067
 20
39.151704
 30
0.0
 10
30.990496
 20
39.249887
 30
0.0
 10
30.862338
 20
39.446254
 30
0.0
  0
SPLINE
  5
2c9
100
AcDbEntity
  8
Lag_1
 62
7
100
AcDbSpline
 70
8
 71
3
 72
8
 73
4
 74
0
 40
0
 40
0
 40
0
 40
0
 40
1
 40
1
 40
1
 40
1
 10
30.862338
 20
39.446254
 30
0.0
 10
30.735214
 20
39.642627
 30
0.0
 10
30.671652
 20
39.944420
 30
0.0
 10
30.671652
 20
40.351633
 30
0.0
  0
SPLINE
  5
2ca
100
AcDbEntity
  8
Lag_1
 62
7
100
AcDbSpline
 70
8
 71
3
 72
8
 73
4
 74
0
 40
0
 40
0
 40
0
 40
0
 40
1
 40
1
 40
1
 40
1
 10
30.671652
 20
40.351633
 30
0.0
 10
30.671652
 20
40.761939
 30
0.0
 10
30.736248
 20
41.064762
 30
0.0
 10
30.865438
 20
41.260102
 30
0.0
  0
SPLINE
  5
2cb
100
AcDbEntity
  8
Lag_1
 62
7
100
AcDbSpline
 70
8
 71
3
 72
8
 73
4
 74
0
 40
0
 40
0
 40
0
 40
0
 40
1
 40
1
 40
1
 40
1
 10
30.865438
 20
41.260102
 30
0.0
 10
30.994630
 20
41.456469
 30
0.0
 10
31.196167
 20
41.554652
 30
0.0
 10
31.470052
 20
41.554652
 30
0.0
  0
SPLINE
  5
2cc
100
AcDbEntity
  8
Lag_1
 62
7
100
AcDbSpline
 70
8
 71
3
 72
8
 73
4
 74
0
 40
0
 40
0
 40
0
 40
0
 40
1
 40
1
 40
1
 40
1
 10
31.470052
 20
41.554652
 30
0.0
 10
31.747038
 20
41.554652
 30
0.0
 10
31.949093
 20
41.454919
 30
0.0
 10
32.076216
 20
41.255452
 30
0.0
  0
SPLINE
  5
2cd
100
AcDbEntity
  8
Lag_1
 62
7
100
AcDbSpline
 70
8
 71
3
 72
8
 73
4
 74
0
 40
0
 40
0
 40
0
 40
0
 40
1
 40
1
 40
1
 40
1
 10
32.076216
 20
41.255452
 30
0.0
 10
32.204374
 20
41.057012
 30
0.0
 10
32.268452
 20
40.756773
 30
0.0
 10
32.268452
 20
40.354733
 30
0.0
  0
LWPOLYLINE
  5
2ce
100
AcDbEntity
  8
Lag_1
 62
7
100
AcDbPolyline
 90
8
 70
1
 10
160.156012
 20
108.759095
 30
0.0
 10
160.156012
 20
111.356749
 30
0.0
 10
162.753671
 20
111.356749
 30
0.0
 10
165.351319
 20
111.356749
 30
0.0
 10
165.351319
 20
108.759095
 30
0.0
 10
165.351319
 20
106.161441
 30
0.0
 10
162.753671
 20
106.161441
 30
0.0
 10
160.156012
 20
106.161441
 30
0.0
  0
SPLINE
  5
2cf
100
AcDbEntity
  8
Lag_1
 62
7
100
AcDbSpline
 70
8
 71
3
 72
8
 73
4
 74
0
 40
0
 40
0
 40
0
 40
0
 40
1
 40
1
 40
1
 40
1
 10
31.860726
 20
39.650893
 30
0.0
 10
31.896899
 20
39.734613
 30
0.0
 10
31.921186
 20
39.832800
 30
0.0
 10
31.933586
 20
39.945453
 30
0.0
  0
SPLINE
  5
2d0
100
AcDbEntity
  8
Lag_1
 62
7
100
AcDbSpline
 70
8
 71
3
 72
8
 73
4
 74
0
 40
0
 40
0
 40
0
 40
0
 40
1
 40
1
 40
1
 40
1
 10
31.933586
 20
39.945453
 30
0.0
 10
31.947019
 20
40.059140
 30
0.0
 10
31.953736
 20
40.195566
 30
0.0
 10
31.953736
 20
40.354733
 30
0.0
  0
SPLINE
  5
2d1
100
AcDbEntity
  8
Lag_1
 62
7
100
AcDbSpline
 70
8
 71
3
 72
8
 73
4
 74
0
 40
0
 40
0
 40
0
 40
0
 40
1
 40
1
 40
1
 40
1
 10
31.953736
 20
40.354733
 30
0.0
 10
31.953736
 20
40.511826
 30
0.0
 10
31.947019
 20
40.648249
 30
0.0
 10
31.933586
 20
40.764003
 30
0.0
  0
SPLINE
  5
2d2
100
AcDbEntity
  8
Lag_1
 62
7
100
AcDbSpline
 70
8
 71
3
 72
8
 73
4
 74
0
 40
0
 40
0
 40
0
 40
0
 40
1
 40
1
 40
1
 40
1
 10
31.933586
 20
40.764003
 30
0.0
 10
31.921186
 20
40.879763
 30
0.0
 10
31.896382
 20
40.977949
 30
0.0
 10
31.859176
 20
41.058562
 30
0.0
  0
SPLINE
  5
2d3
100
AcDbEntity
  8
Lag_1
 62
7
100
AcDbSpline
 70
8
 71
3
 72
8
 73
4
 74
0
 40
0
 40
0
 40
0
 40
0
 40
1
 40
1
 40
1
 40
1
 10
31.859176
 20
41.058562
 30
0.0
 10
31.823002
 20
41.138142
 30
0.0
 10
31.773393
 20
41.198086
 30
0.0
 10
31.710348
 20
41.238392
 30
0.0
  0
SPLINE
  5
2d4
100
AcDbEntity
  8
Lag_1
 62
7
100
AcDbSpline
 70
8
 71
3
 72
8
 73
4
 74
0
 40
0
 40
0
 40
0
 40
0
 40
1
 40
1
 40
1
 40
1
 10
31.710348
 20
41.238392
 30
0.0
 10
31.648334
 20
41.278726
 30
0.0
 10
31.568236
 20
41.298892
 30
0.0
 10
31.470052
 20
41.298892
 30
0.0
  0
SPLINE
  5
2d5
100
AcDbEntity
  8
Lag_1
 62
7
100
AcDbSpline
 70
8
 71
3
 72
8
 73
4
 74
0
 40
0
 40
0
 40
0
 40
0
 40
1
 40
1
 40
1
 40
1
 10
31.470052
 20
41.298892
 30
0.0
 10
31.372901
 20
41.298892
 30
0.0
 10
31.292286
 20
41.278726
 30
0.0
 10
31.228207
 20
41.238392
 30
0.0
  0
SPLINE
  5
2d6
100
AcDbEntity
  8
Lag_1
 62
7
100
AcDbSpline
 70
8
 71
3
 72
8
 73
4
 74
0
 40
0
 40
0
 40
0
 40
0
 40
1
 40
1
 40
1
 40
1
 10
31.228207
 20
41.238392
 30
0.0
 10
31.165160
 20
41.198059
 30
0.0
 10
31.115034
 20
41.137082
 30
0.0
 10
31.077828
 20
41.055462
 30
0.0
  0
SPLINE
  5
2d7
100
AcDbEntity
  8
Lag_1
 62
7
100
AcDbSpline
 70
8
 71
3
 72
8
 73
4
 74
0
 40
0
 40
0
 40
0
 40
0
 40
1
 40
1
 40
1
 40
1
 10
31.077828
 20
41.055462
 30
0.0
 10
31.042688
 20
40.978982
 30
0.0
 10
31.018401
 20
40.879246
 30
0.0
 10
31.004968
 20
40.756253
 30
0.0
  0
SPLINE
  5
2d8
100
AcDbEntity
  8
Lag_1
 62
7
100
AcDbSpline
 70
8
 71
3
 72
8
 73
4
 74
0
 40
0
 40
0
 40
0
 40
0
 40
1
 40
1
 40
1
 40
1
 10
31.004968
 20
40.756253
 30
0.0
 10
30.992568
 20
40.633266
 30
0.0
 10
30.986368
 20
40.498393
 30
0.0
 10
30.986368
 20
40.351633
 30
0.0
  0
SPLINE
  5
2d9
100
AcDbEntity
  8
Lag_1
 62
7
100
AcDbSpline
 70
8
 71
3
 72
8
 73
4
 74
0
 40
0
 40
0
 40
0
 40
0
 40
1
 40
1
 40
1
 40
1
 10
30.986368
 20
40.351633
 30
0.0
 10
30.986368
 20
40.190400
 30
0.0
 10
30.992052
 20
40.055523
 30
0.0
 10
31.003418
 20
39.947003
 30
0.0
  0
SPLINE
  5
2da
100
AcDbEntity
  8
Lag_1
 62
7
100
AcDbSpline
 70
8
 71
3
 72
8
 73
4
 74
0
 40
0
 40
0
 40
0
 40
0
 40
1
 40
1
 40
1
 40
1
 10
31.003418
 20
39.947003
 30
0.0
 10
31.014785
 20
39.838483
 30
0.0
 10
31.039071
 20
39.741330
 30
0.0
 10
31.076278
 20
39.655543
 30
0.0
  0
SPLINE
  5
2db
100
AcDbEntity
  8
Lag_1
 62
7
100
AcDbSpline
 70
8
 71
3
 72
8
 73
4
 74
0
 40
0
 40
0
 40
0
 40
0
 40
1
 40
1
 40
1
 40
1
 10
31.076278
 20
39.655543
 30
0.0
 10
31.110385
 20
39.574930
 30
0.0
 10
31.158444
 20
39.513437
 30
0.0
 10
31.220455
 20
39.471063
 30
0.0
  0
SPLINE
  5
2dc
100
AcDbEntity
  8
Lag_1
 62
7
100
AcDbSpline
 70
8
 71
3
 72
8
 73
4
 74
0
 40
0
 40
0
 40
0
 40
0
 40
1
 40
1
 40
1
 40
1
 10
31.220455
 20
39.471063
 30
0.0
 10
31.283502
 20
39.428664
 30
0.0
 10
31.366701
 20
39.407464
 30
0.0
 10
31.470052
 20
39.407464
 30
0.0
  0
SPLINE
  5
2dd
100
AcDbEntity
  8
Lag_1
 62
7
100
AcDbSpline
 70
8
 71
3
 72
8
 73
4
 74
0
 40
0
 40
0
 40
0
 40
0
 40
1
 40
1
 40
1
 40
1
 10
31.470052
 20
39.407464
 30
0.0
 10
31.567204
 20
39.407464
 30
0.0
 10
31.647819
 20
39.427630
 30
0.0
 10
31.711898
 20
39.467963
 30
0.0
  0
SPLINE
  5
2de
100
AcDbEntity
  8
Lag_1
 62
7
100
AcDbSpline
 70
8
 71
3
 72
8
 73
4
 74
0
 40
0
 40
0
 40
0
 40
0
 40
1
 40
1
 40
1
 40
1
 10
31.711898
 20
39.467963
 30
0.0
 10
31.775978
 20
39.508297
 30
0.0
 10
31.825587
 20
39.569273
 30
0.0
 10
31.860726
 20
39.650893
 30
0.0
  0
LWPOLYLINE
  5
2df
100
AcDbEntity
  8
Lag_1
 62
7
100
AcDbPolyline
 90
1
 70
1
 10
32.268452
 20
40.354733
 30
0.0
  0
LWPOLYLINE
  5
2e0
100
AcDbEntity
  8
Lag_1
 62
7
100
AcDbPolyline
 90
1
 70
1
 10
31.860726
 20
39.650893
 30
0.0
  0
LWPOLYLINE
  5
2e1
100
AcDbEntity
  8
Lag_1
 62
7
100
AcDbPolyline
 90
12
 70
1
 10
34.263678
 20
39.199764
 30
0.0
 10
33.896259
 20
39.199764
 30
0.0
 10
33.404817
 20
39.864833
 30
0.0
 10
32.910274
 20
39.199764
 30
0.0
 10
32.570760
 20
39.199764
 30
0.0
 10
33.246687
 20
40.063273
 30
0.0
 10
32.576961
 20
40.931433
 30
0.0
 10
32.944380
 20
40.931433
 30
0.0
 10
33.432722
 20
40.277213
 30
0.0
 10
33.922614
 20
40.931433
 30
0.0
 10
34.263678
 20
40.931433
 30
0.0
 10
33.583100
 20
40.078773
 30
0.0
  0
SPLINE
  5
2e2
100
AcDbEntity
  8
Lag_1
 62
7
100
AcDbSpline
 70
8
 71
3
 72
8
 73
4
 74
0
 40
0
 40
0
 40
0
 40
0
 40
1
 40
1
 40
1
 40
1
 10
34.787677
 20
41.193432
 30
0.0
 10
34.852790
 20
41.193432
 30
0.0
 10
34.922553
 20
41.198599
 30
0.0
 10
34.996966
 20
41.208932
 30
0.0
  0
SPLINE
  5
2e3
100
AcDbEntity
  8
Lag_1
 62
7
100
AcDbSpline
 70
8
 71
3
 72
8
 73
4
 74
0
 40
0
 40
0
 40
0
 40
0
 40
1
 40
1
 40
1
 40
1
 10
34.996966
 20
41.208932
 30
0.0
 10
35.071380
 20
41.220266
 30
0.0
 10
35.127708
 20
41.236299
 30
0.0
 10
35.165948
 20
41.257032
 30
0.0
  0
SPLINE
  5
2e4
100
AcDbEntity
  8
Lag_1
 62
7
100
AcDbSpline
 70
8
 71
3
 72
8
 73
4
 74
0
 40
0
 40
0
 40
0
 40
0
 40
1
 40
1
 40
1
 40
1
 10
35.165948
 20
41.257032
 30
0.0
 10
35.213488
 20
41.282899
 30
0.0
 10
35.250695
 20
41.315466
 30
0.0
 10
35.277569
 20
41.354732
 30
0.0
  0
SPLINE
  5
2e5
100
AcDbEntity
  8
Lag_1
 62
7
100
AcDbSpline
 70
8
 71
3
 72
8
 73
4
 74
0
 40
0
 40
0
 40
0
 40
0
 40
1
 40
1
 40
1
 40
1
 10
35.277569
 20
41.354732
 30
0.0
 10
35.305476
 20
41.395066
 30
0.0
 10
35.321496
 20
41.448812
 30
0.0
 10
35.325629
 20
41.515972
 30
0.0
  0
LWPOLYLINE
  5
2e6
100
AcDbEntity
  8
Lag_1
 62
7
100
AcDbPolyline
 90
7
 70
0
 10
36.037213
 20
39.199764
 30
0.0
 10
34.787677
 20
39.199764
 30
0.0
 10
34.787677
 20
39.435404
 30
0.0
 10
35.268267
 20
39.435404
 30
0.0
 10
35.268267
 20
40.982592
 30
0.0
 10
34.787677
 20
40.982592
 30
0.0
 10
34.787677
 20
41.193432
 30
0.0
  0
SPLINE
  5
2e7
100
AcDbEntity
  8
Lag_1
 62
7
100
AcDbSpline
 70
8
 71
3
 72
8
 73
4
 74
0
 40
0
 40
0
 40
0
 40
0
 40
1
 40
1
 40
1
 40
1
 10
38.184366
 20
40.354733
 30
0.0
 10
38.184366
 20
39.940287
 30
0.0
 10
38.119254
 20
39.635910
 30
0.0
 10
37.989029
 20
39.441604
 30
0.0
  0
SPLINE
  5
2e8
100
AcDbEntity
  8
Lag_1
 62
7
100
AcDbSpline
 70
8
 71
3
 72
8
 73
4
 74
0
 40
0
 40
0
 40
0
 40
0
 40
1
 40
1
 40
1
 40
1
 10
37.989029
 20
39.441604
 30
0.0
 10
37.859839
 20
39.248337
 30
0.0
 10
37.658818
 20
39.151704
 30
0.0
 10
37.385966
 20
39.151704
 30
0.0
  0
SPLINE
  5
2e9
100
AcDbEntity
  8
Lag_1
 62
7
100
AcDbSpline
 70
8
 71
3
 72
8
 73
4
 74
0
 40
0
 40
0
 40
0
 40
0
 40
1
 40
1
 40
1
 40
1
 10
37.385966
 20
39.151704
 30
0.0
 10
37.108981
 20
39.151704
 30
0.0
 10
36.906409
 20
39.249887
 30
0.0
 10
36.778251
 20
39.446254
 30
0.0
  0
SPLINE
  5
2ea
100
AcDbEntity
  8
Lag_1
 62
7
100
AcDbSpline
 70
8
 71
3
 72
8
 73
4
 74
0
 40
0
 40
0
 40
0
 40
0
 40
1
 40
1
 40
1
 40
1
 10
36.778251
 20
39.446254
 30
0.0
 10
36.651127
 20
39.642627
 30
0.0
 10
36.587565
 20
39.944420
 30
0.0
 10
36.587565
 20
40.351633
 30
0.0
  0
SPLINE
  5
2eb
100
AcDbEntity
  8
Lag_1
 62
7
100
AcDbSpline
 70
8
 71
3
 72
8
 73
4
 74
0
 40
0
 40
0
 40
0
 40
0
 40
1
 40
1
 40
1
 40
1
 10
36.587565
 20
40.351633
 30
0.0
 10
36.587565
 20
40.761939
 30
0.0
 10
36.652161
 20
41.064762
 30
0.0
 10
36.781352
 20
41.260102
 30
0.0
  0
SPLINE
  5
2ec
100
AcDbEntity
  8
Lag_1
 62
7
100
AcDbSpline
 70
8
 71
3
 72
8
 73
4
 74
0
 40
0
 40
0
 40
0
 40
0
 40
1
 40
1
 40
1
 40
1
 10
36.781352
 20
41.260102
 30
0.0
 10
36.910544
 20
41.456469
 30
0.0
 10
37.112081
 20
41.554652
 30
0.0
 10
37.385966
 20
41.554652
 30
0.0
  0
SPLINE
  5
2ed
100
AcDbEntity
  8
Lag_1
 62
7
100
AcDbSpline
 70
8
 71
3
 72
8
 73
4
 74
0
 40
0
 40
0
 40
0
 40
0
 40
1
 40
1
 40
1
 40
1
 10
37.385966
 20
41.554652
 30
0.0
 10
37.662952
 20
41.554652
 30
0.0
 10
37.865007
 20
41.454919
 30
0.0
 10
37.992130
 20
41.255452
 30
0.0
  0
SPLINE
  5
2ee
100
AcDbEntity
  8
Lag_1
 62
7
100
AcDbSpline
 70
8
 71
3
 72
8
 73
4
 74
0
 40
0
 40
0
 40
0
 40
0
 40
1
 40
1
 40
1
 40
1
 10
37.992130
 20
41.255452
 30
0.0
 10
38.120288
 20
41.057012
 30
0.0
 10
38.184366
 20
40.756773
 30
0.0
 10
38.184366
 20
40.354733
 30
0.0
  0
LWPOLYLINE
  5
2ef
100
AcDbEntity
  8
Lag_1
 62
7
100
AcDbPolyline
 90
5
 70
0
 10
35.325629
 20
41.515972
 30
0.0
 10
35.565925
 20
41.515972
 30
0.0
 10
35.565925
 20
39.435474
 30
0.0
 10
36.037214
 20
39.435474
 30
0.0
 10
36.037213
 20
39.199764
 30
0.0
  0
SPLINE
  5
2f0
100
AcDbEntity
  8
Lag_1
 62
7
100
AcDbSpline
 70
8
 71
3
 72
8
 73
4
 74
0
 40
0
 40
0
 40
0
 40
0
 40
1
 40
1
 40
1
 40
1
 10
37.776640
 20
39.650893
 30
0.0
 10
37.812813
 20
39.734613
 30
0.0
 10
37.837100
 20
39.832800
 30
0.0
 10
37.849500
 20
39.945453
 30
0.0
  0
SPLINE
  5
2f1
100
AcDbEntity
  8
Lag_1
 62
7
100
AcDbSpline
 70
8
 71
3
 72
8
 73
4
 74
0
 40
0
 40
0
 40
0
 40
0
 40
1
 40
1
 40
1
 40
1
 10
37.849500
 20
39.945453
 30
0.0
 10
37.862933
 20
40.059140
 30
0.0
 10
37.869650
 20
40.195566
 30
0.0
 10
37.869650
 20
40.354733
 30
0.0
  0
SPLINE
  5
2f2
100
AcDbEntity
  8
Lag_1
 62
7
100
AcDbSpline
 70
8
 71
3
 72
8
 73
4
 74
0
 40
0
 40
0
 40
0
 40
0
 40
1
 40
1
 40
1
 40
1
 10
37.869650
 20
40.354733
 30
0.0
 10
37.869650
 20
40.511826
 30
0.0
 10
37.862933
 20
40.648249
 30
0.0
 10
37.849500
 20
40.764003
 30
0.0
  0
SPLINE
  5
2f3
100
AcDbEntity
  8
Lag_1
 62
7
100
AcDbSpline
 70
8
 71
3
 72
8
 73
4
 74
0
 40
0
 40
0
 40
0
 40
0
 40
1
 40
1
 40
1
 40
1
 10
37.849500
 20
40.764003
 30
0.0
 10
37.837100
 20
40.879763
 30
0.0
 10
37.812296
 20
40.977949
 30
0.0
 10
37.775090
 20
41.058562
 30
0.0
  0
SPLINE
  5
2f4
100
AcDbEntity
  8
Lag_1
 62
7
100
AcDbSpline
 70
8
 71
3
 72
8
 73
4
 74
0
 40
0
 40
0
 40
0
 40
0
 40
1
 40
1
 40
1
 40
1
 10
37.775090
 20
41.058562
 30
0.0
 10
37.738916
 20
41.138142
 30
0.0
 10
37.689307
 20
41.198086
 30
0.0
 10
37.626262
 20
41.238392
 30
0.0
  0
SPLINE
  5
2f5
100
AcDbEntity
  8
Lag_1
 62
7
100
AcDbSpline
 70
8
 71
3
 72
8
 73
4
 74
0
 40
0
 40
0
 40
0
 40
0
 40
1
 40
1
 40
1
 40
1
 10
37.626262
 20
41.238392
 30
0.0
 10
37.564248
 20
41.278726
 30
0.0
 10
37.484150
 20
41.298892
 30
0.0
 10
37.385966
 20
41.298892
 30
0.0
  0
SPLINE
  5
2f6
100
AcDbEntity
  8
Lag_1
 62
7
100
AcDbSpline
 70
8
 71
3
 72
8
 73
4
 74
0
 40
0
 40
0
 40
0
 40
0
 40
1
 40
1
 40
1
 40
1
 10
37.385966
 20
41.298892
 30
0.0
 10
37.288815
 20
41.298892
 30
0.0
 10
37.208200
 20
41.278726
 30
0.0
 10
37.144121
 20
41.238392
 30
0.0
  0
SPLINE
  5
2f7
100
AcDbEntity
  8
Lag_1
 62
7
100
AcDbSpline
 70
8
 71
3
 72
8
 73
4
 74
0
 40
0
 40
0
 40
0
 40
0
 40
1
 40
1
 40
1
 40
1
 10
37.144121
 20
41.238392
 30
0.0
 10
37.081074
 20
41.198059
 30
0.0
 10
37.030948
 20
41.137082
 30
0.0
 10
36.993742
 20
41.055462
 30
0.0
  0
SPLINE
  5
2f8
100
AcDbEntity
  8
Lag_1
 62
7
100
AcDbSpline
 70
8
 71
3
 72
8
 73
4
 74
0
 40
0
 40
0
 40
0
 40
0
 40
1
 40
1
 40
1
 40
1
 10
36.993742
 20
41.055462
 30
0.0
 10
36.958602
 20
40.978982
 30
0.0
 10
36.934316
 20
40.879246
 30
0.0
 10
36.920882
 20
40.756253
 30
0.0
  0
SPLINE
  5
2f9
100
AcDbEntity
  8
Lag_1
 62
7
100
AcDbSpline
 70
8
 71
3
 72
8
 73
4
 74
0
 40
0
 40
0
 40
0
 40
0
 40
1
 40
1
 40
1
 40
1
 10
36.920882
 20
40.756253
 30
0.0
 10
36.908482
 20
40.633266
 30
0.0
 10
36.902282
 20
40.498393
 30
0.0
 10
36.902282
 20
40.351633
 30
0.0
  0
SPLINE
  5
2fa
100
AcDbEntity
  8
Lag_1
 62
7
100
AcDbSpline
 70
8
 71
3
 72
8
 73
4
 74
0
 40
0
 40
0
 40
0
 40
0
 40
1
 40
1
 40
1
 40
1
 10
36.902282
 20
40.351633
 30
0.0
 10
36.902282
 20
40.190400
 30
0.0
 10
36.907966
 20
40.055523
 30
0.0
 10
36.919332
 20
39.947003
 30
0.0
  0
SPLINE
  5
2fb
100
AcDbEntity
  8
Lag_1
 62
7
100
AcDbSpline
 70
8
 71
3
 72
8
 73
4
 74
0
 40
0
 40
0
 40
0
 40
0
 40
1
 40
1
 40
1
 40
1
 10
36.919332
 20
39.947003
 30
0.0
 10
36.930699
 20
39.838483
 30
0.0
 10
36.954986
 20
39.741330
 30
0.0
 10
36.992192
 20
39.655543
 30
0.0
  0
SPLINE
  5
2fc
100
AcDbEntity
  8
Lag_1
 62
7
100
AcDbSpline
 70
8
 71
3
 72
8
 73
4
 74
0
 40
0
 40
0
 40
0
 40
0
 40
1
 40
1
 40
1
 40
1
 10
36.992192
 20
39.655543
 30
0.0
 10
37.026299
 20
39.574930
 30
0.0
 10
37.074358
 20
39.513437
 30
0.0
 10
37.136369
 20
39.471063
 30
0.0
  0
SPLINE
  5
2fd
100
AcDbEntity
  8
Lag_1
 62
7
100
AcDbSpline
 70
8
 71
3
 72
8
 73
4
 74
0
 40
0
 40
0
 40
0
 40
0
 40
1
 40
1
 40
1
 40
1
 10
37.136369
 20
39.471063
 30
0.0
 10
37.199416
 20
39.428664
 30
0.0
 10
37.282615
 20
39.407464
 30
0.0
 10
37.385966
 20
39.407464
 30
0.0
  0
SPLINE
  5
2fe
100
AcDbEntity
  8
Lag_1
 62
7
100
AcDbSpline
 70
8
 71
3
 72
8
 73
4
 74
0
 40
0
 40
0
 40
0
 40
0
 40
1
 40
1
 40
1
 40
1
 10
37.385966
 20
39.407464
 30
0.0
 10
37.483118
 20
39.407464
 30
0.0
 10
37.563733
 20
39.427630
 30
0.0
 10
37.627812
 20
39.467963
 30
0.0
  0
SPLINE
  5
2ff
100
AcDbEntity
  8
Lag_1
 62
7
100
AcDbSpline
 70
8
 71
3
 72
8
 73
4
 74
0
 40
0
 40
0
 40
0
 40
0
 40
1
 40
1
 40
1
 40
1
 10
37.627812
 20
39.467963
 30
0.0
 10
37.691892
 20
39.508297
 30
0.0
 10
37.741501
 20
39.569273
 30
0.0
 10
37.776640
 20
39.650893
 30
0.0
  0
LWPOLYLINE
  5
300
100
AcDbEntity
  8
Lag_1
 62
7
100
AcDbPolyline
 90
1
 70
1
 10
38.184366
 20
40.354733
 30
0.0
  0
SPLINE
  5
301
100
AcDbEntity
  8
Lag_1
 62
7
100
AcDbSpline
 70
8
 71
3
 72
8
 73
4
 74
0
 40
0
 40
0
 40
0
 40
0
 40
1
 40
1
 40
1
 40
1
 10
40.202847
 20
40.354733
 30
0.0
 10
40.202847
 20
39.940287
 30
0.0
 10
40.137735
 20
39.635910
 30
0.0
 10
40.007510
 20
39.441604
 30
0.0
  0
SPLINE
  5
302
100
AcDbEntity
  8
Lag_1
 62
7
100
AcDbSpline
 70
8
 71
3
 72
8
 73
4
 74
0
 40
0
 40
0
 40
0
 40
0
 40
1
 40
1
 40
1
 40
1
 10
40.007510
 20
39.441604
 30
0.0
 10
39.878319
 20
39.248337
 30
0.0
 10
39.677298
 20
39.151704
 30
0.0
 10
39.404447
 20
39.151704
 30
0.0
  0
SPLINE
  5
303
100
AcDbEntity
  8
Lag_1
 62
7
100
AcDbSpline
 70
8
 71
3
 72
8
 73
4
 74
0
 40
0
 40
0
 40
0
 40
0
 40
1
 40
1
 40
1
 40
1
 10
39.404447
 20
39.151704
 30
0.0
 10
39.127461
 20
39.151704
 30
0.0
 10
38.924890
 20
39.249887
 30
0.0
 10
38.796732
 20
39.446254
 30
0.0
  0
SPLINE
  5
304
100
AcDbEntity
  8
Lag_1
 62
7
100
AcDbSpline
 70
8
 71
3
 72
8
 73
4
 74
0
 40
0
 40
0
 40
0
 40
0
 40
1
 40
1
 40
1
 40
1
 10
38.796732
 20
39.446254
 30
0.0
 10
38.669608
 20
39.642627
 30
0.0
 10
38.606046
 20
39.944420
 30
0.0
 10
38.606046
 20
40.351633
 30
0.0
  0
SPLINE
  5
305
100
AcDbEntity
  8
Lag_1
 62
7
100
AcDbSpline
 70
8
 71
3
 72
8
 73
4
 74
0
 40
0
 40
0
 40
0
 40
0
 40
1
 40
1
 40
1
 40
1
 10
38.606046
 20
40.351633
 30
0.0
 10
38.606046
 20
40.761939
 30
0.0
 10
38.670642
 20
41.064762
 30
0.0
 10
38.799833
 20
41.260102
 30
0.0
  0
SPLINE
  5
306
100
AcDbEntity
  8
Lag_1
 62
7
100
AcDbSpline
 70
8
 71
3
 72
8
 73
4
 74
0
 40
0
 40
0
 40
0
 40
0
 40
1
 40
1
 40
1
 40
1
 10
38.799833
 20
41.260102
 30
0.0
 10
38.929024
 20
41.456469
 30
0.0
 10
39.130561
 20
41.554652
 30
0.0
 10
39.404447
 20
41.554652
 30
0.0
  0
SPLINE
  5
307
100
AcDbEntity
  8
Lag_1
 62
7
100
AcDbSpline
 70
8
 71
3
 72
8
 73
4
 74
0
 40
0
 40
0
 40
0
 40
0
 40
1
 40
1
 40
1
 40
1
 10
39.404447
 20
41.554652
 30
0.0
 10
39.681432
 20
41.554652
 30
0.0
 10
39.883487
 20
41.454919
 30
0.0
 10
40.010611
 20
41.255452
 30
0.0
  0
SPLINE
  5
308
100
AcDbEntity
  8
Lag_1
 62
7
100
AcDbSpline
 70
8
 71
3
 72
8
 73
4
 74
0
 40
0
 40
0
 40
0
 40
0
 40
1
 40
1
 40
1
 40
1
 10
40.010611
 20
41.255452
 30
0.0
 10
40.138768
 20
41.057012
 30
0.0
 10
40.202847
 20
40.756773
 30
0.0
 10
40.202847
 20
40.354733
 30
0.0
  0
LWPOLYLINE
  5
309
100
AcDbEntity
  8
Lag_1
 62
7
100
AcDbPolyline
 90
1
 70
1
 10
37.776640
 20
39.650893
 30
0.0
  0
SPLINE
  5
30a
100
AcDbEntity
  8
Lag_1
 62
7
100
AcDbSpline
 70
8
 71
3
 72
8
 73
4
 74
0
 40
0
 40
0
 40
0
 40
0
 40
1
 40
1
 40
1
 40
1
 10
39.795120
 20
39.650893
 30
0.0
 10
39.831294
 20
39.734613
 30
0.0
 10
39.855580
 20
39.832800
 30
0.0
 10
39.867980
 20
39.945453
 30
0.0
  0
SPLINE
  5
30b
100
AcDbEntity
  8
Lag_1
 62
7
100
AcDbSpline
 70
8
 71
3
 72
8
 73
4
 74
0
 40
0
 40
0
 40
0
 40
0
 40
1
 40
1
 40
1
 40
1
 10
39.867980
 20
39.945453
 30
0.0
 10
39.881414
 20
40.059140
 30
0.0
 10
39.888130
 20
40.195566
 30
0.0
 10
39.888130
 20
40.354733
 30
0.0
  0
SPLINE
  5
30c
100
AcDbEntity
  8
Lag_1
 62
7
100
AcDbSpline
 70
8
 71
3
 72
8
 73
4
 74
0
 40
0
 40
0
 40
0
 40
0
 40
1
 40
1
 40
1
 40
1
 10
39.888130
 20
40.354733
 30
0.0
 10
39.888130
 20
40.511826
 30
0.0
 10
39.881414
 20
40.648249
 30
0.0
 10
39.867980
 20
40.764003
 30
0.0
  0
SPLINE
  5
30d
100
AcDbEntity
  8
Lag_1
 62
7
100
AcDbSpline
 70
8
 71
3
 72
8
 73
4
 74
0
 40
0
 40
0
 40
0
 40
0
 40
1
 40
1
 40
1
 40
1
 10
39.867980
 20
40.764003
 30
0.0
 10
39.855580
 20
40.879763
 30
0.0
 10
39.830777
 20
40.977949
 30
0.0
 10
39.793570
 20
41.058562
 30
0.0
  0
SPLINE
  5
30e
100
AcDbEntity
  8
Lag_1
 62
7
100
AcDbSpline
 70
8
 71
3
 72
8
 73
4
 74
0
 40
0
 40
0
 40
0
 40
0
 40
1
 40
1
 40
1
 40
1
 10
39.793570
 20
41.058562
 30
0.0
 10
39.757397
 20
41.138142
 30
0.0
 10
39.707787
 20
41.198086
 30
0.0
 10
39.644741
 20
41.238392
 30
0.0
  0
SPLINE
  5
30f
100
AcDbEntity
  8
Lag_1
 62
7
100
AcDbSpline
 70
8
 71
3
 72
8
 73
4
 74
0
 40
0
 40
0
 40
0
 40
0
 40
1
 40
1
 40
1
 40
1
 10
39.644741
 20
41.238392
 30
0.0
 10
39.582728
 20
41.278726
 30
0.0
 10
39.502630
 20
41.298892
 30
0.0
 10
39.404447
 20
41.298892
 30
0.0
  0
SPLINE
  5
310
100
AcDbEntity
  8
Lag_1
 62
7
100
AcDbSpline
 70
8
 71
3
 72
8
 73
4
 74
0
 40
0
 40
0
 40
0
 40
0
 40
1
 40
1
 40
1
 40
1
 10
39.404447
 20
41.298892
 30
0.0
 10
39.307295
 20
41.298892
 30
0.0
 10
39.226679
 20
41.278726
 30
0.0
 10
39.162601
 20
41.238392
 30
0.0
  0
SPLINE
  5
311
100
AcDbEntity
  8
Lag_1
 62
7
100
AcDbSpline
 70
8
 71
3
 72
8
 73
4
 74
0
 40
0
 40
0
 40
0
 40
0
 40
1
 40
1
 40
1
 40
1
 10
39.162601
 20
41.238392
 30
0.0
 10
39.099554
 20
41.198059
 30
0.0
 10
39.049428
 20
41.137082
 30
0.0
 10
39.012223
 20
41.055462
 30
0.0
  0
SPLINE
  5
312
100
AcDbEntity
  8
Lag_1
 62
7
100
AcDbSpline
 70
8
 71
3
 72
8
 73
4
 74
0
 40
0
 40
0
 40
0
 40
0
 40
1
 40
1
 40
1
 40
1
 10
39.012223
 20
41.055462
 30
0.0
 10
38.977083
 20
40.978982
 30
0.0
 10
38.952796
 20
40.879246
 30
0.0
 10
38.939363
 20
40.756253
 30
0.0
  0
SPLINE
  5
313
100
AcDbEntity
  8
Lag_1
 62
7
100
AcDbSpline
 70
8
 71
3
 72
8
 73
4
 74
0
 40
0
 40
0
 40
0
 40
0
 40
1
 40
1
 40
1
 40
1
 10
38.939363
 20
40.756253
 30
0.0
 10
38.926963
 20
40.633266
 30
0.0
 10
38.920763
 20
40.498393
 30
0.0
 10
38.920763
 20
40.351633
 30
0.0
  0
SPLINE
  5
314
100
AcDbEntity
  8
Lag_1
 62
7
100
AcDbSpline
 70
8
 71
3
 72
8
 73
4
 74
0
 40
0
 40
0
 40
0
 40
0
 40
1
 40
1
 40
1
 40
1
 10
38.920763
 20
40.351633
 30
0.0
 10
38.920763
 20
40.190400
 30
0.0
 10
38.926446
 20
40.055523
 30
0.0
 10
38.937813
 20
39.947003
 30
0.0
  0
SPLINE
  5
315
100
AcDbEntity
  8
Lag_1
 62
7
100
AcDbSpline
 70
8
 71
3
 72
8
 73
4
 74
0
 40
0
 40
0
 40
0
 40
0
 40
1
 40
1
 40
1
 40
1
 10
38.937813
 20
39.947003
 30
0.0
 10
38.949180
 20
39.838483
 30
0.0
 10
38.973466
 20
39.741330
 30
0.0
 10
39.010673
 20
39.655543
 30
0.0
  0
SPLINE
  5
316
100
AcDbEntity
  8
Lag_1
 62
7
100
AcDbSpline
 70
8
 71
3
 72
8
 73
4
 74
0
 40
0
 40
0
 40
0
 40
0
 40
1
 40
1
 40
1
 40
1
 10
39.010673
 20
39.655543
 30
0.0
 10
39.044779
 20
39.574930
 30
0.0
 10
39.092838
 20
39.513437
 30
0.0
 10
39.154850
 20
39.471063
 30
0.0
  0
SPLINE
  5
317
100
AcDbEntity
  8
Lag_1
 62
7
100
AcDbSpline
 70
8
 71
3
 72
8
 73
4
 74
0
 40
0
 40
0
 40
0
 40
0
 40
1
 40
1
 40
1
 40
1
 10
39.154850
 20
39.471063
 30
0.0
 10
39.217896
 20
39.428664
 30
0.0
 10
39.301095
 20
39.407464
 30
0.0
 10
39.404447
 20
39.407464
 30
0.0
  0
SPLINE
  5
318
100
AcDbEntity
  8
Lag_1
 62
7
100
AcDbSpline
 70
8
 71
3
 72
8
 73
4
 74
0
 40
0
 40
0
 40
0
 40
0
 40
1
 40
1
 40
1
 40
1
 10
39.404447
 20
39.407464
 30
0.0
 10
39.501598
 20
39.407464
 30
0.0
 10
39.582214
 20
39.427630
 30
0.0
 10
39.646292
 20
39.467963
 30
0.0
  0
SPLINE
  5
319
100
AcDbEntity
  8
Lag_1
 62
7
100
AcDbSpline
 70
8
 71
3
 72
8
 73
4
 74
0
 40
0
 40
0
 40
0
 40
0
 40
1
 40
1
 40
1
 40
1
 10
39.646292
 20
39.467963
 30
0.0
 10
39.710372
 20
39.508297
 30
0.0
 10
39.759982
 20
39.569273
 30
0.0
 10
39.795120
 20
39.650893
 30
0.0
  0
LWPOLYLINE
  5
31a
100
AcDbEntity
  8
Lag_1
 62
7
100
AcDbPolyline
 90
1
 70
1
 10
40.202847
 20
40.354733
 30
0.0
  0
LWPOLYLINE
  5
31b
100
AcDbEntity
  8
Lag_1
 62
7
100
AcDbPolyline
 90
1
 70
1
 10
39.795120
 20
39.650893
 30
0.0
  0
LWPOLYLINE
  5
31c
100
AcDbEntity
  8
Lag_1
 62
7
100
AcDbPolyline
 90
8
 70
1
 10
168.383357
 20
51.783154
 30
0.0
 10
168.383357
 20
45.708939
 30
0.0
 10
162.309141
 20
45.708939
 30
0.0
 10
156.234925
 20
45.708939
 30
0.0
 10
156.234925
 20
51.783154
 30
0.0
 10
156.234925
 20
57.857369
 30
0.0
 10
162.309141
 20
57.857369
 30
0.0
 10
168.383357
 20
57.857369
 30
0.0
  0
LWPOLYLINE
  5
31d
100
AcDbEntity
  8
Lag_1
 62
7
100
AcDbPolyline
 90
8
 70
1
 10
157.953674
 20
51.783154
 30
0.0
 10
157.953674
 20
47.427688
 30
0.0
 10
162.309141
 20
47.427688
 30
0.0
 10
166.664608
 20
47.427688
 30
0.0
 10
166.664608
 20
51.783154
 30
0.0
 10
166.664608
 20
56.138620
 30
0.0
 10
162.309141
 20
56.138620
 30
0.0
 10
157.953674
 20
56.138620
 30
0.0
  0
LWPOLYLINE
  5
31e
100
AcDbEntity
  8
Lag_1
 62
7
100
AcDbPolyline
 90
8
 70
1
 10
164.906789
 20
51.783154
 30
0.0
 10
164.906789
 20
49.185500
 30
0.0
 10
162.309141
 20
49.185500
 30
0.0
 10
159.711483
 20
49.185500
 30
0.0
 10
159.711483
 20
51.783154
 30
0.0
 10
159.711483
 20
54.380808
 30
0.0
 10
162.309141
 20
54.380808
 30
0.0
 10
164.906789
 20
54.380808
 30
0.0
  0
LWPOLYLINE
  5
31f
100
AcDbEntity
  8
Lag_1
 62
7
100
AcDbPolyline
 90
140
 70
1
 10
152.758367
 20
56.997995
 30
0.0
 10
152.758367
 20
56.138620
 30
0.0
 10
151.879458
 20
56.138620
 30
0.0
 10
151.000549
 20
56.138620
 30
0.0
 10
151.000549
 20
54.400339
 30
0.0
 10
151.000549
 20
52.662060
 30
0.0
 10
149.262270
 20
52.662060
 30
0.0
 10
147.523991
 20
52.662060
 30
0.0
 10
147.523991
 20
50.923780
 30
0.0
 10
147.523991
 20
49.185500
 30
0.0
 10
148.402900
 20
49.185500
 30
0.0
 10
149.281800
 20
49.185500
 30
0.0
 10
149.281800
 20
48.306594
 30
0.0
 10
149.281800
 20
47.427688
 30
0.0
 10
150.141179
 20
47.427688
 30
0.0
 10
151.000549
 20
47.427688
 30
0.0
 10
151.000549
 20
49.165968
 30
0.0
 10
151.000549
 20
50.904249
 30
0.0
 10
151.879458
 20
50.904249
 30
0.0
 10
152.758367
 20
50.904249
 30
0.0
 10
152.758367
 20
50.044874
 30
0.0
 10
152.758367
 20
49.185500
 30
0.0
 10
153.617737
 20
49.185500
 30
0.0
 10
154.477116
 20
49.185500
 30
0.0
 10
154.477116
 20
46.568319
 30
0.0
 10
154.477116
 20
43.951130
 30
0.0
 10
156.215395
 20
43.951130
 30
0.0
 10
157.953674
 20
43.951130
 30
0.0
 10
157.953674
 20
43.091751
 30
0.0
 10
157.953674
 20
42.232382
 30
0.0
 10
161.430232
 20
42.232382
 30
0.0
 10
164.906789
 20
42.232382
 30
0.0
 10
164.906789
 20
41.353472
 30
0.0
 10
164.906789
 20
40.474573
 30
0.0
 10
164.047420
 20
40.474573
 30
0.0
 10
163.188040
 20
40.474573
 30
0.0
 10
163.188040
 20
39.615943
 30
0.0
 10
163.188040
 20
38.757314
 30
0.0
 10
162.318901
 20
38.746814
 30
0.0
 10
161.449762
 20
38.736314
 30
0.0
 10
161.439262
 20
37.867175
 30
0.0
 10
161.428762
 20
36.998035
 30
0.0
 10
160.570132
 20
36.998035
 30
0.0
 10
159.711503
 20
36.998035
 30
0.0
 10
159.711503
 20
36.138666
 30
0.0
 10
159.711503
 20
35.279286
 30
0.0
 10
156.234945
 20
35.279286
 30
0.0
 10
152.758387
 20
35.279286
 30
0.0
 10
152.758387
 20
34.400387
 30
0.0
 10
152.758387
 20
33.521477
 30
0.0
 10
153.617757
 20
33.521477
 30
0.0
 10
154.477136
 20
33.521477
 30
0.0
 10
154.477136
 20
28.306641
 30
0.0
 10
154.477136
 20
23.091794
 30
0.0
 10
153.617757
 20
23.091794
 30
0.0
 10
152.758387
 20
23.091794
 30
0.0
 10
152.758387
 20
22.232425
 30
0.0
 10
152.758387
 20
21.373046
 30
0.0
 10
151.020109
 20
21.373046
 30
0.0
 10
149.281820
 20
21.373046
 30
0.0
 10
149.281820
 20
22.232425
 30
0.0
 10
149.281820
 20
23.091794
 30
0.0
 10
148.402920
 20
23.091794
 30
0.0
 10
147.524011
 20
23.091794
 30
0.0
 10
147.524011
 20
22.232425
 30
0.0
 10
147.524011
 20
21.373046
 30
0.0
 10
146.664641
 20
21.373046
 30
0.0
 10
145.805262
 20
21.373046
 30
0.0
 10
145.805262
 20
22.232425
 30
0.0
 10
145.805262
 20
23.091794
 30
0.0
 10
146.664641
 20
23.091794
 30
0.0
 10
147.524011
 20
23.091794
 30
0.0
 10
147.524011
 20
26.568362
 30
0.0
 10
147.524011
 20
30.044920
 30
0.0
 10
146.664641
 20
30.044920
 30
0.0
 10
145.805262
 20
30.044920
 30
0.0
 10
145.805262
 20
32.662108
 30
0.0
 10
145.805262
 20
35.279286
 30
0.0
 10
144.926363
 20
35.279286
 30
0.0
 10
144.047453
 20
35.279286
 30
0.0
 10
144.047453
 20
37.876945
 30
0.0
 10
144.047453
 20
40.474603
 30
0.0
 10
143.188074
 20
40.474603
 30
0.0
 10
142.328704
 20
40.474603
 30
0.0
 10
142.328704
 20
37.876945
 30
0.0
 10
142.328704
 20
35.279286
 30
0.0
 10
137.973237
 20
35.279286
 30
0.0
 10
133.617770
 20
35.279286
 30
0.0
 10
133.617770
 20
36.138666
 30
0.0
 10
133.617770
 20
36.998035
 30
0.0
 10
132.758401
 20
36.998035
 30
0.0
 10
131.899021
 20
36.998035
 30
0.0
 10
131.899021
 20
38.736314
 30
0.0
 10
131.899021
 20
40.474603
 30
0.0
 10
132.758401
 20
40.474603
 30
0.0
 10
133.617770
 20
40.474603
 30
0.0
 10
133.617770
 20
41.353502
 30
0.0
 10
133.617770
 20
42.232412
 30
0.0
 10
132.758401
 20
42.232412
 30
0.0
 10
131.899021
 20
42.232412
 30
0.0
 10
131.899021
 20
46.567939
 30
0.0
 10
131.899021
 20
50.903466
 30
0.0
 10
133.627540
 20
50.913636
 30
0.0
 10
135.356049
 20
50.923806
 30
0.0
 10
135.366549
 20
51.792945
 30
0.0
 10
135.377049
 20
52.662086
 30
0.0
 10
136.235678
 20
52.662086
 30
0.0
 10
137.094298
 20
52.662086
 30
0.0
 10
137.094298
 20
53.540991
 30
0.0
 10
137.094298
 20
54.419897
 30
0.0
 10
136.234928
 20
54.419897
 30
0.0
 10
135.375549
 20
54.419897
 30
0.0
 10
135.375549
 20
56.138646
 30
0.0
 10
135.375549
 20
57.857395
 30
0.0
 10
138.852117
 20
57.857395
 30
0.0
 10
142.328674
 20
57.857395
 30
0.0
 10
142.328674
 20
56.998021
 30
0.0
 10
142.328674
 20
56.138646
 30
0.0
 10
143.187304
 20
56.138646
 30
0.0
 10
144.045933
 20
56.138646
 30
0.0
 10
144.056433
 20
55.269506
 30
0.0
 10
144.066933
 20
54.400365
 30
0.0
 10
144.936073
 20
54.389855
 30
0.0
 10
145.805212
 20
54.379345
 30
0.0
 10
145.805212
 20
53.520719
 30
0.0
 10
145.805212
 20
52.662092
 30
0.0
 10
146.664591
 20
52.662092
 30
0.0
 10
147.523961
 20
52.662092
 30
0.0
 10
147.523961
 20
53.520687
 30
0.0
 10
147.523961
 20
54.379313
 30
0.0
 10
148.393100
 20
54.389823
 30
0.0
 10
149.262240
 20
54.400333
 30
0.0
 10
149.272740
 20
55.269474
 30
0.0
 10
149.283240
 20
56.138614
 30
0.0
 10
150.141869
 20
56.138614
 30
0.0
 10
151.000489
 20
56.138614
 30
0.0
 10
151.000489
 20
56.997989
 30
0.0
 10
151.000489
 20
57.857363
 30
0.0
 10
151.879398
 20
57.857363
 30
0.0
 10
152.758307
 20
57.857363
 30
0.0
  0
LWPOLYLINE
  5
320
100
AcDbEntity
  8
Lag_1
 62
7
100
AcDbPolyline
 90
8
 70
1
 10
138.822077
 20
55.269480
 30
0.0
 10
138.832577
 20
54.400339
 30
0.0
 10
139.701716
 20
54.389829
 30
0.0
 10
140.570856
 20
54.379319
 30
0.0
 10
140.570856
 20
55.258973
 30
0.0
 10
140.570856
 20
56.138626
 30
0.0
 10
139.691196
 20
56.138626
 30
0.0
 10
138.811547
 20
56.138626
 30
0.0
  0
LWPOLYLINE
  5
321
100
AcDbEntity
  8
Lag_1
 62
7
100
AcDbPolyline
 90
96
 70
1
 10
138.813077
 20
50.924186
 30
0.0
 10
138.813077
 20
49.186312
 30
0.0
 10
137.084568
 20
49.176142
 30
0.0
 10
135.356049
 20
49.165972
 30
0.0
 10
135.356049
 20
48.306598
 30
0.0
 10
135.356049
 20
47.447218
 30
0.0
 10
137.084568
 20
47.437018
 30
0.0
 10
138.813077
 20
47.426818
 30
0.0
 10
138.813077
 20
46.568259
 30
0.0
 10
138.813077
 20
45.709689
 30
0.0
 10
137.084568
 20
45.699489
 30
0.0
 10
135.356049
 20
45.689289
 30
0.0
 10
135.356049
 20
43.091631
 30
0.0
 10
135.356049
 20
40.493983
 30
0.0
 10
137.963477
 20
40.483983
 30
0.0
 10
140.570896
 20
40.473983
 30
0.0
 10
140.570896
 20
41.353162
 30
0.0
 10
140.570896
 20
42.232352
 30
0.0
 10
139.711516
 20
42.232352
 30
0.0
 10
138.852147
 20
42.232352
 30
0.0
 10
138.852147
 20
43.091721
 30
0.0
 10
138.852147
 20
43.951100
 30
0.0
 10
140.590426
 20
43.951100
 30
0.0
 10
142.328704
 20
43.951100
 30
0.0
 10
142.328704
 20
43.091721
 30
0.0
 10
142.328704
 20
42.232352
 30
0.0
 10
143.188074
 20
42.232352
 30
0.0
 10
144.047453
 20
42.232352
 30
0.0
 10
144.047453
 20
41.353442
 30
0.0
 10
144.047453
 20
40.474543
 30
0.0
 10
146.664641
 20
40.474543
 30
0.0
 10
149.281820
 20
40.474543
 30
0.0
 10
149.281820
 20
39.615163
 30
0.0
 10
149.281820
 20
38.755794
 30
0.0
 10
148.402920
 20
38.755794
 30
0.0
 10
147.524011
 20
38.755794
 30
0.0
 10
147.524011
 20
37.876885
 30
0.0
 10
147.524011
 20
36.997975
 30
0.0
 10
146.664641
 20
36.997975
 30
0.0
 10
145.805262
 20
36.997975
 30
0.0
 10
145.805262
 20
36.138606
 30
0.0
 10
145.805262
 20
35.279226
 30
0.0
 10
146.664641
 20
35.279226
 30
0.0
 10
147.524011
 20
35.279226
 30
0.0
 10
147.524011
 20
36.138606
 30
0.0
 10
147.524011
 20
36.997975
 30
0.0
 10
150.141199
 20
36.997975
 30
0.0
 10
152.758387
 20
36.997975
 30
0.0
 10
152.758387
 20
37.876885
 30
0.0
 10
152.758387
 20
38.755794
 30
0.0
 10
153.617757
 20
38.755794
 30
0.0
 10
154.477136
 20
38.755794
 30
0.0
 10
154.477136
 20
37.876885
 30
0.0
 10
154.477136
 20
36.997975
 30
0.0
 10
156.215415
 20
36.997975
 30
0.0
 10
157.953694
 20
36.997975
 30
0.0
 10
157.953694
 20
37.876885
 30
0.0
 10
157.953694
 20
38.755794
 30
0.0
 10
157.094314
 20
38.755794
 30
0.0
 10
156.234945
 20
38.755794
 30
0.0
 10
156.234945
 20
39.615163
 30
0.0
 10
156.234945
 20
40.474543
 30
0.0
 10
157.094314
 20
40.474543
 30
0.0
 10
157.953694
 20
40.474543
 30
0.0
 10
157.953694
 20
41.353442
 30
0.0
 10
157.953694
 20
42.232352
 30
0.0
 10
157.094314
 20
42.232352
 30
0.0
 10
156.234945
 20
42.232352
 30
0.0
 10
156.234945
 20
41.353442
 30
0.0
 10
156.234945
 20
40.474543
 30
0.0
 10
155.356036
 20
40.474543
 30
0.0
 10
154.477136
 20
40.474543
 30
0.0
 10
154.477136
 20
42.212822
 30
0.0
 10
154.477136
 20
43.951100
 30
0.0
 10
152.738857
 20
43.951100
 30
0.0
 10
151.000569
 20
43.951100
 30
0.0
 10
151.000569
 20
44.830000
 30
0.0
 10
151.000569
 20
45.708909
 30
0.0
 10
148.403200
 20
45.708909
 30
0.0
 10
145.805822
 20
45.708909
 30
0.0
 10
145.795722
 20
48.316334
 30
0.0
 10
145.785722
 20
50.923754
 30
0.0
 10
144.926353
 20
50.923754
 30
0.0
 10
144.066973
 20
50.923754
 30
0.0
 10
144.056473
 20
50.054613
 30
0.0
 10
144.045973
 20
49.185474
 30
0.0
 10
143.188084
 20
49.185474
 30
0.0
 10
142.330204
 20
49.185474
 30
0.0
 10
142.319704
 20
50.054613
 30
0.0
 10
142.309204
 20
50.923754
 30
0.0
 10
141.440065
 20
50.934264
 30
0.0
 10
140.570926
 20
50.944774
 30
0.0
 10
140.570926
 20
51.803400
 30
0.0
 10
140.570926
 20
52.662028
 30
0.0
 10
139.692016
 20
52.662028
 30
0.0
 10
138.813107
 20
52.662028
 30
0.0
  0
LWPOLYLINE
  5
322
100
AcDbEntity
  8
Lag_1
 62
7
100
AcDbPolyline
 90
8
 70
1
 10
140.570896
 20
48.306594
 30
0.0
 10
140.570896
 20
47.427688
 30
0.0
 10
139.711516
 20
47.427688
 30
0.0
 10
138.852147
 20
47.427688
 30
0.0
 10
138.852147
 20
48.306594
 30
0.0
 10
138.852147
 20
49.185500
 30
0.0
 10
139.711516
 20
49.185500
 30
0.0
 10
140.570896
 20
49.185500
 30
0.0
  0
LWPOLYLINE
  5
323
100
AcDbEntity
  8
Lag_1
 62
7
100
AcDbPolyline
 90
24
 70
1
 10
145.805262
 20
44.830030
 30
0.0
 10
145.805262
 20
43.951130
 30
0.0
 10
147.543541
 20
43.951130
 30
0.0
 10
149.281820
 20
43.951130
 30
0.0
 10
149.281820
 20
43.091751
 30
0.0
 10
149.281820
 20
42.232382
 30
0.0
 10
151.020109
 20
42.232382
 30
0.0
 10
152.758387
 20
42.232382
 30
0.0
 10
152.758387
 20
41.353472
 30
0.0
 10
152.758387
 20
40.474573
 30
0.0
 10
151.020109
 20
40.474573
 30
0.0
 10
149.281820
 20
40.474573
 30
0.0
 10
149.281820
 20
41.353472
 30
0.0
 10
149.281820
 20
42.232382
 30
0.0
 10
146.664641
 20
42.232382
 30
0.0
 10
144.047453
 20
42.232382
 30
0.0
 10
144.047453
 20
43.091751
 30
0.0
 10
144.047453
 20
43.951130
 30
0.0
 10
143.188074
 20
43.951130
 30
0.0
 10
142.328704
 20
43.951130
 30
0.0
 10
142.328704
 20
44.830030
 30
0.0
 10
142.328704
 20
45.708939
 30
0.0
 10
144.066983
 20
45.708939
 30
0.0
 10
145.805262
 20
45.708939
 30
0.0
  0
LWPOLYLINE
  5
324
100
AcDbEntity
  8
Lag_1
 62
7
100
AcDbPolyline
 90
8
 70
1
 10
135.356049
 20
37.876915
 30
0.0
 10
135.356049
 20
37.017535
 30
0.0
 10
137.963477
 20
37.007535
 30
0.0
 10
140.570896
 20
36.997535
 30
0.0
 10
140.570896
 20
37.876995
 30
0.0
 10
140.570896
 20
38.756454
 30
0.0
 10
137.963477
 20
38.746454
 30
0.0
 10
135.356049
 20
38.736454
 30
0.0
  0
LWPOLYLINE
  5
325
100
AcDbEntity
  8
Lag_1
 62
7
100
AcDbPolyline
 90
20
 70
1
 10
149.281820
 20
34.400357
 30
0.0
 10
149.281820
 20
33.521447
 30
0.0
 10
148.402920
 20
33.521447
 30
0.0
 10
147.524011
 20
33.521447
 30
0.0
 10
147.524011
 20
31.783169
 30
0.0
 10
147.524011
 20
30.044890
 30
0.0
 10
148.402920
 20
30.044890
 30
0.0
 10
149.281820
 20
30.044890
 30
0.0
 10
149.281820
 20
29.165580
 30
0.0
 10
149.281820
 20
28.286261
 30
0.0
 10
151.010339
 20
28.296461
 30
0.0
 10
152.738857
 20
28.306661
 30
0.0
 10
152.748857
 20
30.914079
 30
0.0
 10
152.758857
 20
33.521497
 30
0.0
 10
151.879678
 20
33.521497
 30
0.0
 10
151.000489
 20
33.521497
 30
0.0
 10
151.000489
 20
34.400407
 30
0.0
 10
151.000489
 20
35.279306
 30
0.0
 10
150.141119
 20
35.279306
 30
0.0
 10
149.281740
 20
35.279306
 30
0.0
  0
LWPOLYLINE
  5
326
100
AcDbEntity
  8
Lag_1
 62
7
100
AcDbPolyline
 90
8
 70
1
 10
151.000569
 20
32.662078
 30
0.0
 10
151.000569
 20
31.802699
 30
0.0
 10
150.141199
 20
31.802699
 30
0.0
 10
149.281820
 20
31.802699
 30
0.0
 10
149.281820
 20
32.662078
 30
0.0
 10
149.281820
 20
33.521447
 30
0.0
 10
150.141199
 20
33.521447
 30
0.0
 10
151.000569
 20
33.521447
 30
0.0
  0
LWPOLYLINE
  5
327
100
AcDbEntity
  8
Lag_1
 62
7
100
AcDbPolyline
 90
8
 70
1
 10
147.524011
 20
56.138620
 30
0.0
 10
147.524011
 20
54.419871
 30
0.0
 10
146.664641
 20
54.419871
 30
0.0
 10
145.805262
 20
54.419871
 30
0.0
 10
145.805262
 20
56.138620
 30
0.0
 10
145.805262
 20
57.857369
 30
0.0
 10
146.664641
 20
57.857369
 30
0.0
 10
147.524011
 20
57.857369
 30
0.0
  0
LWPOLYLINE
  5
328
100
AcDbEntity
  8
Lag_1
 62
7
100
AcDbPolyline
 90
8
 70
1
 10
133.617770
 20
56.997995
 30
0.0
 10
133.617770
 20
56.138620
 30
0.0
 10
132.758401
 20
56.138620
 30
0.0
 10
131.899021
 20
56.138620
 30
0.0
 10
131.899021
 20
56.997995
 30
0.0
 10
131.899021
 20
57.857369
 30
0.0
 10
132.758401
 20
57.857369
 30
0.0
 10
133.617770
 20
57.857369
 30
0.0
  0
LWPOLYLINE
  5
329
100
AcDbEntity
  8
Lag_1
 62
7
100
AcDbPolyline
 90
8
 70
1
 10
154.477136
 20
53.521434
 30
0.0
 10
154.477136
 20
52.662060
 30
0.0
 10
153.617757
 20
52.662060
 30
0.0
 10
152.758387
 20
52.662060
 30
0.0
 10
152.758387
 20
53.521434
 30
0.0
 10
152.758387
 20
54.380808
 30
0.0
 10
153.617757
 20
54.380808
 30
0.0
 10
154.477136
 20
54.380808
 30
0.0
  0
LWPOLYLINE
  5
32a
100
AcDbEntity
  8
Lag_1
 62
7
100
AcDbPolyline
 90
8
 70
1
 10
135.336519
 20
53.521434
 30
0.0
 10
135.336519
 20
52.662060
 30
0.0
 10
133.617770
 20
52.662060
 30
0.0
 10
131.899021
 20
52.662060
 30
0.0
 10
131.899021
 20
53.521434
 30
0.0
 10
131.899021
 20
54.380808
 30
0.0
 10
133.617770
 20
54.380808
 30
0.0
 10
135.336519
 20
54.380808
 30
0.0
  0
LWPOLYLINE
  5
32b
100
AcDbEntity
  8
Lag_1
 62
7
100
AcDbPolyline
 90
20
 70
1
 10
166.664628
 20
43.091751
 30
0.0
 10
166.664628
 20
42.232382
 30
0.0
 10
167.523997
 20
42.232382
 30
0.0
 10
168.383377
 20
42.232382
 30
0.0
 10
168.383377
 20
39.615193
 30
0.0
 10
168.383377
 20
36.998005
 30
0.0
 10
166.664628
 20
36.998005
 30
0.0
 10
164.945879
 20
36.998005
 30
0.0
 10
164.945879
 20
38.736284
 30
0.0
 10
164.945879
 20
40.474573
 30
0.0
 10
165.805249
 20
40.474573
 30
0.0
 10
166.664628
 20
40.474573
 30
0.0
 10
166.664628
 20
41.353472
 30
0.0
 10
166.664628
 20
42.232382
 30
0.0
 10
165.805249
 20
42.232382
 30
0.0
 10
164.945879
 20
42.232382
 30
0.0
 10
164.945879
 20
43.091751
 30
0.0
 10
164.945879
 20
43.951130
 30
0.0
 10
165.805249
 20
43.951130
 30
0.0
 10
166.664628
 20
43.951130
 30
0.0
  0
LWPOLYLINE
  5
32c
100
AcDbEntity
  8
Lag_1
 62
7
100
AcDbPolyline
 90
8
 70
1
 10
164.906809
 20
36.138636
 30
0.0
 10
164.906809
 20
35.279256
 30
0.0
 10
164.047440
 20
35.279256
 30
0.0
 10
163.188060
 20
35.279256
 30
0.0
 10
163.188060
 20
36.138636
 30
0.0
 10
163.188060
 20
36.998005
 30
0.0
 10
164.047440
 20
36.998005
 30
0.0
 10
164.906809
 20
36.998005
 30
0.0
  0
LWPOLYLINE
  5
32d
100
AcDbEntity
  8
Lag_1
 62
7
100
AcDbPolyline
 90
8
 70
1
 10
168.383377
 20
27.447232
 30
0.0
 10
168.383377
 20
21.373016
 30
0.0
 10
162.309161
 20
21.373016
 30
0.0
 10
156.234945
 20
21.373016
 30
0.0
 10
156.234945
 20
27.447232
 30
0.0
 10
156.234945
 20
33.521447
 30
0.0
 10
162.309161
 20
33.521447
 30
0.0
 10
168.383377
 20
33.521447
 30
0.0
  0
LWPOLYLINE
  5
32e
100
AcDbEntity
  8
Lag_1
 62
7
100
AcDbPolyline
 90
8
 70
1
 10
157.953694
 20
27.447232
 30
0.0
 10
157.953694
 20
23.091764
 30
0.0
 10
162.309161
 20
23.091764
 30
0.0
 10
166.664628
 20
23.091764
 30
0.0
 10
166.664628
 20
27.447232
 30
0.0
 10
166.664628
 20
31.802699
 30
0.0
 10
162.309161
 20
31.802699
 30
0.0
 10
157.953694
 20
31.802699
 30
0.0
  0
LWPOLYLINE
  5
32f
100
AcDbEntity
  8
Lag_1
 62
7
100
AcDbPolyline
 90
8
 70
1
 10
164.906809
 20
27.447232
 30
0.0
 10
164.906809
 20
24.849583
 30
0.0
 10
162.309161
 20
24.849583
 30
0.0
 10
159.711503
 20
24.849583
 30
0.0
 10
159.711503
 20
27.447232
 30
0.0
 10
159.711503
 20
30.044890
 30
0.0
 10
162.309161
 20
30.044890
 30
0.0
 10
164.906809
 20
30.044890
 30
0.0
  0
LWPOLYLINE
  5
330
100
AcDbEntity
  8
Lag_1
 62
7
100
AcDbPolyline
 90
8
 70
1
 10
144.047453
 20
27.447232
 30
0.0
 10
144.047453
 20
21.373016
 30
0.0
 10
137.973237
 20
21.373016
 30
0.0
 10
131.899021
 20
21.373016
 30
0.0
 10
131.899021
 20
27.447232
 30
0.0
 10
131.899021
 20
33.521447
 30
0.0
 10
137.973237
 20
33.521447
 30
0.0
 10
144.047453
 20
33.521447
 30
0.0
  0
LWPOLYLINE
  5
331
100
AcDbEntity
  8
Lag_1
 62
7
100
AcDbPolyline
 90
8
 70
1
 10
133.617770
 20
27.447232
 30
0.0
 10
133.617770
 20
23.091764
 30
0.0
 10
137.973237
 20
23.091764
 30
0.0
 10
142.328704
 20
23.091764
 30
0.0
 10
142.328704
 20
27.447232
 30
0.0
 10
142.328704
 20
31.802699
 30
0.0
 10
137.973237
 20
31.802699
 30
0.0
 10
133.617770
 20
31.802699
 30
0.0
  0
LWPOLYLINE
  5
332
100
AcDbEntity
  8
Lag_1
 62
7
100
AcDbPolyline
 90
8
 70
1
 10
140.570896
 20
27.447232
 30
0.0
 10
140.570896
 20
24.849583
 30
0.0
 10
137.973237
 20
24.849583
 30
0.0
 10
135.375579
 20
24.849583
 30
0.0
 10
135.375579
 20
27.447232
 30
0.0
 10
135.375579
 20
30.044890
 30
0.0
 10
137.973237
 20
30.044890
 30
0.0
 10
140.570896
 20
30.044890
 30
0.0
  0
LWPOLYLINE
  5
333
100
AcDbEntity
  8
Lag_1
 62
7
100
AcDbPolyline
 90
8
 70
1
 10
111.945005
 20
51.697304
 30
0.0
 10
111.945005
 20
45.623089
 30
0.0
 10
105.870789
 20
45.623089
 30
0.0
 10
99.796573
 20
45.623089
 30
0.0
 10
99.796573
 20
51.697304
 30
0.0
 10
99.796573
 20
57.771519
 30
0.0
 10
105.870789
 20
57.771519
 30
0.0
 10
111.945005
 20
57.771519
 30
0.0
  0
LWPOLYLINE
  5
334
100
AcDbEntity
  8
Lag_1
 62
7
100
AcDbPolyline
 90
8
 70
1
 10
101.515322
 20
51.697304
 30
0.0
 10
101.515322
 20
47.341838
 30
0.0
 10
105.870789
 20
47.341838
 30
0.0
 10
110.226256
 20
47.341838
 30
0.0
 10
110.226256
 20
51.697304
 30
0.0
 10
110.226256
 20
56.052770
 30
0.0
 10
105.870789
 20
56.052770
 30
0.0
 10
101.515322
 20
56.052770
 30
0.0
  0
LWPOLYLINE
  5
335
100
AcDbEntity
  8
Lag_1
 62
7
100
AcDbPolyline
 90
8
 70
1
 10
108.468447
 20
51.697304
 30
0.0
 10
108.468447
 20
49.099650
 30
0.0
 10
105.870789
 20
49.099650
 30
0.0
 10
103.273131
 20
49.099650
 30
0.0
 10
103.273131
 20
51.697304
 30
0.0
 10
103.273131
 20
54.294959
 30
0.0
 10
105.870789
 20
54.294959
 30
0.0
 10
108.468447
 20
54.294959
 30
0.0
  0
LWPOLYLINE
  5
336
100
AcDbEntity
  8
Lag_1
 62
7
100
AcDbPolyline
 90
140
 70
1
 10
96.320015
 20
56.912145
 30
0.0
 10
96.320015
 20
56.052770
 30
0.0
 10
95.441107
 20
56.052770
 30
0.0
 10
94.562201
 20
56.052770
 30
0.0
 10
94.562201
 20
54.314490
 30
0.0
 10
94.562201
 20
52.576210
 30
0.0
 10
92.823922
 20
52.576210
 30
0.0
 10
91.085641
 20
52.576210
 30
0.0
 10
91.085641
 20
50.837930
 30
0.0
 10
91.085641
 20
49.099650
 30
0.0
 10
91.964547
 20
49.099650
 30
0.0
 10
92.843453
 20
49.099650
 30
0.0
 10
92.843453
 20
48.220744
 30
0.0
 10
92.843453
 20
47.341838
 30
0.0
 10
93.702827
 20
47.341838
 30
0.0
 10
94.562201
 20
47.341838
 30
0.0
 10
94.562201
 20
49.080118
 30
0.0
 10
94.562201
 20
50.818399
 30
0.0
 10
95.441107
 20
50.818399
 30
0.0
 10
96.320015
 20
50.818399
 30
0.0
 10
96.320015
 20
49.959024
 30
0.0
 10
96.320015
 20
49.099650
 30
0.0
 10
97.179385
 20
49.099650
 30
0.0
 10
98.038764
 20
49.099650
 30
0.0
 10
98.038764
 20
46.482469
 30
0.0
 10
98.038764
 20
43.865281
 30
0.0
 10
99.777043
 20
43.865281
 30
0.0
 10
101.515322
 20
43.865281
 30
0.0
 10
101.515322
 20
43.005901
 30
0.0
 10
101.515322
 20
42.146532
 30
0.0
 10
104.991879
 20
42.146532
 30
0.0
 10
108.468447
 20
42.146532
 30
0.0
 10
108.468447
 20
41.267622
 30
0.0
 10
108.468447
 20
40.388723
 30
0.0
 10
107.609068
 20
40.388723
 30
0.0
 10
106.749698
 20
40.388723
 30
0.0
 10
106.749698
 20
39.530093
 30
0.0
 10
106.749698
 20
38.671464
 30
0.0
 10
105.880549
 20
38.660964
 30
0.0
 10
105.011409
 20
38.650464
 30
0.0
 10
105.000909
 20
37.781325
 30
0.0
 10
104.990409
 20
36.912185
 30
0.0
 10
104.131780
 20
36.912185
 30
0.0
 10
103.273151
 20
36.912185
 30
0.0
 10
103.273151
 20
36.052816
 30
0.0
 10
103.273151
 20
35.193436
 30
0.0
 10
99.796593
 20
35.193436
 30
0.0
 10
96.320035
 20
35.193436
 30
0.0
 10
96.320035
 20
34.314537
 30
0.0
 10
96.320035
 20
33.435628
 30
0.0
 10
97.179405
 20
33.435628
 30
0.0
 10
98.038784
 20
33.435628
 30
0.0
 10
98.038784
 20
28.220791
 30
0.0
 10
98.038784
 20
23.005945
 30
0.0
 10
97.179405
 20
23.005945
 30
0.0
 10
96.320035
 20
23.005945
 30
0.0
 10
96.320035
 20
22.146575
 30
0.0
 10
96.320035
 20
21.287196
 30
0.0
 10
94.581752
 20
21.287196
 30
0.0
 10
92.843473
 20
21.287196
 30
0.0
 10
92.843473
 20
22.146575
 30
0.0
 10
92.843473
 20
23.005945
 30
0.0
 10
91.964567
 20
23.005945
 30
0.0
 10
91.085661
 20
23.005945
 30
0.0
 10
91.085661
 20
22.146575
 30
0.0
 10
91.085661
 20
21.287196
 30
0.0
 10
90.226286
 20
21.287196
 30
0.0
 10
89.366912
 20
21.287196
 30
0.0
 10
89.366912
 20
22.146575
 30
0.0
 10
89.366912
 20
23.005945
 30
0.0
 10
90.226286
 20
23.005945
 30
0.0
 10
91.085661
 20
23.005945
 30
0.0
 10
91.085661
 20
26.482512
 30
0.0
 10
91.085661
 20
29.959070
 30
0.0
 10
90.226286
 20
29.959070
 30
0.0
 10
89.366912
 20
29.959070
 30
0.0
 10
89.366912
 20
32.576258
 30
0.0
 10
89.366912
 20
35.193436
 30
0.0
 10
88.487987
 20
35.193436
 30
0.0
 10
87.609081
 20
35.193436
 30
0.0
 10
87.609081
 20
37.791095
 30
0.0
 10
87.609081
 20
40.388753
 30
0.0
 10
86.749707
 20
40.388753
 30
0.0
 10
85.890332
 20
40.388753
 30
0.0
 10
85.890332
 20
37.791095
 30
0.0
 10
85.890332
 20
35.193436
 30
0.0
 10
81.534866
 20
35.193436
 30
0.0
 10
77.179400
 20
35.193436
 30
0.0
 10
77.179400
 20
36.052816
 30
0.0
 10
77.179400
 20
36.912185
 30
0.0
 10
76.320026
 20
36.912185
 30
0.0
 10
75.460651
 20
36.912185
 30
0.0
 10
75.460651
 20
38.650464
 30
0.0
 10
75.460651
 20
40.388753
 30
0.0
 10
76.320026
 20
40.388753
 30
0.0
 10
77.179400
 20
40.388753
 30
0.0
 10
77.179400
 20
41.267652
 30
0.0
 10
77.179400
 20
42.146562
 30
0.0
 10
76.320026
 20
42.146562
 30
0.0
 10
75.460651
 20
42.146562
 30
0.0
 10
75.460651
 20
46.482089
 30
0.0
 10
75.460651
 20
50.817616
 30
0.0
 10
77.189166
 20
50.827786
 30
0.0
 10
78.917681
 20
50.837956
 30
0.0
 10
78.928191
 20
51.707095
 30
0.0
 10
78.938701
 20
52.576236
 30
0.0
 10
79.797327
 20
52.576236
 30
0.0
 10
80.655955
 20
52.576236
 30
0.0
 10
80.655955
 20
53.455115
 30
0.0
 10
80.655955
 20
54.334022
 30
0.0
 10
79.796586
 20
54.334022
 30
0.0
 10
78.937212
 20
54.334022
 30
0.0
 10
78.937212
 20
56.052770
 30
0.0
 10
78.937212
 20
57.771519
 30
0.0
 10
82.413772
 20
57.771519
 30
0.0
 10
85.890332
 20
57.771519
 30
0.0
 10
85.890332
 20
56.912145
 30
0.0
 10
85.890332
 20
56.052770
 30
0.0
 10
86.748960
 20
56.052770
 30
0.0
 10
87.607586
 20
56.052770
 30
0.0
 10
87.618096
 20
55.183630
 30
0.0
 10
87.628606
 20
54.314490
 30
0.0
 10
88.497747
 20
54.303980
 30
0.0
 10
89.366886
 20
54.293470
 30
0.0
 10
89.366886
 20
53.434843
 30
0.0
 10
89.366886
 20
52.576216
 30
0.0
 10
90.226260
 20
52.576216
 30
0.0
 10
91.085635
 20
52.576216
 30
0.0
 10
91.085635
 20
53.434837
 30
0.0
 10
91.085635
 20
54.293464
 30
0.0
 10
91.954775
 20
54.303974
 30
0.0
 10
92.823916
 20
54.314484
 30
0.0
 10
92.834426
 20
55.183624
 30
0.0
 10
92.844936
 20
56.052764
 30
0.0
 10
93.703562
 20
56.052764
 30
0.0
 10
94.562189
 20
56.052764
 30
0.0
 10
94.562189
 20
56.912139
 30
0.0
 10
94.562189
 20
57.771513
 30
0.0
 10
95.441095
 20
57.771513
 30
0.0
 10
96.320005
 20
57.771513
 30
0.0
  0
LWPOLYLINE
  5
337
100
AcDbEntity
  8
Lag_1
 62
7
100
AcDbPolyline
 90
8
 70
1
 10
82.383728
 20
55.183630
 30
0.0
 10
82.394238
 20
54.314490
 30
0.0
 10
83.263378
 20
54.303980
 30
0.0
 10
84.132517
 20
54.293470
 30
0.0
 10
84.132517
 20
55.173117
 30
0.0
 10
84.132517
 20
56.052770
 30
0.0
 10
83.252868
 20
56.052770
 30
0.0
 10
82.373215
 20
56.052770
 30
0.0
  0
LWPOLYLINE
  5
338
100
AcDbEntity
  8
Lag_1
 62
7
100
AcDbPolyline
 90
96
 70
1
 10
82.374728
 20
50.838336
 30
0.0
 10
82.374728
 20
49.100462
 30
0.0
 10
80.646213
 20
49.090292
 30
0.0
 10
78.917699
 20
49.080122
 30
0.0
 10
78.917699
 20
48.220748
 30
0.0
 10
78.917699
 20
47.361368
 30
0.0
 10
80.646213
 20
47.351168
 30
0.0
 10
82.374728
 20
47.340968
 30
0.0
 10
82.374728
 20
46.482409
 30
0.0
 10
82.374728
 20
45.623839
 30
0.0
 10
80.646213
 20
45.613639
 30
0.0
 10
78.917699
 20
45.603439
 30
0.0
 10
78.917699
 20
43.005781
 30
0.0
 10
78.917699
 20
40.408133
 30
0.0
 10
81.525119
 20
40.398033
 30
0.0
 10
84.132538
 20
40.388033
 30
0.0
 10
84.132538
 20
41.267212
 30
0.0
 10
84.132538
 20
42.146402
 30
0.0
 10
83.273164
 20
42.146402
 30
0.0
 10
82.413790
 20
42.146402
 30
0.0
 10
82.413790
 20
43.005771
 30
0.0
 10
82.413790
 20
43.865151
 30
0.0
 10
84.152070
 20
43.865151
 30
0.0
 10
85.890350
 20
43.865151
 30
0.0
 10
85.890350
 20
43.005771
 30
0.0
 10
85.890350
 20
42.146402
 30
0.0
 10
86.749725
 20
42.146402
 30
0.0
 10
87.609099
 20
42.146402
 30
0.0
 10
87.609099
 20
41.267492
 30
0.0
 10
87.609099
 20
40.388593
 30
0.0
 10
90.226284
 20
40.388593
 30
0.0
 10
92.843471
 20
40.388593
 30
0.0
 10
92.843471
 20
39.529213
 30
0.0
 10
92.843471
 20
38.669844
 30
0.0
 10
91.964565
 20
38.669844
 30
0.0
 10
91.085659
 20
38.669844
 30
0.0
 10
91.085659
 20
37.790935
 30
0.0
 10
91.085659
 20
36.912025
 30
0.0
 10
90.226284
 20
36.912025
 30
0.0
 10
89.366910
 20
36.912025
 30
0.0
 10
89.366910
 20
36.052656
 30
0.0
 10
89.366910
 20
35.193276
 30
0.0
 10
90.226284
 20
35.193276
 30
0.0
 10
91.085659
 20
35.193276
 30
0.0
 10
91.085659
 20
36.052656
 30
0.0
 10
91.085659
 20
36.912025
 30
0.0
 10
93.702845
 20
36.912025
 30
0.0
 10
96.320035
 20
36.912025
 30
0.0
 10
96.320035
 20
37.790935
 30
0.0
 10
96.320035
 20
38.669844
 30
0.0
 10
97.179405
 20
38.669844
 30
0.0
 10
98.038784
 20
38.669844
 30
0.0
 10
98.038784
 20
37.790935
 30
0.0
 10
98.038784
 20
36.912025
 30
0.0
 10
99.777063
 20
36.912025
 30
0.0
 10
101.515342
 20
36.912025
 30
0.0
 10
101.515342
 20
37.790935
 30
0.0
 10
101.515342
 20
38.669844
 30
0.0
 10
100.655972
 20
38.669844
 30
0.0
 10
99.796593
 20
38.669844
 30
0.0
 10
99.796593
 20
39.529213
 30
0.0
 10
99.796593
 20
40.388593
 30
0.0
 10
100.655972
 20
40.388593
 30
0.0
 10
101.515342
 20
40.388593
 30
0.0
 10
101.515342
 20
41.267492
 30
0.0
 10
101.515342
 20
42.146402
 30
0.0
 10
100.655972
 20
42.146402
 30
0.0
 10
99.796593
 20
42.146402
 30
0.0
 10
99.796593
 20
41.267492
 30
0.0
 10
99.796593
 20
40.388593
 30
0.0
 10
98.917684
 20
40.388593
 30
0.0
 10
98.038784
 20
40.388593
 30
0.0
 10
98.038784
 20
42.126872
 30
0.0
 10
98.038784
 20
43.865151
 30
0.0
 10
96.300505
 20
43.865151
 30
0.0
 10
94.562219
 20
43.865151
 30
0.0
 10
94.562219
 20
44.744050
 30
0.0
 10
94.562219
 20
45.622959
 30
0.0
 10
91.964842
 20
45.622959
 30
0.0
 10
89.367464
 20
45.622959
 30
0.0
 10
89.357424
 20
48.230384
 30
0.0
 10
89.347384
 20
50.837804
 30
0.0
 10
88.488010
 20
50.837804
 30
0.0
 10
87.628635
 20
50.837804
 30
0.0
 10
87.618125
 20
49.968663
 30
0.0
 10
87.607615
 20
49.099524
 30
0.0
 10
86.749736
 20
49.099524
 30
0.0
 10
85.891856
 20
49.099524
 30
0.0
 10
85.881346
 20
49.968663
 30
0.0
 10
85.870836
 20
50.837804
 30
0.0
 10
85.001696
 20
50.848314
 30
0.0
 10
84.132556
 20
50.858824
 30
0.0
 10
84.132556
 20
51.717450
 30
0.0
 10
84.132556
 20
52.576078
 30
0.0
 10
83.253650
 20
52.576078
 30
0.0
 10
82.374745
 20
52.576078
 30
0.0
  0
LWPOLYLINE
  5
339
100
AcDbEntity
  8
Lag_1
 62
7
100
AcDbPolyline
 90
8
 70
1
 10
84.132538
 20
48.220744
 30
0.0
 10
84.132538
 20
47.341838
 30
0.0
 10
83.273164
 20
47.341838
 30
0.0
 10
82.413790
 20
47.341838
 30
0.0
 10
82.413790
 20
48.220744
 30
0.0
 10
82.413790
 20
49.099650
 30
0.0
 10
83.273164
 20
49.099650
 30
0.0
 10
84.132538
 20
49.099650
 30
0.0
  0
LWPOLYLINE
  5
33a
100
AcDbEntity
  8
Lag_1
 62
7
100
AcDbPolyline
 90
24
 70
1
 10
89.366910
 20
44.744180
 30
0.0
 10
89.366910
 20
43.865281
 30
0.0
 10
91.105191
 20
43.865281
 30
0.0
 10
92.843471
 20
43.865281
 30
0.0
 10
92.843471
 20
43.005901
 30
0.0
 10
92.843471
 20
42.146532
 30
0.0
 10
94.581750
 20
42.146532
 30
0.0
 10
96.320035
 20
42.146532
 30
0.0
 10
96.320035
 20
41.267622
 30
0.0
 10
96.320035
 20
40.388723
 30
0.0
 10
94.581750
 20
40.388723
 30
0.0
 10
92.843471
 20
40.388723
 30
0.0
 10
92.843471
 20
41.267622
 30
0.0
 10
92.843471
 20
42.146532
 30
0.0
 10
90.226266
 20
42.146532
 30
0.0
 10
87.609081
 20
42.146532
 30
0.0
 10
87.609081
 20
43.005901
 30
0.0
 10
87.609081
 20
43.865281
 30
0.0
 10
86.749707
 20
43.865281
 30
0.0
 10
85.890332
 20
43.865281
 30
0.0
 10
85.890332
 20
44.744180
 30
0.0
 10
85.890332
 20
45.623089
 30
0.0
 10
87.628612
 20
45.623089
 30
0.0
 10
89.366892
 20
45.623089
 30
0.0
  0
LWPOLYLINE
  5
33b
100
AcDbEntity
  8
Lag_1
 62
7
100
AcDbPolyline
 90
8
 70
1
 10
78.917699
 20
37.791065
 30
0.0
 10
78.917699
 20
36.931685
 30
0.0
 10
81.525119
 20
36.921685
 30
0.0
 10
84.132538
 20
36.911685
 30
0.0
 10
84.132538
 20
37.791145
 30
0.0
 10
84.132538
 20
38.670604
 30
0.0
 10
81.525119
 20
38.660604
 30
0.0
 10
78.917699
 20
38.650504
 30
0.0
  0
LWPOLYLINE
  5
33c
100
AcDbEntity
  8
Lag_1
 62
7
100
AcDbPolyline
 90
20
 70
1
 10
92.843471
 20
34.314507
 30
0.0
 10
92.843471
 20
33.435598
 30
0.0
 10
91.964565
 20
33.435598
 30
0.0
 10
91.085659
 20
33.435598
 30
0.0
 10
91.085659
 20
31.697319
 30
0.0
 10
91.085659
 20
29.959040
 30
0.0
 10
91.964565
 20
29.959040
 30
0.0
 10
92.843471
 20
29.959040
 30
0.0
 10
92.843471
 20
29.079730
 30
0.0
 10
92.843471
 20
28.200411
 30
0.0
 10
94.571985
 20
28.210611
 30
0.0
 10
96.300505
 20
28.220811
 30
0.0
 10
96.310505
 20
30.828229
 30
0.0
 10
96.320505
 20
33.435648
 30
0.0
 10
95.441322
 20
33.435648
 30
0.0
 10
94.562139
 20
33.435648
 30
0.0
 10
94.562139
 20
34.314557
 30
0.0
 10
94.562139
 20
35.193456
 30
0.0
 10
93.702827
 20
35.193456
 30
0.0
 10
92.843453
 20
35.193456
 30
0.0
  0
LWPOLYLINE
  5
33d
100
AcDbEntity
  8
Lag_1
 62
7
100
AcDbPolyline
 90
8
 70
1
 10
94.562219
 20
32.576228
 30
0.0
 10
94.562219
 20
31.716849
 30
0.0
 10
93.702827
 20
31.716849
 30
0.0
 10
92.843453
 20
31.716849
 30
0.0
 10
92.843453
 20
32.576228
 30
0.0
 10
92.843453
 20
33.435598
 30
0.0
 10
93.702827
 20
33.435598
 30
0.0
 10
94.562201
 20
33.435598
 30
0.0
  0
LWPOLYLINE
  5
33e
100
AcDbEntity
  8
Lag_1
 62
7
100
AcDbPolyline
 90
8
 70
1
 10
91.085641
 20
56.052770
 30
0.0
 10
91.085641
 20
54.334022
 30
0.0
 10
90.226266
 20
54.334022
 30
0.0
 10
89.366892
 20
54.334022
 30
0.0
 10
89.366892
 20
56.052770
 30
0.0
 10
89.366892
 20
57.771519
 30
0.0
 10
90.226266
 20
57.771519
 30
0.0
 10
91.085641
 20
57.771519
 30
0.0
  0
LWPOLYLINE
  5
33f
100
AcDbEntity
  8
Lag_1
 62
7
100
AcDbPolyline
 90
8
 70
1
 10
77.179400
 20
56.912145
 30
0.0
 10
77.179400
 20
56.052770
 30
0.0
 10
76.320026
 20
56.052770
 30
0.0
 10
75.460651
 20
56.052770
 30
0.0
 10
75.460651
 20
56.912145
 30
0.0
 10
75.460651
 20
57.771519
 30
0.0
 10
76.320026
 20
57.771519
 30
0.0
 10
77.179400
 20
57.771519
 30
0.0
  0
LWPOLYLINE
  5
340
100
AcDbEntity
  8
Lag_1
 62
7
100
AcDbPolyline
 90
8
 70
1
 10
98.038764
 20
53.435584
 30
0.0
 10
98.038764
 20
52.576210
 30
0.0
 10
97.179385
 20
52.576210
 30
0.0
 10
96.320015
 20
52.576210
 30
0.0
 10
96.320015
 20
53.435584
 30
0.0
 10
96.320015
 20
54.294959
 30
0.0
 10
97.179385
 20
54.294959
 30
0.0
 10
98.038764
 20
54.294959
 30
0.0
  0
LWPOLYLINE
  5
341
100
AcDbEntity
  8
Lag_1
 62
7
100
AcDbPolyline
 90
8
 70
1
 10
78.898149
 20
53.435584
 30
0.0
 10
78.898149
 20
52.576210
 30
0.0
 10
77.179400
 20
52.576210
 30
0.0
 10
75.460651
 20
52.576210
 30
0.0
 10
75.460651
 20
53.435584
 30
0.0
 10
75.460651
 20
54.294959
 30
0.0
 10
77.179400
 20
54.294959
 30
0.0
 10
78.898149
 20
54.294959
 30
0.0
  0
LWPOLYLINE
  5
342
100
AcDbEntity
  8
Lag_1
 62
7
100
AcDbPolyline
 90
20
 70
1
 10
110.226256
 20
43.005901
 30
0.0
 10
110.226256
 20
42.146532
 30
0.0
 10
111.085625
 20
42.146532
 30
0.0
 10
111.945005
 20
42.146532
 30
0.0
 10
111.945005
 20
39.529343
 30
0.0
 10
111.945005
 20
36.912155
 30
0.0
 10
110.226256
 20
36.912155
 30
0.0
 10
108.507507
 20
36.912155
 30
0.0
 10
108.507507
 20
38.650434
 30
0.0
 10
108.507507
 20
40.388723
 30
0.0
 10
109.366877
 20
40.388723
 30
0.0
 10
110.226256
 20
40.388723
 30
0.0
 10
110.226256
 20
41.267622
 30
0.0
 10
110.226256
 20
42.146532
 30
0.0
 10
109.366877
 20
42.146532
 30
0.0
 10
108.507507
 20
42.146532
 30
0.0
 10
108.507507
 20
43.005901
 30
0.0
 10
108.507507
 20
43.865281
 30
0.0
 10
109.366877
 20
43.865281
 30
0.0
 10
110.226256
 20
43.865281
 30
0.0
  0
LWPOLYLINE
  5
343
100
AcDbEntity
  8
Lag_1
 62
7
100
AcDbPolyline
 90
8
 70
1
 10
108.468447
 20
36.052786
 30
0.0
 10
108.468447
 20
35.193406
 30
0.0
 10
107.609068
 20
35.193406
 30
0.0
 10
106.749698
 20
35.193406
 30
0.0
 10
106.749698
 20
36.052786
 30
0.0
 10
106.749698
 20
36.912155
 30
0.0
 10
107.609068
 20
36.912155
 30
0.0
 10
108.468447
 20
36.912155
 30
0.0
  0
LWPOLYLINE
  5
344
100
AcDbEntity
  8
Lag_1
 62
7
100
AcDbPolyline
 90
8
 70
1
 10
111.945005
 20
27.361382
 30
0.0
 10
111.945005
 20
21.287166
 30
0.0
 10
105.870789
 20
21.287166
 30
0.0
 10
99.796573
 20
21.287166
 30
0.0
 10
99.796573
 20
27.361382
 30
0.0
 10
99.796573
 20
33.435598
 30
0.0
 10
105.870789
 20
33.435598
 30
0.0
 10
111.945005
 20
33.435598
 30
0.0
  0
LWPOLYLINE
  5
345
100
AcDbEntity
  8
Lag_1
 62
7
100
AcDbPolyline
 90
8
 70
1
 10
101.515322
 20
27.361382
 30
0.0
 10
101.515322
 20
23.005915
 30
0.0
 10
105.870789
 20
23.005915
 30
0.0
 10
110.226256
 20
23.005915
 30
0.0
 10
110.226256
 20
27.361382
 30
0.0
 10
110.226256
 20
31.716849
 30
0.0
 10
105.870789
 20
31.716849
 30
0.0
 10
101.515322
 20
31.716849
 30
0.0
  0
LWPOLYLINE
  5
346
100
AcDbEntity
  8
Lag_1
 62
7
100
AcDbPolyline
 90
8
 70
1
 10
108.468447
 20
27.361382
 30
0.0
 10
108.468447
 20
24.763733
 30
0.0
 10
105.870789
 20
24.763733
 30
0.0
 10
103.273131
 20
24.763733
 30
0.0
 10
103.273131
 20
27.361382
 30
0.0
 10
103.273131
 20
29.959040
 30
0.0
 10
105.870789
 20
29.959040
 30
0.0
 10
108.468447
 20
29.959040
 30
0.0
  0
LWPOLYLINE
  5
347
100
AcDbEntity
  8
Lag_1
 62
7
100
AcDbPolyline
 90
8
 70
1
 10
87.609081
 20
27.361382
 30
0.0
 10
87.609081
 20
21.287166
 30
0.0
 10
81.534866
 20
21.287166
 30
0.0
 10
75.460651
 20
21.287166
 30
0.0
 10
75.460651
 20
27.361382
 30
0.0
 10
75.460651
 20
33.435598
 30
0.0
 10
81.534866
 20
33.435598
 30
0.0
 10
87.609081
 20
33.435598
 30
0.0
  0
LWPOLYLINE
  5
348
100
AcDbEntity
  8
Lag_1
 62
7
100
AcDbPolyline
 90
8
 70
1
 10
77.179400
 20
27.361382
 30
0.0
 10
77.179400
 20
23.005915
 30
0.0
 10
81.534866
 20
23.005915
 30
0.0
 10
85.890332
 20
23.005915
 30
0.0
 10
85.890332
 20
27.361382
 30
0.0
 10
85.890332
 20
31.716849
 30
0.0
 10
81.534866
 20
31.716849
 30
0.0
 10
77.179400
 20
31.716849
 30
0.0
  0
LWPOLYLINE
  5
349
100
AcDbEntity
  8
Lag_1
 62
7
100
AcDbPolyline
 90
8
 70
1
 10
84.132520
 20
27.361382
 30
0.0
 10
84.132520
 20
24.763733
 30
0.0
 10
81.534866
 20
24.763733
 30
0.0
 10
78.937212
 20
24.763733
 30
0.0
 10
78.937212
 20
27.361382
 30
0.0
 10
78.937212
 20
29.959040
 30
0.0
 10
81.534866
 20
29.959040
 30
0.0
 10
84.132520
 20
29.959040
 30
0.0
  0
ENDSEC
  0
SECTION
  2
OBJECTS
  0
DICTIONARY
  5
C
330
0
100
AcDbDictionary
  3
ACAD_GROUP
350
D
  3
ACAD_MLINESTYLE
350
17
  0
DICTIONARY
  5
D
330
C
100
AcDbDictionary
  0
DICTIONARY
  5
1A
330
C
100
AcDbDictionary
  0
DICTIONARY
  5
17
330
C
100
AcDbDictionary
  3
STANDARD
350
18
  0
DICTIONARY
  5
19
330
C
100
AcDbDictionary
  0
ENDSEC
  0
EOF
